# Blender 5.2.0 LTS
# www.blender.org
mtllib door.mtl
o Cube
v 0.250000 0.500000 -0.300000
v -0.250000 0.500000 -0.300000
v -0.500000 0.500000 -0.500000
v 0.500000 0.500000 -0.500000
v -0.250000 0.500000 0.300000
v 0.250000 0.500000 0.300000
v 0.500000 0.500000 0.500000
v -0.500000 0.500000 0.500000
v 0.500000 -1.000000 -0.500000
v 0.500000 -0.500000 -0.500000
v 0.500000 -0.500000 0.500000
v 0.500000 -1.000000 0.500000
v -0.500000 1.000000 -0.500000
v 0.500000 1.000000 -0.500000
v 0.250000 -0.500000 0.300000
v 0.250000 -0.500000 -0.300000
v -0.250000 -0.500000 -0.300000
v -0.500000 -0.500000 -0.500000
v -0.500000 -0.500000 0.500000
v -0.250000 -0.500000 0.300000
v -0.500000 1.000000 0.500000
v 0.500000 1.000000 0.500000
v -0.500000 -1.000000 0.500000
v -0.500000 -1.000000 -0.500000
vn -0.0000 -1.0000 -0.0000
vn -0.5774 -0.5773 0.5773
vn 1.0000 -0.0000 -0.0000
vn -0.6558 -0.3741 -0.6558
vn -0.0000 -0.0000 -1.0000
vn -0.0000 1.0000 -0.0000
vn -1.0000 -0.0000 -0.0000
vn -0.5773 0.5774 0.5774
vn -0.7071 -0.0000 -0.7071
vn -0.0000 0.7071 0.7071
vn -0.0000 -0.0000 1.0000
vt 0.062500 0.800000
vt 0.250000 0.750000
vt 0.187500 0.800000
vt 0.187500 0.950000
vt 0.000000 1.000000
vt 0.062500 0.950000
vt 0.421875 0.468750
vt 0.171875 0.343750
vt 0.421875 0.343750
vt 0.781250 0.609375
vt 0.531250 0.734375
vt 0.531250 0.609375
vt 0.000000 0.750000
vt 0.000000 0.218750
vt 0.148438 0.468750
vt 0.000000 0.468750
vt 0.000000 0.734375
vt 0.062500 0.534375
vt 0.062500 0.684375
vt 0.531250 0.750000
vt 0.679688 1.000000
vt 0.531250 1.000000
vt 0.250000 0.484375
vt 0.187500 0.684375
vt 0.187500 0.534375
vt 0.000000 0.484375
vt 0.265625 0.750000
vt 0.265625 1.000000
vt 0.781250 0.593750
vt 0.531250 0.468750
vt 0.781250 0.468750
vt 0.515625 0.750000
vt 0.515625 1.000000
vt 0.531250 0.593750
vt 0.171875 0.328125
vt 0.296875 0.078125
vt 0.296875 0.328125
vt 0.250000 1.000000
vt 0.562500 0.312500
vt 0.312500 0.187500
vt 0.562500 0.187500
vt 0.515625 0.484375
vt 0.265625 0.734375
vt 0.265625 0.484375
vt 0.703125 0.062500
vt 0.578125 0.312500
vt 0.578125 0.062500
vt 0.250000 0.734375
vt 0.953125 0.875000
vt 0.703125 1.000000
vt 0.703125 0.875000
vt 0.703125 0.453125
vt 0.953125 0.328125
vt 0.953125 0.453125
vt 0.171875 0.468750
vt 0.781250 0.734375
vt 0.148438 0.218750
vt 0.679688 0.750000
vt 0.171875 0.078125
vt 0.312500 0.312500
vt 0.515625 0.734375
vt 0.703125 0.312500
vt 0.953125 1.000000
vt 0.703125 0.328125
s 1
usemtl m_4e98ccbe-df97-8876-7048-e04e855229dd
f 2/1/1 4/2/1 1/3/1
f 6/4/1 8/5/2 5/6/1
f 10/7/3 12/8/3 9/9/3
f 3/10/4 14/11/5 4/12/5
f 5/6/1 3/13/4 2/1/1
f 15/14/3 1/15/3 6/16/3
f 18/17/6 20/18/6 17/19/6
f 17/20/7 5/21/7 2/22/7
f 11/23/6 16/24/6 15/25/6
f 19/26/6 15/25/6 20/18/6
f 3/13/4 21/27/8 13/28/9
f 14/29/3 7/30/3 4/31/3
f 13/28/6 22/32/10 14/33/6
f 22/34/10 8/5/2 7/30/11
f 5/35/11 15/36/11 6/37/11
f 1/3/1 7/38/1 6/4/1
f 19/39/7 24/40/7 23/41/7
f 9/42/1 23/43/1 24/44/1
f 17/45/5 1/46/5 16/47/5
f 10/48/6 17/19/6 16/24/6
f 24/49/5 10/50/5 9/51/5
f 19/52/11 12/53/11 11/54/11
f 2/1/1 3/13/1 4/2/1
f 6/4/1 7/38/1 8/5/2
f 10/7/3 11/55/3 12/8/3
f 3/10/4 13/56/9 14/11/5
f 5/6/1 8/5/2 3/13/4
f 15/14/3 16/57/3 1/15/3
f 18/17/6 19/26/6 20/18/6
f 17/20/7 20/58/7 5/21/7
f 11/23/6 10/48/6 16/24/6
f 19/26/6 11/23/6 15/25/6
f 3/13/4 8/5/2 21/27/8
f 14/29/3 22/34/3 7/30/3
f 13/28/6 21/27/8 22/32/10
f 22/34/10 21/27/8 8/5/2
f 5/35/11 20/59/11 15/36/11
f 1/3/1 4/2/1 7/38/1
f 19/39/7 18/60/7 24/40/7
f 9/42/1 12/61/1 23/43/1
f 17/45/5 2/62/5 1/46/5
f 10/48/6 18/17/6 17/19/6
f 24/49/5 18/63/5 10/50/5
f 19/52/11 23/64/11 12/53/11
