# Made in Blockbench 5.1.6
mtllib Pillar.mtl

o Cube
v 0.5 -1 -0.5
v 0.5 -0.5 -0.5
v 0.5 -0.5 0.5
v 0.5 -1 0.5
v -0.25 -0.5 -0.3
v -0.5 -0.5 -0.5
v -0.5 -0.5 0.5
v -0.25 -0.5 0.3
v 0.25 -0.5 0.3
v 0.25 -0.5 -0.3
v -0.5 -1 0.5
v -0.5 -1 -0.5
v -0.25 0.5 -0.3
v 0.25 0.5 -0.3
v 0.25 0.5 0.3
v -0.25 0.5 0.3
v -0.5 1 -0.5
v -0.5 0.5 -0.5
v -0.5 0.5 0.5
v -0.5 1 0.5
v 0.5 0.5 -0.5
v 0.5 0.5 0.5
v 0.5 1 0.5
v 0.5 1 -0.5
vt 0.40625 0.375
vt 0.40625 0.5
vt 0.15625 0.5
vt 0.15625 0.375
vt 0.0625 0.95
vt 0 1
vt 0 0.75
vt 0.0625 0.8
vt 0.1875 0.8
vt 0.25 0.75
vt 0.25 1
vt 0.1875 0.95
vt 0.0625 0.8
vt 0 0.75
vt 0.25 0.75
vt 0.1875 0.8
vt 0.75 0.625
vt 0.75 0.75
vt 0.5 0.75
vt 0.5 0.625
vt 0 0.5
vt 0.25 0.5
vt 0.25 0.75
vt 0 0.75
vt 0.1875 0.95
vt 0.25 1
vt 0 1
vt 0.0625 0.95
vt 0.5 0.5
vt 0.75 0.5
vt 0.75 0.625
vt 0.5 0.625
vt 0.65625 0.5
vt 0.40625 0.5
vt 0.40625 0.375
vt 0.65625 0.375
vt 0.15625 0.125
vt 0.28125 0.125
vt 0.28125 0.375
vt 0.15625 0.375
vt 0 0.25
vt 0.1484375 0.25
vt 0.1484375 0.5
vt 0 0.5
vt 0.40625 0.125
vt 0.40625 0.375
vt 0.28125 0.375
vt 0.28125 0.125
vt 0.5 0.75
vt 0.6484375 0.75
vt 0.6484375 1
vt 0.5 1
vt 0.40625 0.375
vt 0.40625 0.25
vt 0.65625 0.25
vt 0.65625 0.375
vt 0.4375 0.8
vt 0.5 0.75
vt 0.5 1
vt 0.4375 0.95
vt 0.3125 0.95
vt 0.25 1
vt 0.25 0.75
vt 0.3125 0.8
vt 0.4375 0.95
vt 0.5 1
vt 0.25 1
vt 0.3125 0.95
vt 0.65625 1
vt 0.65625 0.875
vt 0.90625 0.875
vt 0.90625 1
vt 0.5 0.75
vt 0.25 0.75
vt 0.25 0.5
vt 0.5 0.5
vt 0.3125 0.8
vt 0.25 0.75
vt 0.5 0.75
vt 0.4375 0.8
vt 0.90625 0.875
vt 0.65625 0.875
vt 0.65625 0.75
vt 0.90625 0.75
vt 0.65625 0.375
vt 0.90625 0.375
vt 0.90625 0.5
vt 0.65625 0.5
vn 1 0 0
vn 0 1 0
vn 0 1 0
vn 0 1 0
vn -1 0 0
vn 0 -1 0
vn 0 1 0
vn 0 0 -1
vn 0 0 1
vn 0 0 -1
vn 1 0 0
vn 0 0 1
vn -1 0 0
vn -1 0 0
vn 0 -1 0
vn 0 -1 0
vn 0 -1 0
vn 1 0 0
vn 0 1 0
vn 0 -1 0
vn 0 0 -1
vn 0 0 1
usemtl m_a5f1cdd1-fd2a-8068-7000-2d4adb7b3136
f 1/1/1 2/2/1 3/3/1 4/4/1
f 5/5/2 6/6/2 7/7/2 8/8/2
f 9/9/3 3/10/3 2/11/3 10/12/3
f 8/13/4 7/14/4 3/15/4 9/16/4
f 11/17/5 7/18/5 6/19/5 12/20/5
f 12/21/6 1/22/6 4/23/6 11/24/6
f 10/25/7 2/26/7 6/27/7 5/28/7
f 1/29/8 12/30/8 6/31/8 2/32/8
f 3/33/9 7/34/9 11/35/9 4/36/9
f 10/37/10 5/38/10 13/39/10 14/40/10
f 9/41/11 10/42/11 14/43/11 15/44/11
f 9/45/12 15/46/12 16/47/12 8/48/12
f 5/49/13 8/50/13 16/51/13 13/52/13
f 17/53/14 18/54/14 19/55/14 20/56/14
f 14/57/15 21/58/15 22/59/15 15/60/15
f 16/61/16 19/62/16 18/63/16 13/64/16
f 15/65/17 22/66/17 19/67/17 16/68/17
f 23/69/18 22/70/18 21/71/18 24/72/18
f 24/73/19 17/74/19 20/75/19 23/76/19
f 13/77/20 18/78/20 21/79/20 14/80/20
f 17/81/21 24/82/21 21/83/21 18/84/21
f 19/85/22 22/86/22 23/87/22 20/88/22