# Made in Blockbench 5.1.6
mtllib Switch.mtl

o SwitchBase
v -0.1 -0.2 -0.98
v -0.1 0.2 -0.98
v -0.1 0.2 -1
v -0.1 -0.2 -1
v 0.1 0.2 -1
v 0.1 -0.2 -1
v 0.1 0.2 -0.98
v 0.1 -0.2 -0.98
vt 0.53125 0.21875
vt 0.53125 0.625
vt 0.5 0.625
vt 0.5 0.21875
vt 0.1875 0.59375
vt 0.1875 1
vt 0 1
vt 0 0.59375
vt 0.65625 0.21875
vt 0.65625 0.625
vt 0.625 0.625
vt 0.625 0.21875
vt 0.4375 0.59375
vt 0.4375 1
vt 0.25 1
vt 0.25 0.59375
vt 0.6875 0.71875
vt 0.875 0.71875
vt 0.875 0.75
vt 0.6875 0.75
vt 0.9375 0.625
vt 0.75 0.625
vt 0.75 0.59375
vt 0.9375 0.59375
vn -1 0 0
vn 0 0 -1
vn 1 0 0
vn 0 0 1
vn 0 -1 0
vn 0 1 0
usemtl m_875cb502-9e74-f4e3-fbd8-cb77235a93b7
f 1/1/1 2/2/1 3/3/1 4/4/1
f 4/5/2 3/6/2 5/7/2 6/8/2
f 6/9/3 5/10/3 7/11/3 8/12/3
f 8/13/4 7/14/4 2/15/4 1/16/4
f 4/17/5 6/18/5 8/19/5 1/20/5
f 5/21/6 3/22/6 2/23/6 7/24/6
o Switch
v 0.05 -0.14 -1
v 0.05 0.14 -1
v 0.05 0.14 -0.94
v 0.05 -0.14 -0.94
v -0.05 0.14 -0.94
v -0.05 -0.14 -0.94
v -0.05 0.14 -1
v -0.05 -0.14 -1
vt 0.25 0.21875
vt 0.25 0.5
vt 0.1875 0.5
vt 0.1875 0.21875
vt 0.09375 0.21875
vt 0.09375 0.5
vt 0 0.5
vt 0 0.21875
vt 0.375 0.21875
vt 0.375 0.5
vt 0.3125 0.5
vt 0.3125 0.21875
vt 0.59375 0.71875
vt 0.59375 1
vt 0.5 1
vt 0.5 0.71875
vt 0.78125 1
vt 0.6875 1
vt 0.6875 0.9375
vt 0.78125 0.9375
vt 0.6875 0.8125
vt 0.78125 0.8125
vt 0.78125 0.875
vt 0.6875 0.875
vn 1 0 0
vn 0 0 1
vn -1 0 0
vn 0 0 -1
vn 0 -1 0
vn 0 1 0
usemtl m_875cb502-9e74-f4e3-fbd8-cb77235a93b7
f 9/25/7 10/26/7 11/27/7 12/28/7
f 12/29/8 11/30/8 13/31/8 14/32/8
f 14/33/9 13/34/9 15/35/9 16/36/9
f 16/37/10 15/38/10 10/39/10 9/40/10
f 12/41/11 14/42/11 16/43/11 9/44/11
f 13/45/12 11/46/12 10/47/12 15/48/12