# Blender 5.2.0 LTS
# www.blender.org
mtllib Untitled.mtl
o E
v 0.900000 0.750000 -1.000000
v 0.900000 0.750000 -1.000000
v 0.900000 0.750000 -1.000000
v 0.900000 0.750000 -0.800000
v 0.900000 0.750000 -0.800000
v 0.900000 0.750000 -0.800000
v 0.900000 1.000000 -0.800000
v 0.900000 1.000000 -0.800000
v 0.900000 1.000000 -1.000000
v 0.900000 1.000000 -1.000000
v 0.900000 -0.750000 -0.800000
v 0.900000 -0.750000 -0.800000
v 0.900000 -0.750000 -0.800000
v 0.900000 -1.000000 -0.800000
v 0.900000 -1.000000 -0.800000
v 1.000000 -1.000000 -0.800000
v 1.000000 -1.000000 -0.800000
v 1.000000 -0.750000 -0.800000
v 1.000000 -0.750000 -0.800000
v 1.000000 -0.750000 -0.800000
v 0.950110 -0.687500 -0.800000
v 0.950110 -0.687500 -0.800000
v 0.950110 -0.687500 -0.800000
v 0.950110 0.687500 -0.800000
v 0.950110 0.687500 -0.800000
v 0.950110 0.687500 -0.800000
v 0.950110 0.687500 -1.000000
v 0.950110 0.687500 -1.000000
v 0.950110 0.687500 -1.000000
v 0.950110 -0.687500 -1.000000
v 0.950110 -0.687500 -1.000000
v 0.950110 -0.687500 -1.000000
v 0.900000 -1.000000 -1.000000
v 0.900000 -1.000000 -1.000000
v 0.900000 -0.750000 -1.000000
v 0.900000 -0.750000 -1.000000
v 0.900000 -0.750000 -1.000000
v 1.050110 -0.687500 -0.800000
v 1.050110 -0.687500 -0.800000
v 1.050110 -0.687500 -0.800000
v 1.000000 0.750000 -0.800000
v 1.000000 0.750000 -0.800000
v 1.000000 0.750000 -0.800000
v 1.000000 1.000000 -0.800000
v 1.000000 1.000000 -0.800000
v 1.050110 0.687500 -0.800000
v 1.050110 0.687500 -0.800000
v 1.050110 0.687500 -0.800000
v 1.000000 0.750000 -1.000000
v 1.000000 0.750000 -1.000000
v 1.000000 0.750000 -1.000000
v 1.000000 1.000000 -1.000000
v 1.000000 1.000000 -1.000000
v 1.050110 0.687500 -1.000000
v 1.050110 0.687500 -1.000000
v 1.050110 0.687500 -1.000000
v 1.050110 -0.687500 -1.000000
v 1.050110 -0.687500 -1.000000
v 1.050110 -0.687500 -1.000000
v 1.000000 -1.000000 -1.000000
v 1.000000 -1.000000 -1.000000
v 1.000000 -0.750000 -1.000000
v 1.000000 -0.750000 -1.000000
v 1.000000 -0.750000 -1.000000
v 0.900000 0.750000 0.800000
v 0.900000 0.750000 0.800000
v 0.900000 0.750000 0.800000
v 0.900000 0.750000 1.000000
v 0.900000 0.750000 1.000000
v 0.900000 0.750000 1.000000
v 0.900000 1.000000 1.000000
v 0.900000 1.000000 1.000000
v 0.900000 1.000000 0.800000
v 0.900000 1.000000 0.800000
v 0.950110 -0.687500 1.000000
v 0.950110 -0.687500 1.000000
v 0.950110 -0.687500 1.000000
v 0.950110 0.687500 1.000000
v 0.950110 0.687500 1.000000
v 0.950110 0.687500 1.000000
v 0.950110 0.687500 0.800000
v 0.950110 0.687500 0.800000
v 0.950110 0.687500 0.800000
v 0.950110 -0.687500 0.800000
v 0.950110 -0.687500 0.800000
v 0.950110 -0.687500 0.800000
v 0.900000 -1.000000 0.800000
v 0.900000 -1.000000 0.800000
v 0.900000 -1.000000 1.000000
v 0.900000 -1.000000 1.000000
v 0.900000 -0.750000 1.000000
v 0.900000 -0.750000 1.000000
v 0.900000 -0.750000 1.000000
v 0.900000 -0.750000 0.800000
v 0.900000 -0.750000 0.800000
v 0.900000 -0.750000 0.800000
v 1.000000 0.750000 0.800000
v 1.000000 0.750000 0.800000
v 1.000000 0.750000 0.800000
v 1.000000 0.750000 1.000000
v 1.000000 0.750000 1.000000
v 1.000000 0.750000 1.000000
v 1.000000 1.000000 1.000000
v 1.000000 1.000000 1.000000
v 1.000000 1.000000 0.800000
v 1.000000 1.000000 0.800000
v 1.050110 -0.687500 1.000000
v 1.050110 -0.687500 1.000000
v 1.050110 -0.687500 1.000000
v 1.050110 0.687500 1.000000
v 1.050110 0.687500 1.000000
v 1.050110 0.687500 1.000000
v 1.050110 0.687500 0.800000
v 1.050110 0.687500 0.800000
v 1.050110 0.687500 0.800000
v 1.050110 -0.687500 0.800000
v 1.050110 -0.687500 0.800000
v 1.050110 -0.687500 0.800000
v 1.000000 -1.000000 0.800000
v 1.000000 -1.000000 0.800000
v 1.000000 -1.000000 1.000000
v 1.000000 -1.000000 1.000000
v 1.000000 -0.750000 1.000000
v 1.000000 -0.750000 1.000000
v 1.000000 -0.750000 1.000000
v 1.000000 -0.750000 0.800000
v 1.000000 -0.750000 0.800000
v 1.000000 -0.750000 0.800000
v 1.000000 0.750000 -0.800000
v 1.000000 0.750000 -0.800000
v 1.000000 0.750000 0.800000
v 1.000000 0.750000 0.800000
v 1.000000 1.000000 0.800000
v 1.000000 1.000000 -0.800000
v 1.050110 -0.500000 -0.800000
v 1.050110 -0.500000 0.800000
v 1.050110 -0.000000 0.800000
v 1.050110 0.000000 -0.800000
v 1.050110 -0.625000 -0.800000
v 1.050110 -0.625000 0.800000
v 1.000000 -1.000000 -0.800000
v 1.000000 -1.000000 0.800000
v 1.000000 -0.750000 0.800000
v 1.000000 -0.750000 0.800000
v 1.000000 -0.750000 -0.800000
v 1.000000 -0.750000 -0.800000
v 1.050110 0.500000 0.800000
v 1.050110 0.500000 -0.800000
v 1.050110 0.687500 -0.800000
v 1.050110 0.687500 -0.800000
v 1.050110 0.687500 0.800000
v 1.050110 0.687500 0.800000
v 1.050110 0.625000 0.800000
v 1.050110 0.625000 -0.800000
v 1.050110 -0.687500 -0.800000
v 1.050110 -0.687500 -0.800000
v 1.050110 -0.687500 0.800000
v 1.050110 -0.687500 0.800000
vn -1.0000 -0.0000 -0.0000
vn -0.0000 -0.0000 1.0000
vn -0.7802 -0.6255 -0.0000
vn -0.7802 0.6255 -0.0000
vn -0.0000 -0.0000 -1.0000
vt 0.484375 0.437500
vt 0.531250 0.437500
vt 0.531250 0.500000
vt 0.484375 0.500000
vt 0.426548 0.484375
vt 0.426548 0.421875
vt 0.451548 0.421875
vt 0.451548 0.484375
vt 0.234375 0.218750
vt 0.234375 0.562500
vt 0.187500 0.562500
vt 0.187500 0.218750
vt 0.546875 0.859375
vt 0.593750 0.859375
vt 0.593750 0.921875
vt 0.546875 0.921875
vt 0.464077 0.500000
vt 0.439077 0.500000
vt 0.593750 0.406250
vt 0.640625 0.406250
vt 0.640625 0.421875
vt 0.593750 0.421875
vt 0.426548 0.921875
vt 0.426548 0.859375
vt 0.451548 0.859375
vt 0.451548 0.921875
vt 0.464077 0.843750
vt 0.439077 0.843750
vt 0.609375 0.906250
vt 0.656250 0.906250
vt 0.656250 0.921875
vt 0.609375 0.921875
vt 0.546875 0.781250
vt 0.593750 0.781250
vt 0.593750 0.843750
vt 0.546875 0.843750
vt 0.296875 0.218750
vt 0.296875 0.562500
vt 0.250000 0.562500
vt 0.250000 0.218750
vt 0.546875 0.703125
vt 0.593750 0.703125
vt 0.593750 0.765625
vt 0.546875 0.765625
vt 0.375000 0.546875
vt 0.421875 0.546875
vt 0.421875 0.562500
vt 0.375000 0.562500
vt 0.375000 0.515625
vt 0.421875 0.515625
vt 0.421875 0.531250
vt 0.375000 0.531250
vt 0.042202 0.500000
vt 0.042202 0.562500
vt 0.017202 0.562500
vt 0.017202 0.500000
vt 0.029673 0.484375
vt 0.004673 0.484375
vt 0.029673 0.140625
vt 0.004673 0.140625
vt 0.042202 0.125000
vt 0.017202 0.125000
vt 0.042202 0.062500
vt 0.017202 0.062500
vt 0.546875 0.625000
vt 0.593750 0.625000
vt 0.593750 0.687500
vt 0.546875 0.687500
vt 0.359375 0.218750
vt 0.359375 0.562500
vt 0.312500 0.562500
vt 0.312500 0.218750
vt 0.546875 0.437500
vt 0.593750 0.437500
vt 0.593750 0.500000
vt 0.546875 0.500000
vt 0.609375 0.875000
vt 0.656250 0.875000
vt 0.656250 0.890625
vt 0.609375 0.890625
vt 0.609375 0.843750
vt 0.656250 0.843750
vt 0.656250 0.859375
vt 0.609375 0.859375
vt 0.468750 0.359375
vt 0.515625 0.359375
vt 0.515625 0.421875
vt 0.468750 0.421875
vt 0.531250 0.578125
vt 0.531250 0.921875
vt 0.484375 0.921875
vt 0.484375 0.578125
vt 0.531250 0.359375
vt 0.578125 0.359375
vt 0.578125 0.421875
vt 0.531250 0.421875
vt 0.546875 0.593750
vt 0.593750 0.593750
vt 0.593750 0.609375
vt 0.546875 0.609375
vt 0.375000 0.390625
vt 0.421875 0.390625
vt 0.421875 0.406250
vt 0.375000 0.406250
vt 0.104702 0.062500
vt 0.104702 0.125000
vt 0.079702 0.125000
vt 0.079702 0.062500
vt 0.092173 0.140625
vt 0.067173 0.140625
vt 0.092173 0.484375
vt 0.067173 0.484375
vt 0.104702 0.500000
vt 0.079702 0.500000
vt 0.104702 0.562500
vt 0.079702 0.562500
vt 0.142202 0.484375
vt 0.142202 0.140625
vt 0.167202 0.140625
vt 0.167202 0.484375
vt 0.129673 0.125000
vt 0.154673 0.125000
vt 0.129673 0.062500
vt 0.154673 0.062500
vt 0.129673 0.562500
vt 0.129673 0.500000
vt 0.154673 0.500000
vt 0.154673 0.562500
vt 0.000000 0.578125
vt 0.406250 0.578125
vt 0.406250 0.640625
vt 0.000000 0.640625
vt 0.003125 0.703125
vt 0.403125 0.703125
vt 0.403125 0.828125
vt 0.003125 0.828125
vt 0.003125 0.671875
vt 0.403125 0.671875
vt 0.421875 0.937500
vt 0.828125 0.937500
vt 0.828125 1.000000
vt 0.421875 1.000000
vt 0.403125 0.953125
vt 0.003125 0.953125
vt 0.484375 0.546875
vt 0.890625 0.546875
vt 0.890625 0.562500
vt 0.484375 0.562500
vt 0.403125 0.984375
vt 0.003125 0.984375
vt 0.403125 1.000000
vt 0.003125 1.000000
vt 0.003125 0.656250
vt 0.403125 0.656250
vt 0.484375 0.515625
vt 0.890625 0.515625
vt 0.890625 0.531250
vt 0.484375 0.531250
s 0
usemtl m_e5a6c072-72c3-8b40-22f7-cc84d33f45f0
f 3/1/1 6/2/1 8/3/1
f 3/1/1 8/3/1 10/4/1
f 11/5/2 14/6/2 16/7/2
f 11/5/2 16/7/2 18/8/2
f 23/9/1 26/10/1 29/11/1
f 23/9/1 29/11/1 32/12/1
f 34/13/1 15/14/1 13/15/1
f 34/13/1 13/15/1 37/16/1
f 38/17/2 21/18/2 11/5/2
f 38/17/2 11/5/2 18/8/2
f 28/19/3 25/20/3 5/21/3
f 28/19/3 5/21/3 2/22/3
f 7/23/2 4/24/2 41/25/2
f 7/23/2 41/25/2 44/26/2
f 38/17/2 46/27/2 24/28/2
f 38/17/2 24/28/2 21/18/2
f 36/29/4 12/30/4 22/31/4
f 36/29/4 22/31/4 31/32/4
f 51/33/1 43/34/1 45/35/1
f 51/33/1 45/35/1 53/36/1
f 40/37/1 48/38/1 56/39/1
f 40/37/1 56/39/1 59/40/1
f 61/41/1 17/42/1 20/43/1
f 61/41/1 20/43/1 64/44/1
f 55/45/3 47/46/3 42/47/3
f 55/45/3 42/47/3 50/48/3
f 41/25/2 4/24/2 24/28/2
f 41/25/2 24/28/2 46/27/2
f 63/49/4 19/50/4 39/51/4
f 63/49/4 39/51/4 58/52/4
f 1/53/5 9/54/5 52/55/5
f 1/53/5 52/55/5 49/56/5
f 27/57/5 1/53/5 49/56/5
f 27/57/5 49/56/5 54/58/5
f 30/59/5 27/57/5 54/58/5
f 30/59/5 54/58/5 57/60/5
f 35/61/5 30/59/5 57/60/5
f 35/61/5 57/60/5 62/62/5
f 33/63/5 35/61/5 62/62/5
f 33/63/5 62/62/5 60/64/5
f 67/65/1 70/66/1 72/67/1
f 67/65/1 72/67/1 74/68/1
f 77/69/1 80/70/1 83/71/1
f 77/69/1 83/71/1 86/72/1
f 88/73/1 90/74/1 93/75/1
f 88/73/1 93/75/1 96/76/1
f 82/77/3 79/78/3 69/79/3
f 82/77/3 69/79/3 66/80/3
f 95/81/4 92/82/4 76/83/4
f 95/81/4 76/83/4 85/84/4
f 99/85/1 102/86/1 104/87/1
f 99/85/1 104/87/1 106/88/1
f 109/89/1 112/90/1 115/91/1
f 109/89/1 115/91/1 118/92/1
f 120/93/1 122/94/1 125/95/1
f 120/93/1 125/95/1 128/96/1
f 114/97/3 111/98/3 101/99/3
f 114/97/3 101/99/3 98/100/3
f 127/101/4 124/102/4 108/103/4
f 127/101/4 108/103/4 117/104/4
f 87/105/5 94/106/5 126/107/5
f 87/105/5 126/107/5 119/108/5
f 94/106/5 84/109/5 116/110/5
f 94/106/5 116/110/5 126/107/5
f 84/109/5 81/111/5 113/112/5
f 84/109/5 113/112/5 116/110/5
f 81/111/5 65/113/5 97/114/5
f 81/111/5 97/114/5 113/112/5
f 65/113/5 73/115/5 105/116/5
f 65/113/5 105/116/5 97/114/5
f 78/117/2 75/118/2 107/119/2
f 78/117/2 107/119/2 110/120/2
f 75/118/2 91/121/2 123/122/2
f 75/118/2 123/122/2 107/119/2
f 91/121/2 89/123/2 121/124/2
f 91/121/2 121/124/2 123/122/2
f 71/125/2 68/126/2 100/127/2
f 71/125/2 100/127/2 103/128/2
f 68/126/2 78/117/2 110/120/2
f 68/126/2 110/120/2 100/127/2
f 130/129/1 132/130/1 133/131/1
f 130/129/1 133/131/1 134/132/1
f 135/133/1 136/134/1 137/135/1
f 135/133/1 137/135/1 138/136/1
f 139/137/1 140/138/1 136/134/1
f 139/137/1 136/134/1 135/133/1
f 141/139/1 142/140/1 144/141/1
f 141/139/1 144/141/1 146/142/1
f 138/136/1 137/135/1 147/143/1
f 138/136/1 147/143/1 148/144/1
f 149/145/3 151/146/3 131/147/3
f 149/145/3 131/147/3 129/148/3
f 148/144/1 147/143/1 153/149/1
f 148/144/1 153/149/1 154/150/1
f 154/150/1 153/149/1 152/151/1
f 154/150/1 152/151/1 150/152/1
f 156/153/1 158/154/1 140/138/1
f 156/153/1 140/138/1 139/137/1
f 145/155/4 143/156/4 157/157/4
f 145/155/4 157/157/4 155/158/4
o N
v -1.000000 0.750000 -0.900000
v -1.000000 0.750000 -0.900000
v -1.000000 0.750000 -0.900000
v -0.800000 0.750000 -0.900000
v -0.800000 0.750000 -0.900000
v -0.800000 0.750000 -0.900000
v -0.800000 1.000000 -0.900000
v -0.800000 1.000000 -0.900000
v -1.000000 1.000000 -0.900000
v -1.000000 1.000000 -0.900000
v -0.800000 -0.750000 -0.900000
v -0.800000 -0.750000 -0.900000
v -0.800000 -0.750000 -0.900000
v -0.800000 -1.000000 -0.900000
v -0.800000 -1.000000 -0.900000
v -0.800000 -1.000000 -1.000000
v -0.800000 -1.000000 -1.000000
v -0.800000 -0.750000 -1.000000
v -0.800000 -0.750000 -1.000000
v -0.800000 -0.750000 -1.000000
v -0.800000 -0.687500 -0.950110
v -0.800000 -0.687500 -0.950110
v -0.800000 -0.687500 -0.950110
v -0.800000 0.687500 -0.950110
v -0.800000 0.687500 -0.950110
v -0.800000 0.687500 -0.950110
v -1.000000 0.687500 -0.950110
v -1.000000 0.687500 -0.950110
v -1.000000 0.687500 -0.950110
v -1.000000 -0.687500 -0.950110
v -1.000000 -0.687500 -0.950110
v -1.000000 -0.687500 -0.950110
v -1.000000 -1.000000 -0.900000
v -1.000000 -1.000000 -0.900000
v -1.000000 -0.750000 -0.900000
v -1.000000 -0.750000 -0.900000
v -1.000000 -0.750000 -0.900000
v -0.800000 -0.687500 -1.050110
v -0.800000 -0.687500 -1.050110
v -0.800000 -0.687500 -1.050110
v -0.800000 0.750000 -1.000000
v -0.800000 0.750000 -1.000000
v -0.800000 0.750000 -1.000000
v -0.800000 1.000000 -1.000000
v -0.800000 1.000000 -1.000000
v -0.800000 0.687500 -1.050110
v -0.800000 0.687500 -1.050110
v -0.800000 0.687500 -1.050110
v -1.000000 0.750000 -1.000000
v -1.000000 0.750000 -1.000000
v -1.000000 0.750000 -1.000000
v -1.000000 1.000000 -1.000000
v -1.000000 1.000000 -1.000000
v -1.000000 0.687500 -1.050110
v -1.000000 0.687500 -1.050110
v -1.000000 0.687500 -1.050110
v -1.000000 -0.687500 -1.050110
v -1.000000 -0.687500 -1.050110
v -1.000000 -0.687500 -1.050110
v -1.000000 -1.000000 -1.000000
v -1.000000 -1.000000 -1.000000
v -1.000000 -0.750000 -1.000000
v -1.000000 -0.750000 -1.000000
v -1.000000 -0.750000 -1.000000
v 0.800000 0.750000 -0.900000
v 0.800000 0.750000 -0.900000
v 0.800000 0.750000 -0.900000
v 1.000000 0.750000 -0.900000
v 1.000000 0.750000 -0.900000
v 1.000000 0.750000 -0.900000
v 1.000000 1.000000 -0.900000
v 1.000000 1.000000 -0.900000
v 0.800000 1.000000 -0.900000
v 0.800000 1.000000 -0.900000
v 1.000000 -0.687500 -0.950110
v 1.000000 -0.687500 -0.950110
v 1.000000 -0.687500 -0.950110
v 1.000000 0.687500 -0.950110
v 1.000000 0.687500 -0.950110
v 1.000000 0.687500 -0.950110
v 0.800000 0.687500 -0.950110
v 0.800000 0.687500 -0.950110
v 0.800000 0.687500 -0.950110
v 0.800000 -0.687500 -0.950110
v 0.800000 -0.687500 -0.950110
v 0.800000 -0.687500 -0.950110
v 0.800000 -1.000000 -0.900000
v 0.800000 -1.000000 -0.900000
v 1.000000 -1.000000 -0.900000
v 1.000000 -1.000000 -0.900000
v 1.000000 -0.750000 -0.900000
v 1.000000 -0.750000 -0.900000
v 1.000000 -0.750000 -0.900000
v 0.800000 -0.750000 -0.900000
v 0.800000 -0.750000 -0.900000
v 0.800000 -0.750000 -0.900000
v 0.800000 0.750000 -1.000000
v 0.800000 0.750000 -1.000000
v 0.800000 0.750000 -1.000000
v 1.000000 0.750000 -1.000000
v 1.000000 0.750000 -1.000000
v 1.000000 0.750000 -1.000000
v 1.000000 1.000000 -1.000000
v 1.000000 1.000000 -1.000000
v 0.800000 1.000000 -1.000000
v 0.800000 1.000000 -1.000000
v 1.000000 -0.687500 -1.050110
v 1.000000 -0.687500 -1.050110
v 1.000000 -0.687500 -1.050110
v 1.000000 0.687500 -1.050110
v 1.000000 0.687500 -1.050110
v 1.000000 0.687500 -1.050110
v 0.800000 0.687500 -1.050110
v 0.800000 0.687500 -1.050110
v 0.800000 0.687500 -1.050110
v 0.800000 -0.687500 -1.050110
v 0.800000 -0.687500 -1.050110
v 0.800000 -0.687500 -1.050110
v 0.800000 -1.000000 -1.000000
v 0.800000 -1.000000 -1.000000
v 1.000000 -1.000000 -1.000000
v 1.000000 -1.000000 -1.000000
v 1.000000 -0.750000 -1.000000
v 1.000000 -0.750000 -1.000000
v 1.000000 -0.750000 -1.000000
v 0.800000 -0.750000 -1.000000
v 0.800000 -0.750000 -1.000000
v 0.800000 -0.750000 -1.000000
v -0.800000 0.750000 -1.000000
v -0.800000 0.750000 -1.000000
v 0.800000 0.750000 -1.000000
v 0.800000 0.750000 -1.000000
v 0.800000 1.000000 -1.000000
v -0.800000 1.000000 -1.000000
v -0.800000 -0.500000 -1.050110
v 0.800000 -0.500000 -1.050110
v 0.800000 0.000000 -1.050110
v -0.800000 0.000000 -1.050110
v -0.800000 -0.625000 -1.050110
v 0.800000 -0.625000 -1.050110
v -0.800000 -1.000000 -1.000000
v 0.800000 -1.000000 -1.000000
v 0.800000 -0.750000 -1.000000
v 0.800000 -0.750000 -1.000000
v -0.800000 -0.750000 -1.000000
v -0.800000 -0.750000 -1.000000
v 0.800000 0.500000 -1.050110
v -0.800000 0.500000 -1.050110
v -0.800000 0.687500 -1.050110
v -0.800000 0.687500 -1.050110
v 0.800000 0.687500 -1.050110
v 0.800000 0.687500 -1.050110
v 0.800000 0.625000 -1.050110
v -0.800000 0.625000 -1.050110
v -0.800000 -0.687500 -1.050110
v -0.800000 -0.687500 -1.050110
v 0.800000 -0.687500 -1.050110
v 0.800000 -0.687500 -1.050110
vn -0.0000 -0.0000 1.0000
vn 1.0000 -0.0000 -0.0000
vn -0.0000 -0.6255 0.7802
vn -0.0000 0.6255 0.7802
vn -1.0000 -0.0000 -0.0000
vt 0.484375 0.437500
vt 0.531250 0.437500
vt 0.531250 0.500000
vt 0.484375 0.500000
vt 0.426548 0.484375
vt 0.426548 0.421875
vt 0.451548 0.421875
vt 0.451548 0.484375
vt 0.234375 0.218750
vt 0.234375 0.562500
vt 0.187500 0.562500
vt 0.187500 0.218750
vt 0.546875 0.859375
vt 0.593750 0.859375
vt 0.593750 0.921875
vt 0.546875 0.921875
vt 0.464077 0.500000
vt 0.439077 0.500000
vt 0.593750 0.406250
vt 0.640625 0.406250
vt 0.640625 0.421875
vt 0.593750 0.421875
vt 0.426548 0.921875
vt 0.426548 0.859375
vt 0.451548 0.859375
vt 0.451548 0.921875
vt 0.464077 0.843750
vt 0.439077 0.843750
vt 0.609375 0.906250
vt 0.656250 0.906250
vt 0.656250 0.921875
vt 0.609375 0.921875
vt 0.546875 0.781250
vt 0.593750 0.781250
vt 0.593750 0.843750
vt 0.546875 0.843750
vt 0.296875 0.218750
vt 0.296875 0.562500
vt 0.250000 0.562500
vt 0.250000 0.218750
vt 0.546875 0.703125
vt 0.593750 0.703125
vt 0.593750 0.765625
vt 0.546875 0.765625
vt 0.375000 0.546875
vt 0.421875 0.546875
vt 0.421875 0.562500
vt 0.375000 0.562500
vt 0.375000 0.515625
vt 0.421875 0.515625
vt 0.421875 0.531250
vt 0.375000 0.531250
vt 0.042202 0.500000
vt 0.042202 0.562500
vt 0.017202 0.562500
vt 0.017202 0.500000
vt 0.029673 0.484375
vt 0.004673 0.484375
vt 0.029673 0.140625
vt 0.004673 0.140625
vt 0.042202 0.125000
vt 0.017202 0.125000
vt 0.042202 0.062500
vt 0.017202 0.062500
vt 0.546875 0.625000
vt 0.593750 0.625000
vt 0.593750 0.687500
vt 0.546875 0.687500
vt 0.359375 0.218750
vt 0.359375 0.562500
vt 0.312500 0.562500
vt 0.312500 0.218750
vt 0.546875 0.437500
vt 0.593750 0.437500
vt 0.593750 0.500000
vt 0.546875 0.500000
vt 0.609375 0.875000
vt 0.656250 0.875000
vt 0.656250 0.890625
vt 0.609375 0.890625
vt 0.609375 0.843750
vt 0.656250 0.843750
vt 0.656250 0.859375
vt 0.609375 0.859375
vt 0.468750 0.359375
vt 0.515625 0.359375
vt 0.515625 0.421875
vt 0.468750 0.421875
vt 0.531250 0.578125
vt 0.531250 0.921875
vt 0.484375 0.921875
vt 0.484375 0.578125
vt 0.531250 0.359375
vt 0.578125 0.359375
vt 0.578125 0.421875
vt 0.531250 0.421875
vt 0.546875 0.593750
vt 0.593750 0.593750
vt 0.593750 0.609375
vt 0.546875 0.609375
vt 0.375000 0.390625
vt 0.421875 0.390625
vt 0.421875 0.406250
vt 0.375000 0.406250
vt 0.104702 0.062500
vt 0.104702 0.125000
vt 0.079702 0.125000
vt 0.079702 0.062500
vt 0.092173 0.140625
vt 0.067173 0.140625
vt 0.092173 0.484375
vt 0.067173 0.484375
vt 0.104702 0.500000
vt 0.079702 0.500000
vt 0.104702 0.562500
vt 0.079702 0.562500
vt 0.142202 0.484375
vt 0.142202 0.140625
vt 0.167202 0.140625
vt 0.167202 0.484375
vt 0.129673 0.125000
vt 0.154673 0.125000
vt 0.129673 0.062500
vt 0.154673 0.062500
vt 0.129673 0.562500
vt 0.129673 0.500000
vt 0.154673 0.500000
vt 0.154673 0.562500
vt 0.000000 0.578125
vt 0.406250 0.578125
vt 0.406250 0.640625
vt 0.000000 0.640625
vt 0.003125 0.703125
vt 0.403125 0.703125
vt 0.403125 0.828125
vt 0.003125 0.828125
vt 0.003125 0.671875
vt 0.403125 0.671875
vt 0.421875 0.937500
vt 0.828125 0.937500
vt 0.828125 1.000000
vt 0.421875 1.000000
vt 0.403125 0.953125
vt 0.003125 0.953125
vt 0.484375 0.546875
vt 0.890625 0.546875
vt 0.890625 0.562500
vt 0.484375 0.562500
vt 0.403125 0.984375
vt 0.003125 0.984375
vt 0.403125 1.000000
vt 0.003125 1.000000
vt 0.003125 0.656250
vt 0.403125 0.656250
vt 0.484375 0.515625
vt 0.890625 0.515625
vt 0.890625 0.531250
vt 0.484375 0.531250
s 0
usemtl m_e5a6c072-72c3-8b40-22f7-cc84d33f45f0
f 160/159/6 163/160/6 165/161/6
f 160/159/6 165/161/6 167/162/6
f 171/163/7 173/164/7 175/165/7
f 171/163/7 175/165/7 178/166/7
f 180/167/6 183/168/6 186/169/6
f 180/167/6 186/169/6 189/170/6
f 191/171/6 172/172/6 170/173/6
f 191/171/6 170/173/6 194/174/6
f 198/175/7 181/176/7 171/163/7
f 198/175/7 171/163/7 178/166/7
f 185/177/8 182/178/8 162/179/8
f 185/177/8 162/179/8 159/180/8
f 166/181/7 164/182/7 201/183/7
f 166/181/7 201/183/7 203/184/7
f 198/175/7 206/185/7 184/186/7
f 198/175/7 184/186/7 181/176/7
f 193/187/9 169/188/9 179/189/9
f 193/187/9 179/189/9 188/190/9
f 208/191/6 200/192/6 202/193/6
f 208/191/6 202/193/6 210/194/6
f 197/195/6 205/196/6 213/197/6
f 197/195/6 213/197/6 216/198/6
f 218/199/6 174/200/6 177/201/6
f 218/199/6 177/201/6 221/202/6
f 212/203/8 204/204/8 199/205/8
f 212/203/8 199/205/8 207/206/8
f 201/183/7 164/182/7 184/186/7
f 201/183/7 184/186/7 206/185/7
f 220/207/9 176/208/9 196/209/9
f 220/207/9 196/209/9 215/210/9
f 161/211/10 168/212/10 211/213/10
f 161/211/10 211/213/10 209/214/10
f 187/215/10 161/211/10 209/214/10
f 187/215/10 209/214/10 214/216/10
f 190/217/10 187/215/10 214/216/10
f 190/217/10 214/216/10 217/218/10
f 195/219/10 190/217/10 217/218/10
f 195/219/10 217/218/10 222/220/10
f 192/221/10 195/219/10 222/220/10
f 192/221/10 222/220/10 219/222/10
f 224/223/6 227/224/6 229/225/6
f 224/223/6 229/225/6 231/226/6
f 234/227/6 237/228/6 240/229/6
f 234/227/6 240/229/6 243/230/6
f 245/231/6 247/232/6 250/233/6
f 245/231/6 250/233/6 253/234/6
f 239/235/8 236/236/8 226/237/8
f 239/235/8 226/237/8 223/238/8
f 252/239/9 249/240/9 233/241/9
f 252/239/9 233/241/9 242/242/9
f 256/243/6 259/244/6 261/245/6
f 256/243/6 261/245/6 263/246/6
f 266/247/6 269/248/6 272/249/6
f 266/247/6 272/249/6 275/250/6
f 277/251/6 279/252/6 282/253/6
f 277/251/6 282/253/6 285/254/6
f 271/255/8 268/256/8 258/257/8
f 271/255/8 258/257/8 255/258/8
f 284/259/9 281/260/9 265/261/9
f 284/259/9 265/261/9 274/262/9
f 246/263/10 254/264/10 286/265/10
f 246/263/10 286/265/10 278/266/10
f 254/264/10 244/267/10 276/268/10
f 254/264/10 276/268/10 286/265/10
f 244/267/10 241/269/10 273/270/10
f 244/267/10 273/270/10 276/268/10
f 241/269/10 225/271/10 257/272/10
f 241/269/10 257/272/10 273/270/10
f 225/271/10 232/273/10 264/274/10
f 225/271/10 264/274/10 257/272/10
f 238/275/7 235/276/7 267/277/7
f 238/275/7 267/277/7 270/278/7
f 235/276/7 251/279/7 283/280/7
f 235/276/7 283/280/7 267/277/7
f 251/279/7 248/281/7 280/282/7
f 251/279/7 280/282/7 283/280/7
f 230/283/7 228/284/7 260/285/7
f 230/283/7 260/285/7 262/286/7
f 228/284/7 238/275/7 270/278/7
f 228/284/7 270/278/7 260/285/7
f 288/287/6 290/288/6 291/289/6
f 288/287/6 291/289/6 292/290/6
f 293/291/6 294/292/6 295/293/6
f 293/291/6 295/293/6 296/294/6
f 297/295/6 298/296/6 294/292/6
f 297/295/6 294/292/6 293/291/6
f 299/297/6 300/298/6 302/299/6
f 299/297/6 302/299/6 304/300/6
f 296/294/6 295/293/6 305/301/6
f 296/294/6 305/301/6 306/302/6
f 307/303/8 309/304/8 289/305/8
f 307/303/8 289/305/8 287/306/8
f 306/302/6 305/301/6 311/307/6
f 306/302/6 311/307/6 312/308/6
f 312/308/6 311/307/6 310/309/6
f 312/308/6 310/309/6 308/310/6
f 314/311/6 316/312/6 298/296/6
f 314/311/6 298/296/6 297/295/6
f 303/313/9 301/314/9 315/315/9
f 303/313/9 315/315/9 313/316/9
o Roof
v -1.000000 1.000000 1.000000
v -1.000000 1.200000 1.000000
v -1.000000 1.200000 -1.000000
v -1.000000 1.000000 -1.000000
v -1.000000 1.000000 -1.000000
v -1.000000 1.200000 -1.000000
v -0.800000 1.200000 -1.000000
v -0.800000 1.000000 -1.000000
v -0.800000 1.000000 -1.000000
v -0.800000 1.200000 -1.000000
v -0.800000 1.200000 1.000000
v -0.800000 1.000000 1.000000
v -0.800000 1.000000 1.000000
v -0.800000 1.200000 1.000000
v -1.000000 1.200000 1.000000
v -1.000000 1.000000 1.000000
v -1.000000 1.000000 -1.000000
v -0.800000 1.000000 -1.000000
v -0.800000 1.000000 1.000000
v -1.000000 1.000000 1.000000
v -0.800000 1.200000 -1.000000
v -1.000000 1.200000 -1.000000
v -1.000000 1.200000 1.000000
v -0.800000 1.200000 1.000000
v 0.800000 1.000000 1.000000
v 0.800000 1.200000 1.000000
v 0.800000 1.200000 -1.000000
v 0.800000 1.000000 -1.000000
v 0.800000 1.000000 -1.000000
v 0.800000 1.200000 -1.000000
v 1.000000 1.200000 -1.000000
v 1.000000 1.000000 -1.000000
v 1.000000 1.000000 -1.000000
v 1.000000 1.200000 -1.000000
v 1.000000 1.200000 1.000000
v 1.000000 1.000000 1.000000
v 1.000000 1.000000 1.000000
v 1.000000 1.200000 1.000000
v 0.800000 1.200000 1.000000
v 0.800000 1.000000 1.000000
v 0.800000 1.000000 -1.000000
v 1.000000 1.000000 -1.000000
v 1.000000 1.000000 1.000000
v 0.800000 1.000000 1.000000
v 1.000000 1.200000 -1.000000
v 0.800000 1.200000 -1.000000
v 0.800000 1.200000 1.000000
v 1.000000 1.200000 1.000000
v 0.800000 1.000000 -0.800000
v 0.800000 1.200000 -0.800000
v -0.800000 1.200000 -0.800000
v -0.800000 1.000000 -0.800000
v -0.800000 1.000000 -1.000000
v -0.800000 1.200000 -1.000000
v 0.800000 1.200000 -1.000000
v 0.800000 1.000000 -1.000000
v -0.800000 1.000000 -0.800000
v -0.800000 1.000000 -1.000000
v 0.800000 1.000000 -1.000000
v 0.800000 1.000000 -0.800000
v 0.800000 1.000000 1.000000
v 0.800000 1.200000 1.000000
v -0.800000 1.200000 1.000000
v -0.800000 1.000000 1.000000
v 0.800000 1.200000 -0.800000
v 0.800000 1.200000 -1.000000
v -0.800000 1.200000 -1.000000
v -0.800000 1.200000 -0.800000
v -0.800000 1.000000 0.800000
v -0.800000 1.200000 0.800000
v 0.800000 1.200000 0.800000
v 0.800000 1.000000 0.800000
v 0.800000 1.200000 1.000000
v 0.800000 1.200000 0.800000
v -0.800000 1.200000 0.800000
v -0.800000 1.200000 1.000000
v -0.800000 1.000000 1.000000
v -0.800000 1.000000 0.800000
v 0.800000 1.000000 0.800000
v 0.800000 1.000000 1.000000
v -0.800000 1.200000 0.800000
v -0.800000 1.400000 0.800000
v -0.800000 1.400000 -0.800000
v -0.800000 1.200000 -0.800000
v -0.800000 1.200000 -0.800000
v -0.800000 1.400000 -0.800000
v -0.640000 1.400000 -0.800000
v -0.640000 1.200000 -0.800000
v -0.640000 1.200000 -0.800000
v -0.640000 1.400000 -0.800000
v -0.640000 1.400000 0.800000
v -0.640000 1.200000 0.800000
v -0.640000 1.200000 0.800000
v -0.640000 1.400000 0.800000
v -0.800000 1.400000 0.800000
v -0.800000 1.200000 0.800000
v -0.800000 1.200000 -0.800000
v -0.640000 1.200000 -0.800000
v -0.640000 1.200000 0.800000
v -0.800000 1.200000 0.800000
v -0.640000 1.400000 -0.800000
v -0.800000 1.400000 -0.800000
v -0.800000 1.400000 0.800000
v -0.640000 1.400000 0.800000
v 0.640000 1.200000 0.800000
v 0.640000 1.400000 0.800000
v 0.640000 1.400000 -0.800000
v 0.640000 1.200000 -0.800000
v 0.640000 1.200000 -0.800000
v 0.640000 1.400000 -0.800000
v 0.800000 1.400000 -0.800000
v 0.800000 1.200000 -0.800000
v 0.800000 1.200000 -0.800000
v 0.800000 1.400000 -0.800000
v 0.800000 1.400000 0.800000
v 0.800000 1.200000 0.800000
v 0.800000 1.200000 0.800000
v 0.800000 1.400000 0.800000
v 0.640000 1.400000 0.800000
v 0.640000 1.200000 0.800000
v 0.640000 1.200000 -0.800000
v 0.800000 1.200000 -0.800000
v 0.800000 1.200000 0.800000
v 0.640000 1.200000 0.800000
v 0.800000 1.400000 -0.800000
v 0.640000 1.400000 -0.800000
v 0.640000 1.400000 0.800000
v 0.800000 1.400000 0.800000
v 0.640000 1.200000 -0.640000
v 0.640000 1.400000 -0.640000
v -0.640000 1.400000 -0.640000
v -0.640000 1.200000 -0.640000
v -0.640000 1.200000 -0.800000
v -0.640000 1.400000 -0.800000
v 0.640000 1.400000 -0.800000
v 0.640000 1.200000 -0.800000
v -0.640000 1.200000 -0.640000
v -0.640000 1.200000 -0.800000
v 0.640000 1.200000 -0.800000
v 0.640000 1.200000 -0.640000
v 0.640000 1.200000 0.800000
v 0.640000 1.400000 0.800000
v -0.640000 1.400000 0.800000
v -0.640000 1.200000 0.800000
v 0.640000 1.400000 -0.640000
v 0.640000 1.400000 -0.800000
v -0.640000 1.400000 -0.800000
v -0.640000 1.400000 -0.640000
v -0.640000 1.200000 0.640000
v -0.640000 1.400000 0.640000
v 0.640000 1.400000 0.640000
v 0.640000 1.200000 0.640000
v 0.640000 1.400000 0.800000
v 0.640000 1.400000 0.640000
v -0.640000 1.400000 0.640000
v -0.640000 1.400000 0.800000
v -0.640000 1.200000 0.800000
v -0.640000 1.200000 0.640000
v 0.640000 1.200000 0.640000
v 0.640000 1.200000 0.800000
v -0.640000 1.400000 0.640000
v 0.640000 1.400000 0.640000
v 0.640000 1.400000 -0.640000
v -0.640000 1.400000 -0.640000
vn -1.0000 -0.0000 -0.0000
vn -0.0000 -0.0000 -1.0000
vn 1.0000 -0.0000 -0.0000
vn -0.0000 -0.0000 1.0000
vn -0.0000 -1.0000 -0.0000
vn -0.0000 1.0000 -0.0000
vt 0.250000 0.812500
vt 0.250000 0.835938
vt 0.000000 0.835938
vt 0.000000 0.812500
vt 0.242188 0.625000
vt 0.242188 0.648438
vt 0.218750 0.648438
vt 0.218750 0.625000
vt 0.414062 0.976562
vt 0.414062 1.000000
vt 0.164062 1.000000
vt 0.164062 0.976562
vt 0.273438 0.625000
vt 0.273438 0.648438
vt 0.250000 0.648438
vt 0.250000 0.625000
vt 0.000000 0.554688
vt 0.023438 0.554688
vt 0.023438 0.804688
vt 0.000000 0.804688
vt 0.054688 0.804688
vt 0.031250 0.804688
vt 0.031250 0.554688
vt 0.054688 0.554688
vt 0.414062 0.945312
vt 0.414062 0.968750
vt 0.164062 0.968750
vt 0.164062 0.945312
vt 0.304688 0.625000
vt 0.304688 0.648438
vt 0.281250 0.648438
vt 0.281250 0.625000
vt 0.414062 0.914062
vt 0.414062 0.937500
vt 0.164062 0.937500
vt 0.164062 0.914062
vt 0.242188 0.593750
vt 0.242188 0.617188
vt 0.218750 0.617188
vt 0.218750 0.593750
vt 0.062500 0.554688
vt 0.085938 0.554688
vt 0.085938 0.804688
vt 0.062500 0.804688
vt 0.117188 0.804688
vt 0.093750 0.804688
vt 0.093750 0.554688
vt 0.117188 0.554688
vt 0.367188 0.882812
vt 0.367188 0.906250
vt 0.164062 0.906250
vt 0.164062 0.882812
vt 0.367188 0.851562
vt 0.367188 0.875000
vt 0.164062 0.875000
vt 0.164062 0.851562
vt 0.125000 0.804688
vt 0.125000 0.781250
vt 0.328125 0.781250
vt 0.328125 0.804688
vt 0.328125 0.750000
vt 0.328125 0.773438
vt 0.125000 0.773438
vt 0.125000 0.750000
vt 0.328125 0.718750
vt 0.328125 0.742188
vt 0.125000 0.742188
vt 0.125000 0.718750
vt 0.460938 0.820312
vt 0.460938 0.843750
vt 0.257812 0.843750
vt 0.257812 0.820312
vt 0.328125 0.687500
vt 0.328125 0.710938
vt 0.125000 0.710938
vt 0.125000 0.687500
vt 0.125000 0.679688
vt 0.125000 0.656250
vt 0.328125 0.656250
vt 0.328125 0.679688
vt 0.539062 0.789062
vt 0.539062 0.812500
vt 0.335938 0.812500
vt 0.335938 0.789062
vt 0.273438 0.593750
vt 0.273438 0.617188
vt 0.250000 0.617188
vt 0.250000 0.593750
vt 0.539062 0.757812
vt 0.539062 0.781250
vt 0.335938 0.781250
vt 0.335938 0.757812
vt 0.304688 0.593750
vt 0.304688 0.617188
vt 0.281250 0.617188
vt 0.281250 0.593750
vt 0.335938 0.546875
vt 0.359375 0.546875
vt 0.359375 0.750000
vt 0.335938 0.750000
vt 0.148438 0.648438
vt 0.125000 0.648438
vt 0.125000 0.445312
vt 0.148438 0.445312
vt 0.570312 0.726562
vt 0.570312 0.750000
vt 0.367188 0.750000
vt 0.367188 0.726562
vt 0.242188 0.562500
vt 0.242188 0.585938
vt 0.218750 0.585938
vt 0.218750 0.562500
vt 0.570312 0.695312
vt 0.570312 0.718750
vt 0.367188 0.718750
vt 0.367188 0.695312
vt 0.273438 0.562500
vt 0.273438 0.585938
vt 0.250000 0.585938
vt 0.250000 0.562500
vt 0.156250 0.445312
vt 0.179688 0.445312
vt 0.179688 0.648438
vt 0.156250 0.648438
vt 0.210938 0.648438
vt 0.187500 0.648438
vt 0.187500 0.445312
vt 0.210938 0.445312
vt 0.523438 0.664062
vt 0.523438 0.687500
vt 0.367188 0.687500
vt 0.367188 0.664062
vt 0.523438 0.632812
vt 0.523438 0.656250
vt 0.367188 0.656250
vt 0.367188 0.632812
vt 0.375000 0.906250
vt 0.375000 0.882812
vt 0.531250 0.882812
vt 0.531250 0.906250
vt 0.531250 0.851562
vt 0.531250 0.875000
vt 0.375000 0.875000
vt 0.375000 0.851562
vt 0.523438 0.601562
vt 0.523438 0.625000
vt 0.367188 0.625000
vt 0.367188 0.601562
vt 0.523438 0.570312
vt 0.523438 0.593750
vt 0.367188 0.593750
vt 0.367188 0.570312
vt 0.578125 0.976562
vt 0.578125 1.000000
vt 0.421875 1.000000
vt 0.421875 0.976562
vt 0.421875 0.968750
vt 0.421875 0.945312
vt 0.578125 0.945312
vt 0.578125 0.968750
vt 0.000000 0.843750
vt 0.156250 0.843750
vt 0.156250 1.000000
vt 0.000000 1.000000
s 0
usemtl Material
f 317/317/11 318/318/11 319/319/11
f 317/317/11 319/319/11 320/320/11
f 321/321/12 322/322/12 323/323/12
f 321/321/12 323/323/12 324/324/12
f 325/325/13 326/326/13 327/327/13
f 325/325/13 327/327/13 328/328/13
f 329/329/14 330/330/14 331/331/14
f 329/329/14 331/331/14 332/332/14
f 333/333/15 334/334/15 335/335/15
f 333/333/15 335/335/15 336/336/15
f 337/337/16 338/338/16 339/339/16
f 337/337/16 339/339/16 340/340/16
f 341/341/11 342/342/11 343/343/11
f 341/341/11 343/343/11 344/344/11
f 345/345/12 346/346/12 347/347/12
f 345/345/12 347/347/12 348/348/12
f 349/349/13 350/350/13 351/351/13
f 349/349/13 351/351/13 352/352/13
f 353/353/14 354/354/14 355/355/14
f 353/353/14 355/355/14 356/356/14
f 357/357/15 358/358/15 359/359/15
f 357/357/15 359/359/15 360/360/15
f 361/361/16 362/362/16 363/363/16
f 361/361/16 363/363/16 364/364/16
f 365/365/14 366/366/14 367/367/14
f 365/365/14 367/367/14 368/368/14
f 369/369/12 370/370/12 371/371/12
f 369/369/12 371/371/12 372/372/12
f 373/373/15 374/374/15 375/375/15
f 373/373/15 375/375/15 376/376/15
f 377/377/14 378/378/14 379/379/14
f 377/377/14 379/379/14 380/380/14
f 381/381/16 382/382/16 383/383/16
f 381/381/16 383/383/16 384/384/16
f 385/385/12 386/386/12 387/387/12
f 385/385/12 387/387/12 388/388/12
f 389/389/16 390/390/16 391/391/16
f 389/389/16 391/391/16 392/392/16
f 393/393/15 394/394/15 395/395/15
f 393/393/15 395/395/15 396/396/15
f 397/397/11 398/398/11 399/399/11
f 397/397/11 399/399/11 400/400/11
f 401/401/12 402/402/12 403/403/12
f 401/401/12 403/403/12 404/404/12
f 405/405/13 406/406/13 407/407/13
f 405/405/13 407/407/13 408/408/13
f 409/409/14 410/410/14 411/411/14
f 409/409/14 411/411/14 412/412/14
f 413/413/15 414/414/15 415/415/15
f 413/413/15 415/415/15 416/416/15
f 417/417/16 418/418/16 419/419/16
f 417/417/16 419/419/16 420/420/16
f 421/421/11 422/422/11 423/423/11
f 421/421/11 423/423/11 424/424/11
f 425/425/12 426/426/12 427/427/12
f 425/425/12 427/427/12 428/428/12
f 429/429/13 430/430/13 431/431/13
f 429/429/13 431/431/13 432/432/13
f 433/433/14 434/434/14 435/435/14
f 433/433/14 435/435/14 436/436/14
f 437/437/15 438/438/15 439/439/15
f 437/437/15 439/439/15 440/440/15
f 441/441/16 442/442/16 443/443/16
f 441/441/16 443/443/16 444/444/16
f 445/445/14 446/446/14 447/447/14
f 445/445/14 447/447/14 448/448/14
f 449/449/12 450/450/12 451/451/12
f 449/449/12 451/451/12 452/452/12
f 453/453/15 454/454/15 455/455/15
f 453/453/15 455/455/15 456/456/15
f 457/457/14 458/458/14 459/459/14
f 457/457/14 459/459/14 460/460/14
f 461/461/16 462/462/16 463/463/16
f 461/461/16 463/463/16 464/464/16
f 465/465/12 466/466/12 467/467/12
f 465/465/12 467/467/12 468/468/12
f 469/469/16 470/470/16 471/471/16
f 469/469/16 471/471/16 472/472/16
f 473/473/15 474/474/15 475/475/15
f 473/473/15 475/475/15 476/476/15
f 477/477/16 478/478/16 479/479/16
f 477/477/16 479/479/16 480/480/16
o S
v 1.000000 0.750000 0.900000
v 1.000000 0.750000 0.900000
v 1.000000 0.750000 0.900000
v 0.800000 0.750000 0.900000
v 0.800000 0.750000 0.900000
v 0.800000 0.750000 0.900000
v 0.800000 1.000000 0.900000
v 0.800000 1.000000 0.900000
v 1.000000 1.000000 0.900000
v 1.000000 1.000000 0.900000
v 0.800000 -0.750000 0.900000
v 0.800000 -0.750000 0.900000
v 0.800000 -0.750000 0.900000
v 0.800000 -1.000000 0.900000
v 0.800000 -1.000000 0.900000
v 0.800000 -1.000000 1.000000
v 0.800000 -1.000000 1.000000
v 0.800000 -0.750000 1.000000
v 0.800000 -0.750000 1.000000
v 0.800000 -0.750000 1.000000
v 0.800000 -0.687500 0.950110
v 0.800000 -0.687500 0.950110
v 0.800000 -0.687500 0.950110
v 0.800000 0.687500 0.950110
v 0.800000 0.687500 0.950110
v 0.800000 0.687500 0.950110
v 1.000000 0.687500 0.950110
v 1.000000 0.687500 0.950110
v 1.000000 0.687500 0.950110
v 1.000000 -0.687500 0.950110
v 1.000000 -0.687500 0.950110
v 1.000000 -0.687500 0.950110
v 1.000000 -1.000000 0.900000
v 1.000000 -1.000000 0.900000
v 1.000000 -0.750000 0.900000
v 1.000000 -0.750000 0.900000
v 1.000000 -0.750000 0.900000
v 0.800000 -0.687500 1.050110
v 0.800000 -0.687500 1.050110
v 0.800000 -0.687500 1.050110
v 0.800000 0.750000 1.000000
v 0.800000 0.750000 1.000000
v 0.800000 0.750000 1.000000
v 0.800000 1.000000 1.000000
v 0.800000 1.000000 1.000000
v 0.800000 0.687500 1.050110
v 0.800000 0.687500 1.050110
v 0.800000 0.687500 1.050110
v 1.000000 0.750000 1.000000
v 1.000000 0.750000 1.000000
v 1.000000 0.750000 1.000000
v 1.000000 1.000000 1.000000
v 1.000000 1.000000 1.000000
v 1.000000 0.687500 1.050110
v 1.000000 0.687500 1.050110
v 1.000000 0.687500 1.050110
v 1.000000 -0.687500 1.050110
v 1.000000 -0.687500 1.050110
v 1.000000 -0.687500 1.050110
v 1.000000 -1.000000 1.000000
v 1.000000 -1.000000 1.000000
v 1.000000 -0.750000 1.000000
v 1.000000 -0.750000 1.000000
v 1.000000 -0.750000 1.000000
v -0.800000 0.750000 0.900000
v -0.800000 0.750000 0.900000
v -0.800000 0.750000 0.900000
v -1.000000 0.750000 0.900000
v -1.000000 0.750000 0.900000
v -1.000000 0.750000 0.900000
v -1.000000 1.000000 0.900000
v -1.000000 1.000000 0.900000
v -0.800000 1.000000 0.900000
v -0.800000 1.000000 0.900000
v -1.000000 -0.687500 0.950110
v -1.000000 -0.687500 0.950110
v -1.000000 -0.687500 0.950110
v -1.000000 0.687500 0.950110
v -1.000000 0.687500 0.950110
v -1.000000 0.687500 0.950110
v -0.800000 0.687500 0.950110
v -0.800000 0.687500 0.950110
v -0.800000 0.687500 0.950110
v -0.800000 -0.687500 0.950110
v -0.800000 -0.687500 0.950110
v -0.800000 -0.687500 0.950110
v -0.800000 -1.000000 0.900000
v -0.800000 -1.000000 0.900000
v -1.000000 -1.000000 0.900000
v -1.000000 -1.000000 0.900000
v -1.000000 -0.750000 0.900000
v -1.000000 -0.750000 0.900000
v -1.000000 -0.750000 0.900000
v -0.800000 -0.750000 0.900000
v -0.800000 -0.750000 0.900000
v -0.800000 -0.750000 0.900000
v -0.800000 0.750000 1.000000
v -0.800000 0.750000 1.000000
v -0.800000 0.750000 1.000000
v -1.000000 0.750000 1.000000
v -1.000000 0.750000 1.000000
v -1.000000 0.750000 1.000000
v -1.000000 1.000000 1.000000
v -1.000000 1.000000 1.000000
v -0.800000 1.000000 1.000000
v -0.800000 1.000000 1.000000
v -1.000000 -0.687500 1.050110
v -1.000000 -0.687500 1.050110
v -1.000000 -0.687500 1.050110
v -1.000000 0.687500 1.050110
v -1.000000 0.687500 1.050110
v -1.000000 0.687500 1.050110
v -0.800000 0.687500 1.050110
v -0.800000 0.687500 1.050110
v -0.800000 0.687500 1.050110
v -0.800000 -0.687500 1.050110
v -0.800000 -0.687500 1.050110
v -0.800000 -0.687500 1.050110
v -0.800000 -1.000000 1.000000
v -0.800000 -1.000000 1.000000
v -1.000000 -1.000000 1.000000
v -1.000000 -1.000000 1.000000
v -1.000000 -0.750000 1.000000
v -1.000000 -0.750000 1.000000
v -1.000000 -0.750000 1.000000
v -0.800000 -0.750000 1.000000
v -0.800000 -0.750000 1.000000
v -0.800000 -0.750000 1.000000
v 0.800000 0.750000 1.000000
v 0.800000 0.750000 1.000000
v -0.800000 0.750000 1.000000
v -0.800000 0.750000 1.000000
v -0.800000 1.000000 1.000000
v 0.800000 1.000000 1.000000
v 0.800000 -0.500000 1.050110
v -0.800000 -0.500000 1.050110
v -0.800000 -0.000000 1.050110
v 0.800000 -0.000000 1.050110
v 0.800000 -0.625000 1.050110
v -0.800000 -0.625000 1.050110
v 0.800000 -1.000000 1.000000
v -0.800000 -1.000000 1.000000
v -0.800000 -0.750000 1.000000
v -0.800000 -0.750000 1.000000
v 0.800000 -0.750000 1.000000
v 0.800000 -0.750000 1.000000
v -0.800000 0.500000 1.050110
v 0.800000 0.500000 1.050110
v 0.800000 0.687500 1.050110
v 0.800000 0.687500 1.050110
v -0.800000 0.687500 1.050110
v -0.800000 0.687500 1.050110
v -0.800000 0.625000 1.050110
v 0.800000 0.625000 1.050110
v 0.800000 -0.687500 1.050110
v 0.800000 -0.687500 1.050110
v -0.800000 -0.687500 1.050110
v -0.800000 -0.687500 1.050110
vn -0.0000 -0.0000 -1.0000
vn -1.0000 -0.0000 -0.0000
vn -0.0000 -0.6255 -0.7802
vn -0.0000 0.6255 -0.7802
vn 1.0000 -0.0000 -0.0000
vt 0.484375 0.437500
vt 0.531250 0.437500
vt 0.531250 0.500000
vt 0.484375 0.500000
vt 0.426548 0.484375
vt 0.426548 0.421875
vt 0.451548 0.421875
vt 0.451548 0.484375
vt 0.234375 0.218750
vt 0.234375 0.562500
vt 0.187500 0.562500
vt 0.187500 0.218750
vt 0.546875 0.859375
vt 0.593750 0.859375
vt 0.593750 0.921875
vt 0.546875 0.921875
vt 0.464077 0.500000
vt 0.439077 0.500000
vt 0.593750 0.406250
vt 0.640625 0.406250
vt 0.640625 0.421875
vt 0.593750 0.421875
vt 0.426548 0.921875
vt 0.426548 0.859375
vt 0.451548 0.859375
vt 0.451548 0.921875
vt 0.464077 0.843750
vt 0.439077 0.843750
vt 0.609375 0.906250
vt 0.656250 0.906250
vt 0.656250 0.921875
vt 0.609375 0.921875
vt 0.546875 0.781250
vt 0.593750 0.781250
vt 0.593750 0.843750
vt 0.546875 0.843750
vt 0.296875 0.218750
vt 0.296875 0.562500
vt 0.250000 0.562500
vt 0.250000 0.218750
vt 0.546875 0.703125
vt 0.593750 0.703125
vt 0.593750 0.765625
vt 0.546875 0.765625
vt 0.375000 0.546875
vt 0.421875 0.546875
vt 0.421875 0.562500
vt 0.375000 0.562500
vt 0.375000 0.515625
vt 0.421875 0.515625
vt 0.421875 0.531250
vt 0.375000 0.531250
vt 0.042202 0.500000
vt 0.042202 0.562500
vt 0.017202 0.562500
vt 0.017202 0.500000
vt 0.029673 0.484375
vt 0.004673 0.484375
vt 0.029673 0.140625
vt 0.004673 0.140625
vt 0.042202 0.125000
vt 0.017202 0.125000
vt 0.042202 0.062500
vt 0.017202 0.062500
vt 0.546875 0.625000
vt 0.593750 0.625000
vt 0.593750 0.687500
vt 0.546875 0.687500
vt 0.359375 0.218750
vt 0.359375 0.562500
vt 0.312500 0.562500
vt 0.312500 0.218750
vt 0.546875 0.437500
vt 0.593750 0.437500
vt 0.593750 0.500000
vt 0.546875 0.500000
vt 0.609375 0.875000
vt 0.656250 0.875000
vt 0.656250 0.890625
vt 0.609375 0.890625
vt 0.609375 0.843750
vt 0.656250 0.843750
vt 0.656250 0.859375
vt 0.609375 0.859375
vt 0.468750 0.359375
vt 0.515625 0.359375
vt 0.515625 0.421875
vt 0.468750 0.421875
vt 0.531250 0.578125
vt 0.531250 0.921875
vt 0.484375 0.921875
vt 0.484375 0.578125
vt 0.531250 0.359375
vt 0.578125 0.359375
vt 0.578125 0.421875
vt 0.531250 0.421875
vt 0.546875 0.593750
vt 0.593750 0.593750
vt 0.593750 0.609375
vt 0.546875 0.609375
vt 0.375000 0.390625
vt 0.421875 0.390625
vt 0.421875 0.406250
vt 0.375000 0.406250
vt 0.104702 0.062500
vt 0.104702 0.125000
vt 0.079702 0.125000
vt 0.079702 0.062500
vt 0.092173 0.140625
vt 0.067173 0.140625
vt 0.092173 0.484375
vt 0.067173 0.484375
vt 0.104702 0.500000
vt 0.079702 0.500000
vt 0.104702 0.562500
vt 0.079702 0.562500
vt 0.142202 0.484375
vt 0.142202 0.140625
vt 0.167202 0.140625
vt 0.167202 0.484375
vt 0.129673 0.125000
vt 0.154673 0.125000
vt 0.129673 0.062500
vt 0.154673 0.062500
vt 0.129673 0.562500
vt 0.129673 0.500000
vt 0.154673 0.500000
vt 0.154673 0.562500
vt 0.000000 0.578125
vt 0.406250 0.578125
vt 0.406250 0.640625
vt 0.000000 0.640625
vt 0.003125 0.703125
vt 0.403125 0.703125
vt 0.403125 0.828125
vt 0.003125 0.828125
vt 0.003125 0.671875
vt 0.403125 0.671875
vt 0.421875 0.937500
vt 0.828125 0.937500
vt 0.828125 1.000000
vt 0.421875 1.000000
vt 0.403125 0.953125
vt 0.003125 0.953125
vt 0.484375 0.546875
vt 0.890625 0.546875
vt 0.890625 0.562500
vt 0.484375 0.562500
vt 0.403125 0.984375
vt 0.003125 0.984375
vt 0.403125 1.000000
vt 0.003125 1.000000
vt 0.003125 0.656250
vt 0.403125 0.656250
vt 0.484375 0.515625
vt 0.890625 0.515625
vt 0.890625 0.531250
vt 0.484375 0.531250
s 0
usemtl m_e5a6c072-72c3-8b40-22f7-cc84d33f45f0
f 482/481/17 485/482/17 487/483/17
f 482/481/17 487/483/17 489/484/17
f 493/485/18 495/486/18 497/487/18
f 493/485/18 497/487/18 500/488/18
f 502/489/17 505/490/17 508/491/17
f 502/489/17 508/491/17 511/492/17
f 513/493/17 494/494/17 492/495/17
f 513/493/17 492/495/17 516/496/17
f 520/497/18 503/498/18 493/485/18
f 520/497/18 493/485/18 500/488/18
f 507/499/19 504/500/19 484/501/19
f 507/499/19 484/501/19 481/502/19
f 488/503/18 486/504/18 523/505/18
f 488/503/18 523/505/18 525/506/18
f 520/497/18 528/507/18 506/508/18
f 520/497/18 506/508/18 503/498/18
f 515/509/20 491/510/20 501/511/20
f 515/509/20 501/511/20 510/512/20
f 530/513/17 522/514/17 524/515/17
f 530/513/17 524/515/17 532/516/17
f 519/517/17 527/518/17 535/519/17
f 519/517/17 535/519/17 538/520/17
f 540/521/17 496/522/17 499/523/17
f 540/521/17 499/523/17 543/524/17
f 534/525/19 526/526/19 521/527/19
f 534/525/19 521/527/19 529/528/19
f 523/505/18 486/504/18 506/508/18
f 523/505/18 506/508/18 528/507/18
f 542/529/20 498/530/20 518/531/20
f 542/529/20 518/531/20 537/532/20
f 483/533/21 490/534/21 533/535/21
f 483/533/21 533/535/21 531/536/21
f 509/537/21 483/533/21 531/536/21
f 509/537/21 531/536/21 536/538/21
f 512/539/21 509/537/21 536/538/21
f 512/539/21 536/538/21 539/540/21
f 517/541/21 512/539/21 539/540/21
f 517/541/21 539/540/21 544/542/21
f 514/543/21 517/541/21 544/542/21
f 514/543/21 544/542/21 541/544/21
f 546/545/17 549/546/17 551/547/17
f 546/545/17 551/547/17 553/548/17
f 556/549/17 559/550/17 562/551/17
f 556/549/17 562/551/17 565/552/17
f 567/553/17 569/554/17 572/555/17
f 567/553/17 572/555/17 575/556/17
f 561/557/19 558/558/19 548/559/19
f 561/557/19 548/559/19 545/560/19
f 574/561/20 571/562/20 555/563/20
f 574/561/20 555/563/20 564/564/20
f 578/565/17 581/566/17 583/567/17
f 578/565/17 583/567/17 585/568/17
f 588/569/17 591/570/17 594/571/17
f 588/569/17 594/571/17 597/572/17
f 599/573/17 601/574/17 604/575/17
f 599/573/17 604/575/17 607/576/17
f 593/577/19 590/578/19 580/579/19
f 593/577/19 580/579/19 577/580/19
f 606/581/20 603/582/20 587/583/20
f 606/581/20 587/583/20 596/584/20
f 568/585/21 576/586/21 608/587/21
f 568/585/21 608/587/21 600/588/21
f 576/586/21 566/589/21 598/590/21
f 576/586/21 598/590/21 608/587/21
f 566/589/21 563/591/21 595/592/21
f 566/589/21 595/592/21 598/590/21
f 563/591/21 547/593/21 579/594/21
f 563/591/21 579/594/21 595/592/21
f 547/593/21 554/595/21 586/596/21
f 547/593/21 586/596/21 579/594/21
f 560/597/18 557/598/18 589/599/18
f 560/597/18 589/599/18 592/600/18
f 557/598/18 573/601/18 605/602/18
f 557/598/18 605/602/18 589/599/18
f 573/601/18 570/603/18 602/604/18
f 573/601/18 602/604/18 605/602/18
f 552/605/18 550/606/18 582/607/18
f 552/605/18 582/607/18 584/608/18
f 550/606/18 560/597/18 592/600/18
f 550/606/18 592/600/18 582/607/18
f 610/609/17 612/610/17 613/611/17
f 610/609/17 613/611/17 614/612/17
f 615/613/17 616/614/17 617/615/17
f 615/613/17 617/615/17 618/616/17
f 619/617/17 620/618/17 616/614/17
f 619/617/17 616/614/17 615/613/17
f 621/619/17 622/620/17 624/621/17
f 621/619/17 624/621/17 626/622/17
f 618/616/17 617/615/17 627/623/17
f 618/616/17 627/623/17 628/624/17
f 629/625/19 631/626/19 611/627/19
f 629/625/19 611/627/19 609/628/19
f 628/624/17 627/623/17 633/629/17
f 628/624/17 633/629/17 634/630/17
f 634/630/17 633/629/17 632/631/17
f 634/630/17 632/631/17 630/632/17
f 636/633/17 638/634/17 620/618/17
f 636/633/17 620/618/17 619/617/17
f 625/635/20 623/636/20 637/637/20
f 625/635/20 637/637/20 635/638/20
o W
v -0.900000 0.750000 1.000000
v -0.900000 0.750000 1.000000
v -0.900000 0.750000 1.000000
v -0.900000 0.750000 0.800000
v -0.900000 0.750000 0.800000
v -0.900000 0.750000 0.800000
v -0.900000 1.000000 0.800000
v -0.900000 1.000000 0.800000
v -0.900000 1.000000 1.000000
v -0.900000 1.000000 1.000000
v -0.900000 -0.750000 0.800000
v -0.900000 -0.750000 0.800000
v -0.900000 -0.750000 0.800000
v -0.900000 -1.000000 0.800000
v -0.900000 -1.000000 0.800000
v -1.000000 -1.000000 0.800000
v -1.000000 -1.000000 0.800000
v -1.000000 -0.750000 0.800000
v -1.000000 -0.750000 0.800000
v -1.000000 -0.750000 0.800000
v -0.950110 -0.687500 0.800000
v -0.950110 -0.687500 0.800000
v -0.950110 -0.687500 0.800000
v -0.950110 0.687500 0.800000
v -0.950110 0.687500 0.800000
v -0.950110 0.687500 0.800000
v -0.950110 0.687500 1.000000
v -0.950110 0.687500 1.000000
v -0.950110 0.687500 1.000000
v -0.950110 -0.687500 1.000000
v -0.950110 -0.687500 1.000000
v -0.950110 -0.687500 1.000000
v -0.900000 -1.000000 1.000000
v -0.900000 -1.000000 1.000000
v -0.900000 -0.750000 1.000000
v -0.900000 -0.750000 1.000000
v -0.900000 -0.750000 1.000000
v -1.050110 -0.687500 0.800000
v -1.050110 -0.687500 0.800000
v -1.050110 -0.687500 0.800000
v -1.000000 0.750000 0.800000
v -1.000000 0.750000 0.800000
v -1.000000 0.750000 0.800000
v -1.000000 1.000000 0.800000
v -1.000000 1.000000 0.800000
v -1.050110 0.687500 0.800000
v -1.050110 0.687500 0.800000
v -1.050110 0.687500 0.800000
v -1.000000 0.750000 1.000000
v -1.000000 0.750000 1.000000
v -1.000000 0.750000 1.000000
v -1.000000 1.000000 1.000000
v -1.000000 1.000000 1.000000
v -1.050110 0.687500 1.000000
v -1.050110 0.687500 1.000000
v -1.050110 0.687500 1.000000
v -1.050110 -0.687500 1.000000
v -1.050110 -0.687500 1.000000
v -1.050110 -0.687500 1.000000
v -1.000000 -1.000000 1.000000
v -1.000000 -1.000000 1.000000
v -1.000000 -0.750000 1.000000
v -1.000000 -0.750000 1.000000
v -1.000000 -0.750000 1.000000
v -0.900000 0.750000 -0.800000
v -0.900000 0.750000 -0.800000
v -0.900000 0.750000 -0.800000
v -0.900000 0.750000 -1.000000
v -0.900000 0.750000 -1.000000
v -0.900000 0.750000 -1.000000
v -0.900000 1.000000 -1.000000
v -0.900000 1.000000 -1.000000
v -0.900000 1.000000 -0.800000
v -0.900000 1.000000 -0.800000
v -0.950110 -0.687500 -1.000000
v -0.950110 -0.687500 -1.000000
v -0.950110 -0.687500 -1.000000
v -0.950110 0.687500 -1.000000
v -0.950110 0.687500 -1.000000
v -0.950110 0.687500 -1.000000
v -0.950110 0.687500 -0.800000
v -0.950110 0.687500 -0.800000
v -0.950110 0.687500 -0.800000
v -0.950110 -0.687500 -0.800000
v -0.950110 -0.687500 -0.800000
v -0.950110 -0.687500 -0.800000
v -0.900000 -1.000000 -0.800000
v -0.900000 -1.000000 -0.800000
v -0.900000 -1.000000 -1.000000
v -0.900000 -1.000000 -1.000000
v -0.900000 -0.750000 -1.000000
v -0.900000 -0.750000 -1.000000
v -0.900000 -0.750000 -1.000000
v -0.900000 -0.750000 -0.800000
v -0.900000 -0.750000 -0.800000
v -0.900000 -0.750000 -0.800000
v -1.000000 0.750000 -0.800000
v -1.000000 0.750000 -0.800000
v -1.000000 0.750000 -0.800000
v -1.000000 0.750000 -1.000000
v -1.000000 0.750000 -1.000000
v -1.000000 0.750000 -1.000000
v -1.000000 1.000000 -1.000000
v -1.000000 1.000000 -1.000000
v -1.000000 1.000000 -0.800000
v -1.000000 1.000000 -0.800000
v -1.050110 -0.687500 -1.000000
v -1.050110 -0.687500 -1.000000
v -1.050110 -0.687500 -1.000000
v -1.050110 0.687500 -1.000000
v -1.050110 0.687500 -1.000000
v -1.050110 0.687500 -1.000000
v -1.050110 0.687500 -0.800000
v -1.050110 0.687500 -0.800000
v -1.050110 0.687500 -0.800000
v -1.050110 -0.687500 -0.800000
v -1.050110 -0.687500 -0.800000
v -1.050110 -0.687500 -0.800000
v -1.000000 -1.000000 -0.800000
v -1.000000 -1.000000 -0.800000
v -1.000000 -1.000000 -1.000000
v -1.000000 -1.000000 -1.000000
v -1.000000 -0.750000 -1.000000
v -1.000000 -0.750000 -1.000000
v -1.000000 -0.750000 -1.000000
v -1.000000 -0.750000 -0.800000
v -1.000000 -0.750000 -0.800000
v -1.000000 -0.750000 -0.800000
v -1.000000 0.750000 0.800000
v -1.000000 0.750000 0.800000
v -1.000000 0.750000 -0.800000
v -1.000000 0.750000 -0.800000
v -1.000000 1.000000 -0.800000
v -1.000000 1.000000 0.800000
v -1.050110 -0.500000 0.800000
v -1.050110 -0.500000 -0.800000
v -1.050110 0.000000 -0.800000
v -1.050110 -0.000000 0.800000
v -1.050110 -0.625000 0.800000
v -1.050110 -0.625000 -0.800000
v -1.000000 -1.000000 0.800000
v -1.000000 -1.000000 -0.800000
v -1.000000 -0.750000 -0.800000
v -1.000000 -0.750000 -0.800000
v -1.000000 -0.750000 0.800000
v -1.000000 -0.750000 0.800000
v -1.050110 0.500000 -0.800000
v -1.050110 0.500000 0.800000
v -1.050110 0.687500 0.800000
v -1.050110 0.687500 0.800000
v -1.050110 0.687500 -0.800000
v -1.050110 0.687500 -0.800000
v -1.050110 0.625000 -0.800000
v -1.050110 0.625000 0.800000
v -1.050110 -0.687500 0.800000
v -1.050110 -0.687500 0.800000
v -1.050110 -0.687500 -0.800000
v -1.050110 -0.687500 -0.800000
vn 1.0000 -0.0000 -0.0000
vn -0.0000 -0.0000 -1.0000
vn 0.7802 -0.6255 -0.0000
vn 0.7802 0.6255 -0.0000
vn -0.0000 -0.0000 1.0000
vt 0.484375 0.437500
vt 0.531250 0.437500
vt 0.531250 0.500000
vt 0.484375 0.500000
vt 0.426548 0.484375
vt 0.426548 0.421875
vt 0.451548 0.421875
vt 0.451548 0.484375
vt 0.234375 0.218750
vt 0.234375 0.562500
vt 0.187500 0.562500
vt 0.187500 0.218750
vt 0.546875 0.859375
vt 0.593750 0.859375
vt 0.593750 0.921875
vt 0.546875 0.921875
vt 0.464077 0.500000
vt 0.439077 0.500000
vt 0.593750 0.406250
vt 0.640625 0.406250
vt 0.640625 0.421875
vt 0.593750 0.421875
vt 0.426548 0.921875
vt 0.426548 0.859375
vt 0.451548 0.859375
vt 0.451548 0.921875
vt 0.464077 0.843750
vt 0.439077 0.843750
vt 0.609375 0.906250
vt 0.656250 0.906250
vt 0.656250 0.921875
vt 0.609375 0.921875
vt 0.546875 0.781250
vt 0.593750 0.781250
vt 0.593750 0.843750
vt 0.546875 0.843750
vt 0.296875 0.218750
vt 0.296875 0.562500
vt 0.250000 0.562500
vt 0.250000 0.218750
vt 0.546875 0.703125
vt 0.593750 0.703125
vt 0.593750 0.765625
vt 0.546875 0.765625
vt 0.375000 0.546875
vt 0.421875 0.546875
vt 0.421875 0.562500
vt 0.375000 0.562500
vt 0.375000 0.515625
vt 0.421875 0.515625
vt 0.421875 0.531250
vt 0.375000 0.531250
vt 0.042202 0.500000
vt 0.042202 0.562500
vt 0.017202 0.562500
vt 0.017202 0.500000
vt 0.029673 0.484375
vt 0.004673 0.484375
vt 0.029673 0.140625
vt 0.004673 0.140625
vt 0.042202 0.125000
vt 0.017202 0.125000
vt 0.042202 0.062500
vt 0.017202 0.062500
vt 0.546875 0.625000
vt 0.593750 0.625000
vt 0.593750 0.687500
vt 0.546875 0.687500
vt 0.359375 0.218750
vt 0.359375 0.562500
vt 0.312500 0.562500
vt 0.312500 0.218750
vt 0.546875 0.437500
vt 0.593750 0.437500
vt 0.593750 0.500000
vt 0.546875 0.500000
vt 0.609375 0.875000
vt 0.656250 0.875000
vt 0.656250 0.890625
vt 0.609375 0.890625
vt 0.609375 0.843750
vt 0.656250 0.843750
vt 0.656250 0.859375
vt 0.609375 0.859375
vt 0.468750 0.359375
vt 0.515625 0.359375
vt 0.515625 0.421875
vt 0.468750 0.421875
vt 0.531250 0.578125
vt 0.531250 0.921875
vt 0.484375 0.921875
vt 0.484375 0.578125
vt 0.531250 0.359375
vt 0.578125 0.359375
vt 0.578125 0.421875
vt 0.531250 0.421875
vt 0.546875 0.593750
vt 0.593750 0.593750
vt 0.593750 0.609375
vt 0.546875 0.609375
vt 0.375000 0.390625
vt 0.421875 0.390625
vt 0.421875 0.406250
vt 0.375000 0.406250
vt 0.104702 0.062500
vt 0.104702 0.125000
vt 0.079702 0.125000
vt 0.079702 0.062500
vt 0.092173 0.140625
vt 0.067173 0.140625
vt 0.092173 0.484375
vt 0.067173 0.484375
vt 0.104702 0.500000
vt 0.079702 0.500000
vt 0.104702 0.562500
vt 0.079702 0.562500
vt 0.142202 0.484375
vt 0.142202 0.140625
vt 0.167202 0.140625
vt 0.167202 0.484375
vt 0.129673 0.125000
vt 0.154673 0.125000
vt 0.129673 0.062500
vt 0.154673 0.062500
vt 0.129673 0.562500
vt 0.129673 0.500000
vt 0.154673 0.500000
vt 0.154673 0.562500
vt 0.000000 0.578125
vt 0.406250 0.578125
vt 0.406250 0.640625
vt 0.000000 0.640625
vt 0.003125 0.703125
vt 0.403125 0.703125
vt 0.403125 0.828125
vt 0.003125 0.828125
vt 0.003125 0.671875
vt 0.403125 0.671875
vt 0.421875 0.937500
vt 0.828125 0.937500
vt 0.828125 1.000000
vt 0.421875 1.000000
vt 0.403125 0.953125
vt 0.003125 0.953125
vt 0.484375 0.546875
vt 0.890625 0.546875
vt 0.890625 0.562500
vt 0.484375 0.562500
vt 0.403125 0.984375
vt 0.003125 0.984375
vt 0.403125 1.000000
vt 0.003125 1.000000
vt 0.003125 0.656250
vt 0.403125 0.656250
vt 0.484375 0.515625
vt 0.890625 0.515625
vt 0.890625 0.531250
vt 0.484375 0.531250
s 0
usemtl m_e5a6c072-72c3-8b40-22f7-cc84d33f45f0
f 641/639/22 644/640/22 646/641/22
f 641/639/22 646/641/22 648/642/22
f 649/643/23 652/644/23 654/645/23
f 649/643/23 654/645/23 656/646/23
f 661/647/22 664/648/22 667/649/22
f 661/647/22 667/649/22 670/650/22
f 672/651/22 653/652/22 651/653/22
f 672/651/22 651/653/22 675/654/22
f 676/655/23 659/656/23 649/643/23
f 676/655/23 649/643/23 656/646/23
f 666/657/24 663/658/24 643/659/24
f 666/657/24 643/659/24 640/660/24
f 645/661/23 642/662/23 679/663/23
f 645/661/23 679/663/23 682/664/23
f 676/655/23 684/665/23 662/666/23
f 676/655/23 662/666/23 659/656/23
f 674/667/25 650/668/25 660/669/25
f 674/667/25 660/669/25 669/670/25
f 689/671/22 681/672/22 683/673/22
f 689/671/22 683/673/22 691/674/22
f 678/675/22 686/676/22 694/677/22
f 678/675/22 694/677/22 697/678/22
f 699/679/22 655/680/22 658/681/22
f 699/679/22 658/681/22 702/682/22
f 693/683/24 685/684/24 680/685/24
f 693/683/24 680/685/24 688/686/24
f 679/663/23 642/662/23 662/666/23
f 679/663/23 662/666/23 684/665/23
f 701/687/25 657/688/25 677/689/25
f 701/687/25 677/689/25 696/690/25
f 639/691/26 647/692/26 690/693/26
f 639/691/26 690/693/26 687/694/26
f 665/695/26 639/691/26 687/694/26
f 665/695/26 687/694/26 692/696/26
f 668/697/26 665/695/26 692/696/26
f 668/697/26 692/696/26 695/698/26
f 673/699/26 668/697/26 695/698/26
f 673/699/26 695/698/26 700/700/26
f 671/701/26 673/699/26 700/700/26
f 671/701/26 700/700/26 698/702/26
f 705/703/22 708/704/22 710/705/22
f 705/703/22 710/705/22 712/706/22
f 715/707/22 718/708/22 721/709/22
f 715/707/22 721/709/22 724/710/22
f 726/711/22 728/712/22 731/713/22
f 726/711/22 731/713/22 734/714/22
f 720/715/24 717/716/24 707/717/24
f 720/715/24 707/717/24 704/718/24
f 733/719/25 730/720/25 714/721/25
f 733/719/25 714/721/25 723/722/25
f 737/723/22 740/724/22 742/725/22
f 737/723/22 742/725/22 744/726/22
f 747/727/22 750/728/22 753/729/22
f 747/727/22 753/729/22 756/730/22
f 758/731/22 760/732/22 763/733/22
f 758/731/22 763/733/22 766/734/22
f 752/735/24 749/736/24 739/737/24
f 752/735/24 739/737/24 736/738/24
f 765/739/25 762/740/25 746/741/25
f 765/739/25 746/741/25 755/742/25
f 725/743/26 732/744/26 764/745/26
f 725/743/26 764/745/26 757/746/26
f 732/744/26 722/747/26 754/748/26
f 732/744/26 754/748/26 764/745/26
f 722/747/26 719/749/26 751/750/26
f 722/747/26 751/750/26 754/748/26
f 719/749/26 703/751/26 735/752/26
f 719/749/26 735/752/26 751/750/26
f 703/751/26 711/753/26 743/754/26
f 703/751/26 743/754/26 735/752/26
f 716/755/23 713/756/23 745/757/23
f 716/755/23 745/757/23 748/758/23
f 713/756/23 729/759/23 761/760/23
f 713/756/23 761/760/23 745/757/23
f 729/759/23 727/761/23 759/762/23
f 729/759/23 759/762/23 761/760/23
f 709/763/23 706/764/23 738/765/23
f 709/763/23 738/765/23 741/766/23
f 706/764/23 716/755/23 748/758/23
f 706/764/23 748/758/23 738/765/23
f 768/767/22 770/768/22 771/769/22
f 768/767/22 771/769/22 772/770/22
f 773/771/22 774/772/22 775/773/22
f 773/771/22 775/773/22 776/774/22
f 777/775/22 778/776/22 774/772/22
f 777/775/22 774/772/22 773/771/22
f 779/777/22 780/778/22 782/779/22
f 779/777/22 782/779/22 784/780/22
f 776/774/22 775/773/22 785/781/22
f 776/774/22 785/781/22 786/782/22
f 787/783/24 789/784/24 769/785/24
f 787/783/24 769/785/24 767/786/24
f 786/782/22 785/781/22 791/787/22
f 786/782/22 791/787/22 792/788/22
f 792/788/22 791/787/22 790/789/22
f 792/788/22 790/789/22 788/790/22
f 794/791/22 796/792/22 778/776/22
f 794/791/22 778/776/22 777/775/22
f 783/793/25 781/794/25 795/795/25
f 783/793/25 795/795/25 793/796/25
