# Blender 5.2.0 LTS
# www.blender.org
mtllib Roof.mtl
o Roof
v -1.000000 1.000000 1.000000
v -1.000000 1.200000 1.000000
v -1.000000 1.200000 -1.000000
v -1.000000 1.000000 -1.000000
v -1.000000 1.000000 -1.000000
v -1.000000 1.200000 -1.000000
v -0.800000 1.200000 -1.000000
v -0.800000 1.000000 -1.000000
v -0.800000 1.000000 -1.000000
v -0.800000 1.200000 -1.000000
v -0.800000 1.200000 1.000000
v -0.800000 1.000000 1.000000
v -0.800000 1.000000 1.000000
v -0.800000 1.200000 1.000000
v -1.000000 1.200000 1.000000
v -1.000000 1.000000 1.000000
v -1.000000 1.000000 -1.000000
v -0.800000 1.000000 -1.000000
v -0.800000 1.000000 1.000000
v -1.000000 1.000000 1.000000
v -0.800000 1.200000 -1.000000
v -1.000000 1.200000 -1.000000
v -1.000000 1.200000 1.000000
v -0.800000 1.200000 1.000000
v 0.800000 1.000000 1.000000
v 0.800000 1.200000 1.000000
v 0.800000 1.200000 -1.000000
v 0.800000 1.000000 -1.000000
v 0.800000 1.000000 -1.000000
v 0.800000 1.200000 -1.000000
v 1.000000 1.200000 -1.000000
v 1.000000 1.000000 -1.000000
v 1.000000 1.000000 -1.000000
v 1.000000 1.200000 -1.000000
v 1.000000 1.200000 1.000000
v 1.000000 1.000000 1.000000
v 1.000000 1.000000 1.000000
v 1.000000 1.200000 1.000000
v 0.800000 1.200000 1.000000
v 0.800000 1.000000 1.000000
v 0.800000 1.000000 -1.000000
v 1.000000 1.000000 -1.000000
v 1.000000 1.000000 1.000000
v 0.800000 1.000000 1.000000
v 1.000000 1.200000 -1.000000
v 0.800000 1.200000 -1.000000
v 0.800000 1.200000 1.000000
v 1.000000 1.200000 1.000000
v 0.800000 1.000000 -0.800000
v 0.800000 1.200000 -0.800000
v -0.800000 1.200000 -0.800000
v -0.800000 1.000000 -0.800000
v -0.800000 1.000000 -1.000000
v -0.800000 1.200000 -1.000000
v 0.800000 1.200000 -1.000000
v 0.800000 1.000000 -1.000000
v -0.800000 1.000000 -0.800000
v -0.800000 1.000000 -1.000000
v 0.800000 1.000000 -1.000000
v 0.800000 1.000000 -0.800000
v 0.800000 1.000000 1.000000
v 0.800000 1.200000 1.000000
v -0.800000 1.200000 1.000000
v -0.800000 1.000000 1.000000
v 0.800000 1.200000 -0.800000
v 0.800000 1.200000 -1.000000
v -0.800000 1.200000 -1.000000
v -0.800000 1.200000 -0.800000
v -0.800000 1.000000 0.800000
v -0.800000 1.200000 0.800000
v 0.800000 1.200000 0.800000
v 0.800000 1.000000 0.800000
v 0.800000 1.200000 1.000000
v 0.800000 1.200000 0.800000
v -0.800000 1.200000 0.800000
v -0.800000 1.200000 1.000000
v -0.800000 1.000000 1.000000
v -0.800000 1.000000 0.800000
v 0.800000 1.000000 0.800000
v 0.800000 1.000000 1.000000
v -0.800000 1.200000 0.800000
v -0.800000 1.400000 0.800000
v -0.800000 1.400000 -0.800000
v -0.800000 1.200000 -0.800000
v -0.800000 1.200000 -0.800000
v -0.800000 1.400000 -0.800000
v -0.640000 1.400000 -0.800000
v -0.640000 1.200000 -0.800000
v -0.640000 1.200000 -0.800000
v -0.640000 1.400000 -0.800000
v -0.640000 1.400000 0.800000
v -0.640000 1.200000 0.800000
v -0.640000 1.200000 0.800000
v -0.640000 1.400000 0.800000
v -0.800000 1.400000 0.800000
v -0.800000 1.200000 0.800000
v -0.800000 1.200000 -0.800000
v -0.640000 1.200000 -0.800000
v -0.640000 1.200000 0.800000
v -0.800000 1.200000 0.800000
v -0.640000 1.400000 -0.800000
v -0.800000 1.400000 -0.800000
v -0.800000 1.400000 0.800000
v -0.640000 1.400000 0.800000
v 0.640000 1.200000 0.800000
v 0.640000 1.400000 0.800000
v 0.640000 1.400000 -0.800000
v 0.640000 1.200000 -0.800000
v 0.640000 1.200000 -0.800000
v 0.640000 1.400000 -0.800000
v 0.800000 1.400000 -0.800000
v 0.800000 1.200000 -0.800000
v 0.800000 1.200000 -0.800000
v 0.800000 1.400000 -0.800000
v 0.800000 1.400000 0.800000
v 0.800000 1.200000 0.800000
v 0.800000 1.200000 0.800000
v 0.800000 1.400000 0.800000
v 0.640000 1.400000 0.800000
v 0.640000 1.200000 0.800000
v 0.640000 1.200000 -0.800000
v 0.800000 1.200000 -0.800000
v 0.800000 1.200000 0.800000
v 0.640000 1.200000 0.800000
v 0.800000 1.400000 -0.800000
v 0.640000 1.400000 -0.800000
v 0.640000 1.400000 0.800000
v 0.800000 1.400000 0.800000
v 0.640000 1.200000 -0.640000
v 0.640000 1.400000 -0.640000
v -0.640000 1.400000 -0.640000
v -0.640000 1.200000 -0.640000
v -0.640000 1.200000 -0.800000
v -0.640000 1.400000 -0.800000
v 0.640000 1.400000 -0.800000
v 0.640000 1.200000 -0.800000
v -0.640000 1.200000 -0.640000
v -0.640000 1.200000 -0.800000
v 0.640000 1.200000 -0.800000
v 0.640000 1.200000 -0.640000
v 0.640000 1.200000 0.800000
v 0.640000 1.400000 0.800000
v -0.640000 1.400000 0.800000
v -0.640000 1.200000 0.800000
v 0.640000 1.400000 -0.640000
v 0.640000 1.400000 -0.800000
v -0.640000 1.400000 -0.800000
v -0.640000 1.400000 -0.640000
v -0.640000 1.200000 0.640000
v -0.640000 1.400000 0.640000
v 0.640000 1.400000 0.640000
v 0.640000 1.200000 0.640000
v 0.640000 1.400000 0.800000
v 0.640000 1.400000 0.640000
v -0.640000 1.400000 0.640000
v -0.640000 1.400000 0.800000
v -0.640000 1.200000 0.800000
v -0.640000 1.200000 0.640000
v 0.640000 1.200000 0.640000
v 0.640000 1.200000 0.800000
v -0.640000 1.400000 0.640000
v 0.640000 1.400000 0.640000
v 0.640000 1.400000 -0.640000
v -0.640000 1.400000 -0.640000
vn -1.0000 -0.0000 -0.0000
vn -0.0000 -0.0000 -1.0000
vn 1.0000 -0.0000 -0.0000
vn -0.0000 -0.0000 1.0000
vn -0.0000 -1.0000 -0.0000
vn -0.0000 1.0000 -0.0000
vt 0.250000 0.812500
vt 0.250000 0.835938
vt 0.000000 0.835938
vt 0.000000 0.812500
vt 0.242188 0.625000
vt 0.242188 0.648438
vt 0.218750 0.648438
vt 0.218750 0.625000
vt 0.414062 0.976562
vt 0.414062 1.000000
vt 0.164062 1.000000
vt 0.164062 0.976562
vt 0.273438 0.625000
vt 0.273438 0.648438
vt 0.250000 0.648438
vt 0.250000 0.625000
vt 0.000000 0.554688
vt 0.023438 0.554688
vt 0.023438 0.804688
vt 0.000000 0.804688
vt 0.054688 0.804688
vt 0.031250 0.804688
vt 0.031250 0.554688
vt 0.054688 0.554688
vt 0.414062 0.945312
vt 0.414062 0.968750
vt 0.164062 0.968750
vt 0.164062 0.945312
vt 0.304688 0.625000
vt 0.304688 0.648438
vt 0.281250 0.648438
vt 0.281250 0.625000
vt 0.414062 0.914062
vt 0.414062 0.937500
vt 0.164062 0.937500
vt 0.164062 0.914062
vt 0.242188 0.593750
vt 0.242188 0.617188
vt 0.218750 0.617188
vt 0.218750 0.593750
vt 0.062500 0.554688
vt 0.085938 0.554688
vt 0.085938 0.804688
vt 0.062500 0.804688
vt 0.117188 0.804688
vt 0.093750 0.804688
vt 0.093750 0.554688
vt 0.117188 0.554688
vt 0.367188 0.882812
vt 0.367188 0.906250
vt 0.164062 0.906250
vt 0.164062 0.882812
vt 0.367188 0.851562
vt 0.367188 0.875000
vt 0.164062 0.875000
vt 0.164062 0.851562
vt 0.125000 0.804688
vt 0.125000 0.781250
vt 0.328125 0.781250
vt 0.328125 0.804688
vt 0.328125 0.750000
vt 0.328125 0.773438
vt 0.125000 0.773438
vt 0.125000 0.750000
vt 0.328125 0.718750
vt 0.328125 0.742188
vt 0.125000 0.742188
vt 0.125000 0.718750
vt 0.460938 0.820312
vt 0.460938 0.843750
vt 0.257812 0.843750
vt 0.257812 0.820312
vt 0.328125 0.687500
vt 0.328125 0.710938
vt 0.125000 0.710938
vt 0.125000 0.687500
vt 0.125000 0.679688
vt 0.125000 0.656250
vt 0.328125 0.656250
vt 0.328125 0.679688
vt 0.539062 0.789062
vt 0.539062 0.812500
vt 0.335938 0.812500
vt 0.335938 0.789062
vt 0.273438 0.593750
vt 0.273438 0.617188
vt 0.250000 0.617188
vt 0.250000 0.593750
vt 0.539062 0.757812
vt 0.539062 0.781250
vt 0.335938 0.781250
vt 0.335938 0.757812
vt 0.304688 0.593750
vt 0.304688 0.617188
vt 0.281250 0.617188
vt 0.281250 0.593750
vt 0.335938 0.546875
vt 0.359375 0.546875
vt 0.359375 0.750000
vt 0.335938 0.750000
vt 0.148438 0.648438
vt 0.125000 0.648438
vt 0.125000 0.445312
vt 0.148438 0.445312
vt 0.570312 0.726562
vt 0.570312 0.750000
vt 0.367188 0.750000
vt 0.367188 0.726562
vt 0.242188 0.562500
vt 0.242188 0.585938
vt 0.218750 0.585938
vt 0.218750 0.562500
vt 0.570312 0.695312
vt 0.570312 0.718750
vt 0.367188 0.718750
vt 0.367188 0.695312
vt 0.273438 0.562500
vt 0.273438 0.585938
vt 0.250000 0.585938
vt 0.250000 0.562500
vt 0.156250 0.445312
vt 0.179688 0.445312
vt 0.179688 0.648438
vt 0.156250 0.648438
vt 0.210938 0.648438
vt 0.187500 0.648438
vt 0.187500 0.445312
vt 0.210938 0.445312
vt 0.523438 0.664062
vt 0.523438 0.687500
vt 0.367188 0.687500
vt 0.367188 0.664062
vt 0.523438 0.632812
vt 0.523438 0.656250
vt 0.367188 0.656250
vt 0.367188 0.632812
vt 0.375000 0.906250
vt 0.375000 0.882812
vt 0.531250 0.882812
vt 0.531250 0.906250
vt 0.531250 0.851562
vt 0.531250 0.875000
vt 0.375000 0.875000
vt 0.375000 0.851562
vt 0.523438 0.601562
vt 0.523438 0.625000
vt 0.367188 0.625000
vt 0.367188 0.601562
vt 0.523438 0.570312
vt 0.523438 0.593750
vt 0.367188 0.593750
vt 0.367188 0.570312
vt 0.578125 0.976562
vt 0.578125 1.000000
vt 0.421875 1.000000
vt 0.421875 0.976562
vt 0.421875 0.968750
vt 0.421875 0.945312
vt 0.578125 0.945312
vt 0.578125 0.968750
vt 0.000000 0.843750
vt 0.156250 0.843750
vt 0.156250 1.000000
vt 0.000000 1.000000
s 0
usemtl Material_0
f 1/1/1 2/2/1 3/3/1
f 1/1/1 3/3/1 4/4/1
f 5/5/2 6/6/2 7/7/2
f 5/5/2 7/7/2 8/8/2
f 9/9/3 10/10/3 11/11/3
f 9/9/3 11/11/3 12/12/3
f 13/13/4 14/14/4 15/15/4
f 13/13/4 15/15/4 16/16/4
f 17/17/5 18/18/5 19/19/5
f 17/17/5 19/19/5 20/20/5
f 21/21/6 22/22/6 23/23/6
f 21/21/6 23/23/6 24/24/6
f 25/25/1 26/26/1 27/27/1
f 25/25/1 27/27/1 28/28/1
f 29/29/2 30/30/2 31/31/2
f 29/29/2 31/31/2 32/32/2
f 33/33/3 34/34/3 35/35/3
f 33/33/3 35/35/3 36/36/3
f 37/37/4 38/38/4 39/39/4
f 37/37/4 39/39/4 40/40/4
f 41/41/5 42/42/5 43/43/5
f 41/41/5 43/43/5 44/44/5
f 45/45/6 46/46/6 47/47/6
f 45/45/6 47/47/6 48/48/6
f 49/49/4 50/50/4 51/51/4
f 49/49/4 51/51/4 52/52/4
f 53/53/2 54/54/2 55/55/2
f 53/53/2 55/55/2 56/56/2
f 57/57/5 58/58/5 59/59/5
f 57/57/5 59/59/5 60/60/5
f 61/61/4 62/62/4 63/63/4
f 61/61/4 63/63/4 64/64/4
f 65/65/6 66/66/6 67/67/6
f 65/65/6 67/67/6 68/68/6
f 69/69/2 70/70/2 71/71/2
f 69/69/2 71/71/2 72/72/2
f 73/73/6 74/74/6 75/75/6
f 73/73/6 75/75/6 76/76/6
f 77/77/5 78/78/5 79/79/5
f 77/77/5 79/79/5 80/80/5
f 81/81/1 82/82/1 83/83/1
f 81/81/1 83/83/1 84/84/1
f 85/85/2 86/86/2 87/87/2
f 85/85/2 87/87/2 88/88/2
f 89/89/3 90/90/3 91/91/3
f 89/89/3 91/91/3 92/92/3
f 93/93/4 94/94/4 95/95/4
f 93/93/4 95/95/4 96/96/4
f 97/97/5 98/98/5 99/99/5
f 97/97/5 99/99/5 100/100/5
f 101/101/6 102/102/6 103/103/6
f 101/101/6 103/103/6 104/104/6
f 105/105/1 106/106/1 107/107/1
f 105/105/1 107/107/1 108/108/1
f 109/109/2 110/110/2 111/111/2
f 109/109/2 111/111/2 112/112/2
f 113/113/3 114/114/3 115/115/3
f 113/113/3 115/115/3 116/116/3
f 117/117/4 118/118/4 119/119/4
f 117/117/4 119/119/4 120/120/4
f 121/121/5 122/122/5 123/123/5
f 121/121/5 123/123/5 124/124/5
f 125/125/6 126/126/6 127/127/6
f 125/125/6 127/127/6 128/128/6
f 129/129/4 130/130/4 131/131/4
f 129/129/4 131/131/4 132/132/4
f 133/133/2 134/134/2 135/135/2
f 133/133/2 135/135/2 136/136/2
f 137/137/5 138/138/5 139/139/5
f 137/137/5 139/139/5 140/140/5
f 141/141/4 142/142/4 143/143/4
f 141/141/4 143/143/4 144/144/4
f 145/145/6 146/146/6 147/147/6
f 145/145/6 147/147/6 148/148/6
f 149/149/2 150/150/2 151/151/2
f 149/149/2 151/151/2 152/152/2
f 153/153/6 154/154/6 155/155/6
f 153/153/6 155/155/6 156/156/6
f 157/157/5 158/158/5 159/159/5
f 157/157/5 159/159/5 160/160/5
f 161/161/6 162/162/6 163/163/6
f 161/161/6 163/163/6 164/164/6
