# Blender 5.2.1 LTS
# www.blender.org
o Pillar1
v 0.800000 -1.000000 1.000000
v 0.800000 1.000000 1.000000
v 0.800000 -1.000000 0.800000
v 0.800000 1.000000 0.800000
v 1.000000 -1.000000 1.000000
v 1.000000 1.000000 1.000000
v 1.000000 -1.000000 0.800000
v 1.000000 1.000000 0.800000
vn -1.0000 -0.0000 -0.0000
vn -0.0000 -0.0000 -1.0000
vn 1.0000 -0.0000 -0.0000
vn -0.0000 -0.0000 1.0000
vn -0.0000 -1.0000 -0.0000
vn -0.0000 1.0000 -0.0000
vt 0.375000 0.000000
vt 0.625000 0.000000
vt 0.625000 0.250000
vt 0.375000 0.250000
vt 0.625000 0.500000
vt 0.375000 0.500000
vt 0.625000 0.750000
vt 0.375000 0.750000
vt 0.625000 1.000000
vt 0.375000 1.000000
vt 0.125000 0.500000
vt 0.125000 0.750000
vt 0.875000 0.500000
vt 0.875000 0.750000
s 0
f 1/1/1 2/2/1 4/3/1 3/4/1
f 3/4/2 4/3/2 8/5/2 7/6/2
f 7/6/3 8/5/3 6/7/3 5/8/3
f 5/8/4 6/7/4 2/9/4 1/10/4
f 3/11/5 7/6/5 5/8/5 1/12/5
f 8/5/6 4/13/6 2/14/6 6/7/6
o Pillar2
v -1.000000 -1.000000 -0.800000
v -1.000000 1.000000 -0.800000
v -1.000000 -1.000000 -1.000000
v -1.000000 1.000000 -1.000000
v -0.800000 -1.000000 -0.800000
v -0.800000 1.000000 -0.800000
v -0.800000 -1.000000 -1.000000
v -0.800000 1.000000 -1.000000
vn -1.0000 -0.0000 -0.0000
vn -0.0000 -0.0000 -1.0000
vn 1.0000 -0.0000 -0.0000
vn -0.0000 -0.0000 1.0000
vn -0.0000 -1.0000 -0.0000
vn -0.0000 1.0000 -0.0000
vt 0.375000 0.000000
vt 0.625000 0.000000
vt 0.625000 0.250000
vt 0.375000 0.250000
vt 0.625000 0.500000
vt 0.375000 0.500000
vt 0.625000 0.750000
vt 0.375000 0.750000
vt 0.625000 1.000000
vt 0.375000 1.000000
vt 0.125000 0.500000
vt 0.125000 0.750000
vt 0.875000 0.500000
vt 0.875000 0.750000
s 0
f 9/15/7 10/16/7 12/17/7 11/18/7
f 11/18/8 12/17/8 16/19/8 15/20/8
f 15/20/9 16/19/9 14/21/9 13/22/9
f 13/22/10 14/21/10 10/23/10 9/24/10
f 11/25/11 15/20/11 13/22/11 9/26/11
f 16/19/12 12/27/12 10/28/12 14/21/12
o Pillar3
v -1.000000 -1.000000 1.000000
v -1.000000 1.000000 1.000000
v -1.000000 -1.000000 0.800000
v -1.000000 1.000000 0.800000
v -0.800000 -1.000000 1.000000
v -0.800000 1.000000 1.000000
v -0.800000 -1.000000 0.800000
v -0.800000 1.000000 0.800000
vn -1.0000 -0.0000 -0.0000
vn -0.0000 -0.0000 -1.0000
vn 1.0000 -0.0000 -0.0000
vn -0.0000 -0.0000 1.0000
vn -0.0000 -1.0000 -0.0000
vn -0.0000 1.0000 -0.0000
vt 0.375000 0.000000
vt 0.625000 0.000000
vt 0.625000 0.250000
vt 0.375000 0.250000
vt 0.625000 0.500000
vt 0.375000 0.500000
vt 0.625000 0.750000
vt 0.375000 0.750000
vt 0.625000 1.000000
vt 0.375000 1.000000
vt 0.125000 0.500000
vt 0.125000 0.750000
vt 0.875000 0.500000
vt 0.875000 0.750000
s 0
f 17/29/13 18/30/13 20/31/13 19/32/13
f 19/32/14 20/31/14 24/33/14 23/34/14
f 23/34/15 24/33/15 22/35/15 21/36/15
f 21/36/16 22/35/16 18/37/16 17/38/16
f 19/39/17 23/34/17 21/36/17 17/40/17
f 24/33/18 20/41/18 18/42/18 22/35/18
o Pillar4
v 0.800000 -1.000000 -0.800000
v 0.800000 1.000000 -0.800000
v 0.800000 -1.000000 -1.000000
v 0.800000 1.000000 -1.000000
v 1.000000 -1.000000 -0.800000
v 1.000000 1.000000 -0.800000
v 1.000000 -1.000000 -1.000000
v 1.000000 1.000000 -1.000000
vn -1.0000 -0.0000 -0.0000
vn -0.0000 -0.0000 -1.0000
vn 1.0000 -0.0000 -0.0000
vn -0.0000 -0.0000 1.0000
vn -0.0000 -1.0000 -0.0000
vn -0.0000 1.0000 -0.0000
vt 0.375000 0.000000
vt 0.625000 0.000000
vt 0.625000 0.250000
vt 0.375000 0.250000
vt 0.625000 0.500000
vt 0.375000 0.500000
vt 0.625000 0.750000
vt 0.375000 0.750000
vt 0.625000 1.000000
vt 0.375000 1.000000
vt 0.125000 0.500000
vt 0.125000 0.750000
vt 0.875000 0.500000
vt 0.875000 0.750000
s 0
f 25/43/19 26/44/19 28/45/19 27/46/19
f 27/46/20 28/45/20 32/47/20 31/48/20
f 31/48/21 32/47/21 30/49/21 29/50/21
f 29/50/22 30/49/22 26/51/22 25/52/22
f 27/53/23 31/48/23 29/50/23 25/54/23
f 32/47/24 28/55/24 26/56/24 30/49/24
o Wall1
v 0.800000 -1.000000 0.900000
v 0.800000 1.000000 0.900000
v 0.800000 -1.000000 0.800000
v 0.800000 1.000000 0.800000
v -0.800000 -1.000000 0.900000
v -0.800000 1.000000 0.900000
v -0.800000 -1.000000 0.800000
v -0.800000 1.000000 0.800000
vn 1.0000 -0.0000 -0.0000
vn -1.0000 -0.0000 -0.0000
vn -0.0000 -0.0000 1.0000
vn -0.0000 -1.0000 -0.0000
vn -0.0000 1.0000 -0.0000
vt 0.375000 0.000000
vt 0.625000 0.000000
vt 0.625000 0.250000
vt 0.375000 0.250000
vt 0.375000 0.500000
vt 0.625000 0.500000
vt 0.625000 0.750000
vt 0.375000 0.750000
vt 0.625000 1.000000
vt 0.375000 1.000000
vt 0.125000 0.500000
vt 0.125000 0.750000
vt 0.875000 0.500000
vt 0.875000 0.750000
s 0
f 33/57/25 35/60/25 36/59/25 34/58/25
f 39/61/26 37/64/26 38/63/26 40/62/26
f 37/64/27 33/66/27 34/65/27 38/63/27
f 35/67/28 33/68/28 37/64/28 39/61/28
f 40/62/29 38/63/29 34/70/29 36/69/29
o Wall2
v 0.800000 -1.000000 -0.800000
v 0.800000 1.000000 -0.800000
v 0.800000 -1.000000 -0.900000
v 0.800000 1.000000 -0.900000
v -0.800000 -1.000000 -0.800000
v -0.800000 1.000000 -0.800000
v -0.800000 -1.000000 -0.900000
v -0.800000 1.000000 -0.900000
vn 1.0000 -0.0000 -0.0000
vn -0.0000 -0.0000 -1.0000
vn -1.0000 -0.0000 -0.0000
vn -0.0000 -1.0000 -0.0000
vn -0.0000 1.0000 -0.0000
vt 0.375000 0.000000
vt 0.625000 0.000000
vt 0.625000 0.250000
vt 0.375000 0.250000
vt 0.625000 0.500000
vt 0.375000 0.500000
vt 0.625000 0.750000
vt 0.375000 0.750000
vt 0.125000 0.500000
vt 0.125000 0.750000
vt 0.875000 0.500000
vt 0.875000 0.750000
s 0
f 41/71/30 43/74/30 44/73/30 42/72/30
f 43/74/31 47/76/31 48/75/31 44/73/31
f 47/76/32 45/78/32 46/77/32 48/75/32
f 43/79/33 41/80/33 45/78/33 47/76/33
f 48/75/34 46/77/34 42/82/34 44/81/34
o Wall3
v -0.800000 -1.000000 -0.800000
v -0.800000 1.000000 -0.800000
v -0.900000 -1.000000 -0.800000
v -0.900000 1.000000 -0.800000
v -0.800000 -1.000000 0.800000
v -0.800000 1.000000 0.800000
v -0.900000 -1.000000 0.800000
v -0.900000 1.000000 0.800000
vn -0.0000 -0.0000 -1.0000
vn -1.0000 -0.0000 -0.0000
vn -0.0000 -0.0000 1.0000
vn -0.0000 -1.0000 -0.0000
vn -0.0000 1.0000 -0.0000
vt 0.375000 0.000000
vt 0.625000 0.000000
vt 0.625000 0.250000
vt 0.375000 0.250000
vt 0.625000 0.500000
vt 0.375000 0.500000
vt 0.625000 0.750000
vt 0.375000 0.750000
vt 0.125000 0.500000
vt 0.125000 0.750000
vt 0.875000 0.500000
vt 0.875000 0.750000
s 0
f 49/83/35 51/86/35 52/85/35 50/84/35
f 51/86/36 55/88/36 56/87/36 52/85/36
f 55/88/37 53/90/37 54/89/37 56/87/37
f 51/91/38 49/92/38 53/90/38 55/88/38
f 56/87/39 54/89/39 50/94/39 52/93/39
o Wall4
v 0.900000 -1.000000 -0.800000
v 0.900000 1.000000 -0.800000
v 0.800000 -1.000000 -0.800000
v 0.800000 1.000000 -0.800000
v 0.900000 -1.000000 0.800000
v 0.900000 1.000000 0.800000
v 0.800000 -1.000000 0.800000
v 0.800000 1.000000 0.800000
vn -0.0000 -0.0000 -1.0000
vn -0.0000 -0.0000 1.0000
vn 1.0000 -0.0000 -0.0000
vn -0.0000 -1.0000 -0.0000
vn -0.0000 1.0000 -0.0000
vt 0.375000 0.000000
vt 0.625000 0.000000
vt 0.625000 0.250000
vt 0.375000 0.250000
vt 0.375000 0.500000
vt 0.625000 0.500000
vt 0.625000 0.750000
vt 0.375000 0.750000
vt 0.625000 1.000000
vt 0.375000 1.000000
vt 0.125000 0.500000
vt 0.125000 0.750000
vt 0.875000 0.500000
vt 0.875000 0.750000
s 0
f 57/95/40 59/98/40 60/97/40 58/96/40
f 63/99/41 61/102/41 62/101/41 64/100/41
f 61/102/42 57/104/42 58/103/42 62/101/42
f 59/105/43 57/106/43 61/102/43 63/99/43
f 64/100/44 62/101/44 58/108/44 60/107/44
