# Made in Blockbench 5.1.6
mtllib FloorBase.mtl

o Base
v 0.75 -0.96875 0.75
v 0.75 -0.96875 -0.75
v 0.75 -1 0.75
v 0.75 -1 -0.75
v -0.75 -0.96875 -0.75
v -0.75 -0.96875 0.75
v -0.75 -1 -0.75
v -0.75 -1 0.75
vt 0.1875 0.65625
vt 0.375 0.65625
vt 0.375 0.6484375
vt 0.1875 0.6484375
vt 0.1875 0.6484375
vt 0.375 0.6484375
vt 0.375 0.640625
vt 0.1875 0.640625
vt 0.359375 1
vt 0.546875 1
vt 0.546875 0.9921875
vt 0.359375 0.9921875
vt 0.359375 0.9921875
vt 0.546875 0.9921875
vt 0.546875 0.984375
vt 0.359375 0.984375
vt 0.1875 0.8125
vt 0 0.8125
vt 0 1
vt 0.1875 1
vt 0.1875 0.8125
vt 0 0.8125
vt 0 0.625
vt 0.1875 0.625
vn 0 0 -1
vn 1 0 0
vn 0 0 1
vn -1 0 0
vn 0 1 0
vn 0 -1 0
usemtl m_50ed1e8c-581b-eb99-4a1b-242941d28da6
f 4/4/1 7/3/1 5/2/1 2/1/1
f 3/8/2 4/7/2 2/6/2 1/5/2
f 8/12/3 3/11/3 1/10/3 6/9/3
f 7/16/4 8/15/4 6/14/4 5/13/4
f 6/20/5 1/19/5 2/18/5 5/17/5
f 7/24/6 4/23/6 3/22/6 8/21/6