# Blender 5.2.0 LTS
# www.blender.org
mtllib E.mtl
o Floor
v -1.000000 -1.000000 1.000000
v 1.000000 -1.000000 1.000000
v 1.000000 -1.000000 -1.000000
v -1.000000 -1.000000 -1.000000
vn -0.0000 1.0000 -0.0000
vt 0.742188 0.742188
vt 0.992188 0.742188
vt 0.992188 0.992188
vt 0.742188 0.992188
s 1
usemtl m_9a67e170-a429-6e0b-c13d-136cc56454c0
f 1/1/1 2/2/1 3/3/1 4/4/1
o N
v -0.800000 -1.000000 -0.980000
v -0.800000 1.000000 -0.980000
v -0.800000 1.000000 -1.000000
v -0.800000 -1.000000 -1.000000
v 0.800000 1.000000 -1.000000
v 0.800000 -1.000000 -1.000000
v 0.800000 1.000000 -0.980000
v 0.800000 -1.000000 -0.980000
vn -1.0000 -0.0000 -0.0000
vn -0.0000 -0.0000 -1.0000
vn 1.0000 -0.0000 -0.0000
vn -0.0000 -0.0000 1.0000
vn -0.0000 -1.0000 -0.0000
vn -0.0000 1.0000 -0.0000
vt 0.007812 0.492188
vt 0.007812 0.742188
vt 0.000000 0.742188
vt 0.000000 0.492188
vt 0.203125 0.750000
vt 0.203125 1.000000
vt 0.000000 1.000000
vt 0.000000 0.750000
vt 0.023438 0.492188
vt 0.023438 0.742188
vt 0.015625 0.742188
vt 0.015625 0.492188
vt 0.414062 0.750000
vt 0.414062 1.000000
vt 0.210938 1.000000
vt 0.210938 0.750000
vt 0.031250 0.734375
vt 0.234375 0.734375
vt 0.234375 0.742188
vt 0.031250 0.742188
vt 0.445312 0.742188
vt 0.242188 0.742188
vt 0.242188 0.734375
vt 0.445312 0.734375
s 1
usemtl m_9a67e170-a429-6e0b-c13d-136cc56454c0
f 5/5/2 6/6/2 7/7/2 8/8/2
f 8/9/3 7/10/3 9/11/3 10/12/3
f 10/13/4 9/14/4 11/15/4 12/16/4
f 12/17/5 11/18/5 6/19/5 5/20/5
f 8/21/6 10/22/6 12/23/6 5/24/6
f 9/25/7 7/26/7 6/27/7 11/28/7
o NE
v 0.800000 -1.000000 -0.800000
v 0.800000 1.000000 -0.800000
v 0.800000 1.000000 -1.000000
v 0.800000 -1.000000 -1.000000
v 1.000000 1.000000 -1.000000
v 1.000000 -1.000000 -1.000000
v 1.000000 1.000000 -0.800000
v 1.000000 -1.000000 -0.800000
vn -1.0000 -0.0000 -0.0000
vn -0.0000 -0.0000 -1.0000
vn 1.0000 -0.0000 -0.0000
vn -0.0000 -0.0000 1.0000
vn -0.0000 -1.0000 -0.0000
vn -0.0000 1.0000 -0.0000
vt 0.523438 0.750000
vt 0.523438 1.000000
vt 0.500000 1.000000
vt 0.500000 0.750000
vt 0.554688 0.750000
vt 0.554688 1.000000
vt 0.531250 1.000000
vt 0.531250 0.750000
vt 0.585938 0.750000
vt 0.585938 1.000000
vt 0.562500 1.000000
vt 0.562500 0.750000
vt 0.617188 0.750000
vt 0.617188 1.000000
vt 0.593750 1.000000
vt 0.593750 0.750000
vt 0.625000 0.976562
vt 0.648438 0.976562
vt 0.648438 1.000000
vt 0.625000 1.000000
vt 0.648438 0.968750
vt 0.625000 0.968750
vt 0.625000 0.945312
vt 0.648438 0.945312
s 1
usemtl m_9a67e170-a429-6e0b-c13d-136cc56454c0
f 13/29/8 14/30/8 15/31/8 16/32/8
f 16/33/9 15/34/9 17/35/9 18/36/9
f 18/37/10 17/38/10 19/39/10 20/40/10
f 20/41/11 19/42/11 14/43/11 13/44/11
f 16/45/12 18/46/12 20/47/12 13/48/12
f 17/49/13 15/50/13 14/51/13 19/52/13
o NW
v -1.000000 -1.000000 -0.800000
v -1.000000 1.000000 -0.800000
v -1.000000 1.000000 -1.000000
v -1.000000 -1.000000 -1.000000
v -0.800000 1.000000 -1.000000
v -0.800000 -1.000000 -1.000000
v -0.800000 1.000000 -0.800000
v -0.800000 -1.000000 -0.800000
vn -1.0000 -0.0000 -0.0000
vn -0.0000 -0.0000 -1.0000
vn 1.0000 -0.0000 -0.0000
vn -0.0000 -0.0000 1.0000
vn -0.0000 -1.0000 -0.0000
vn -0.0000 1.0000 -0.0000
vt 0.523438 0.750000
vt 0.523438 1.000000
vt 0.500000 1.000000
vt 0.500000 0.750000
vt 0.554688 0.750000
vt 0.554688 1.000000
vt 0.531250 1.000000
vt 0.531250 0.750000
vt 0.585938 0.750000
vt 0.585938 1.000000
vt 0.562500 1.000000
vt 0.562500 0.750000
vt 0.617188 0.750000
vt 0.617188 1.000000
vt 0.593750 1.000000
vt 0.593750 0.750000
vt 0.625000 0.976562
vt 0.648438 0.976562
vt 0.648438 1.000000
vt 0.625000 1.000000
vt 0.648438 0.968750
vt 0.625000 0.968750
vt 0.625000 0.945312
vt 0.648438 0.945312
s 1
usemtl m_9a67e170-a429-6e0b-c13d-136cc56454c0
f 21/53/14 22/54/14 23/55/14 24/56/14
f 24/57/15 23/58/15 25/59/15 26/60/15
f 26/61/16 25/62/16 27/63/16 28/64/16
f 28/65/17 27/66/17 22/67/17 21/68/17
f 24/69/18 26/70/18 28/71/18 21/72/18
f 25/73/19 23/74/19 22/75/19 27/76/19
o S
v -0.800000 -1.000000 1.000000
v -0.800000 1.000000 1.000000
v -0.800000 1.000000 0.980000
v -0.800000 -1.000000 0.980000
v 0.800000 1.000000 0.980000
v 0.800000 -1.000000 0.980000
v 0.800000 1.000000 1.000000
v 0.800000 -1.000000 1.000000
vn -1.0000 -0.0000 -0.0000
vn -0.0000 -0.0000 -1.0000
vn 1.0000 -0.0000 -0.0000
vn -0.0000 -0.0000 1.0000
vn -0.0000 -1.0000 -0.0000
vn -0.0000 1.0000 -0.0000
vt 0.007812 0.492188
vt 0.007812 0.742188
vt 0.000000 0.742188
vt 0.000000 0.492188
vt 0.203125 0.750000
vt 0.203125 1.000000
vt 0.000000 1.000000
vt 0.000000 0.750000
vt 0.023438 0.492188
vt 0.023438 0.742188
vt 0.015625 0.742188
vt 0.015625 0.492188
vt 0.414062 0.750000
vt 0.414062 1.000000
vt 0.210938 1.000000
vt 0.210938 0.750000
vt 0.031250 0.734375
vt 0.234375 0.734375
vt 0.234375 0.742188
vt 0.031250 0.742188
vt 0.445312 0.742188
vt 0.242188 0.742188
vt 0.242188 0.734375
vt 0.445312 0.734375
s 1
usemtl m_9a67e170-a429-6e0b-c13d-136cc56454c0
f 29/77/20 30/78/20 31/79/20 32/80/20
f 32/81/21 31/82/21 33/83/21 34/84/21
f 34/85/22 33/86/22 35/87/22 36/88/22
f 36/89/23 35/90/23 30/91/23 29/92/23
f 32/93/24 34/94/24 36/95/24 29/96/24
f 33/97/25 31/98/25 30/99/25 35/100/25
o SE
v 0.800000 -1.000000 1.000000
v 0.800000 1.000000 1.000000
v 0.800000 1.000000 0.800000
v 0.800000 -1.000000 0.800000
v 1.000000 1.000000 0.800000
v 1.000000 -1.000000 0.800000
v 1.000000 1.000000 1.000000
v 1.000000 -1.000000 1.000000
vn -1.0000 -0.0000 -0.0000
vn -0.0000 -0.0000 -1.0000
vn 1.0000 -0.0000 -0.0000
vn -0.0000 -0.0000 1.0000
vn -0.0000 -1.0000 -0.0000
vn -0.0000 1.0000 -0.0000
vt 0.523438 0.750000
vt 0.523438 1.000000
vt 0.500000 1.000000
vt 0.500000 0.750000
vt 0.554688 0.750000
vt 0.554688 1.000000
vt 0.531250 1.000000
vt 0.531250 0.750000
vt 0.585938 0.750000
vt 0.585938 1.000000
vt 0.562500 1.000000
vt 0.562500 0.750000
vt 0.617188 0.750000
vt 0.617188 1.000000
vt 0.593750 1.000000
vt 0.593750 0.750000
vt 0.625000 0.976562
vt 0.648438 0.976562
vt 0.648438 1.000000
vt 0.625000 1.000000
vt 0.648438 0.968750
vt 0.625000 0.968750
vt 0.625000 0.945312
vt 0.648438 0.945312
s 1
usemtl m_9a67e170-a429-6e0b-c13d-136cc56454c0
f 37/101/26 38/102/26 39/103/26 40/104/26
f 40/105/27 39/106/27 41/107/27 42/108/27
f 42/109/28 41/110/28 43/111/28 44/112/28
f 44/113/29 43/114/29 38/115/29 37/116/29
f 40/117/30 42/118/30 44/119/30 37/120/30
f 41/121/31 39/122/31 38/123/31 43/124/31
o SW
v -1.000000 -1.000000 1.000000
v -1.000000 1.000000 1.000000
v -1.000000 1.000000 0.800000
v -1.000000 -1.000000 0.800000
v -0.800000 1.000000 0.800000
v -0.800000 -1.000000 0.800000
v -0.800000 1.000000 1.000000
v -0.800000 -1.000000 1.000000
vn -1.0000 -0.0000 -0.0000
vn -0.0000 -0.0000 -1.0000
vn 1.0000 -0.0000 -0.0000
vn -0.0000 -0.0000 1.0000
vn -0.0000 -1.0000 -0.0000
vn -0.0000 1.0000 -0.0000
vt 0.523438 0.750000
vt 0.523438 1.000000
vt 0.500000 1.000000
vt 0.500000 0.750000
vt 0.554688 0.750000
vt 0.554688 1.000000
vt 0.531250 1.000000
vt 0.531250 0.750000
vt 0.585938 0.750000
vt 0.585938 1.000000
vt 0.562500 1.000000
vt 0.562500 0.750000
vt 0.617188 0.750000
vt 0.617188 1.000000
vt 0.593750 1.000000
vt 0.593750 0.750000
vt 0.625000 0.976562
vt 0.648438 0.976562
vt 0.648438 1.000000
vt 0.625000 1.000000
vt 0.648438 0.968750
vt 0.625000 0.968750
vt 0.625000 0.945312
vt 0.648438 0.945312
s 1
usemtl m_9a67e170-a429-6e0b-c13d-136cc56454c0
f 45/125/32 46/126/32 47/127/32 48/128/32
f 48/129/33 47/130/33 49/131/33 50/132/33
f 50/133/34 49/134/34 51/135/34 52/136/34
f 52/137/35 51/138/35 46/139/35 45/140/35
f 48/141/36 50/142/36 52/143/36 45/144/36
f 49/145/37 47/146/37 46/147/37 51/148/37
o W
v -1.000000 -1.000000 0.800000
v -1.000000 1.000000 0.800000
v -1.000000 1.000000 -0.800000
v -1.000000 -1.000000 -0.800000
v -0.980000 1.000000 -0.800000
v -0.980000 -1.000000 -0.800000
v -0.980000 1.000000 0.800000
v -0.980000 -1.000000 0.800000
vn -1.0000 -0.0000 -0.0000
vn -0.0000 -0.0000 -1.0000
vn 1.0000 -0.0000 -0.0000
vn -0.0000 -0.0000 1.0000
vn -0.0000 -1.0000 -0.0000
vn -0.0000 1.0000 -0.0000
vt 0.421875 0.750000
vt 0.421875 1.000000
vt 0.218750 1.000000
vt 0.218750 0.750000
vt 0.007812 0.492188
vt 0.007812 0.742188
vt 0.000000 0.742188
vt 0.000000 0.492188
vt 0.414062 0.750000
vt 0.414062 1.000000
vt 0.210938 1.000000
vt 0.210938 0.750000
vt 0.023438 0.492188
vt 0.023438 0.742188
vt 0.015625 0.742188
vt 0.015625 0.492188
vt 0.031250 0.539062
vt 0.039062 0.539062
vt 0.039062 0.742188
vt 0.031250 0.742188
vt 0.054688 0.742188
vt 0.046875 0.742188
vt 0.046875 0.539062
vt 0.054688 0.539062
s 1
usemtl m_9a67e170-a429-6e0b-c13d-136cc56454c0
f 53/149/38 54/150/38 55/151/38 56/152/38
f 56/153/39 55/154/39 57/155/39 58/156/39
f 58/157/40 57/158/40 59/159/40 60/160/40
f 60/161/41 59/162/41 54/163/41 53/164/41
f 56/165/42 58/166/42 60/167/42 53/168/42
f 57/169/43 55/170/43 54/171/43 59/172/43
