# Made in Blockbench 5.1.6
mtllib ESW.mtl

o N
v -1 0.75 -0.9
v -0.8 0.75 -0.9
v -0.8 1 -0.9
v -1 1 -0.9
v -0.8 -0.75 -0.9
v -0.8 -1 -0.9
v -0.8 -1 -1
v -0.8 -0.75 -1
v -0.8 -0.6875 -0.95011
v -0.8 0.6875 -0.95011
v -1 0.6875 -0.95011
v -1 -0.6875 -0.95011
v -1 -1 -0.9
v -1 -0.75 -0.9
v -0.8 -0.6875 -1.05011
v -0.8 0.75 -1
v -0.8 1 -1
v -0.8 0.6875 -1.05011
v -1 0.75 -1
v -1 1 -1
v -1 0.6875 -1.05011
v -1 -0.6875 -1.05011
v -1 -1 -1
v -1 -0.75 -1
v 0.8 0.75 -0.9
v 1 0.75 -0.9
v 1 1 -0.9
v 0.8 1 -0.9
v 1 -0.6875 -0.95011
v 1 0.6875 -0.95011
v 0.8 0.6875 -0.95011
v 0.8 -0.6875 -0.95011
v 0.8 -1 -0.9
v 1 -1 -0.9
v 1 -0.75 -0.9
v 0.8 -0.75 -0.9
v 0.8 0.75 -1
v 1 0.75 -1
v 1 1 -1
v 0.8 1 -1
v 1 -0.6875 -1.05011
v 1 0.6875 -1.05011
v 0.8 0.6875 -1.05011
v 0.8 -0.6875 -1.05011
v 0.8 -1 -1
v 1 -1 -1
v 1 -0.75 -1
v 0.8 -0.75 -1
v -0.8 0.75 -1
v 0.8 0.75 -1
v 0.8 1 -1
v -0.8 1 -1
v -0.8 -0.5 -1.05011
v 0.8 -0.5 -1.05011
v 0.8 0 -1.05011
v -0.8 0 -1.05011
v -0.8 -0.625 -1.05011
v 0.8 -0.625 -1.05011
v -0.8 -1 -1
v 0.8 -1 -1
v 0.8 -0.75 -1
v -0.8 -0.75 -1
v 0.8 0.5 -1.05011
v -0.8 0.5 -1.05011
v -0.8 0.6875 -1.05011
v 0.8 0.6875 -1.05011
v 0.8 0.625 -1.05011
v -0.8 0.625 -1.05011
v -0.8 -0.6875 -1.05011
v 0.8 -0.6875 -1.05011
vt 0.46875 0.40625
vt 0.515625 0.40625
vt 0.515625 0.46875
vt 0.46875 0.46875
vt 0.4226421875 0.484375
vt 0.4226421875 0.421875
vt 0.4476421875 0.421875
vt 0.4476421875 0.484375
vt 0.234375 0.21875
vt 0.234375 0.5625
vt 0.1875 0.5625
vt 0.1875 0.21875
vt 0.53125 0.40625
vt 0.578125 0.40625
vt 0.578125 0.46875
vt 0.53125 0.46875
vt 0.4601703125 0.5
vt 0.4351703125 0.5
vt 0.4226421875 0.484375
vt 0.4476421875 0.484375
vt 0.609375 0.7578125
vt 0.65625 0.7578125
vt 0.65625 0.78125
vt 0.609375 0.78125
vt 0.4226421875 0.921875
vt 0.4226421875 0.859375
vt 0.4476421875 0.859375
vt 0.4476421875 0.921875
vt 0.4601703125 0.5
vt 0.4601703125 0.84375
vt 0.4351703125 0.84375
vt 0.4351703125 0.5
vt 0.609375 0.7109375
vt 0.65625 0.7109375
vt 0.65625 0.734375
vt 0.609375 0.734375
vt 0.546875 0.859375
vt 0.59375 0.859375
vt 0.59375 0.921875
vt 0.546875 0.921875
vt 0.296875 0.21875
vt 0.296875 0.5625
vt 0.25 0.5625
vt 0.25 0.21875
vt 0.546875 0.78125
vt 0.59375 0.78125
vt 0.59375 0.84375
vt 0.546875 0.84375
vt 0.546875 0.5859375
vt 0.59375 0.5859375
vt 0.59375 0.609375
vt 0.546875 0.609375
vt 0.4476421875 0.859375
vt 0.4226421875 0.859375
vt 0.4351703125 0.84375
vt 0.4601703125 0.84375
vt 0.609375 0.8984375
vt 0.65625 0.8984375
vt 0.65625 0.921875
vt 0.609375 0.921875
vt 0.0382953125 0.5
vt 0.0382953125 0.5625
vt 0.013295312500000003 0.5625
vt 0.013295312500000003 0.5
vt 0.025767187499999997 0.484375
vt 0.0382953125 0.5
vt 0.013295312500000003 0.5
vt 0.0007671875000000022 0.484375
vt 0.025767187499999997 0.140625
vt 0.025767187499999997 0.484375
vt 0.0007671875000000022 0.484375
vt 0.0007671875000000022 0.140625
vt 0.0382953125 0.125
vt 0.025767187499999997 0.140625
vt 0.0007671875000000022 0.140625
vt 0.013295312500000003 0.125
vt 0.0382953125 0.0625
vt 0.0382953125 0.125
vt 0.013295312500000003 0.125
vt 0.013295312500000003 0.0625
vt 0.546875 0.703125
vt 0.59375 0.703125
vt 0.59375 0.765625
vt 0.546875 0.765625
vt 0.359375 0.21875
vt 0.359375 0.5625
vt 0.3125 0.5625
vt 0.3125 0.21875
vt 0.546875 0.625
vt 0.59375 0.625
vt 0.59375 0.6875
vt 0.546875 0.6875
vt 0.609375 0.6640625
vt 0.65625 0.6640625
vt 0.65625 0.6875
vt 0.609375 0.6875
vt 0.609375 0.6171875
vt 0.65625 0.6171875
vt 0.65625 0.640625
vt 0.609375 0.640625
vt 0.375 0.34375
vt 0.421875 0.34375
vt 0.421875 0.40625
vt 0.375 0.40625
vt 0.53125 0.578125
vt 0.53125 0.921875
vt 0.484375 0.921875
vt 0.484375 0.578125
vt 0.59375 0.40625
vt 0.640625 0.40625
vt 0.640625 0.46875
vt 0.59375 0.46875
vt 0.609375 0.8515625
vt 0.65625 0.8515625
vt 0.65625 0.875
vt 0.609375 0.875
vt 0.609375 0.8046875
vt 0.65625 0.8046875
vt 0.65625 0.828125
vt 0.609375 0.828125
vt 0.1007953125 0.0625
vt 0.1007953125 0.125
vt 0.0757953125 0.125
vt 0.0757953125 0.0625
vt 0.1007953125 0.125
vt 0.0882671875 0.140625
vt 0.0632671875 0.140625
vt 0.0757953125 0.125
vt 0.0882671875 0.140625
vt 0.0882671875 0.484375
vt 0.0632671875 0.484375
vt 0.0632671875 0.140625
vt 0.0882671875 0.484375
vt 0.1007953125 0.5
vt 0.0757953125 0.5
vt 0.0632671875 0.484375
vt 0.1007953125 0.5
vt 0.1007953125 0.5625
vt 0.0757953125 0.5625
vt 0.0757953125 0.5
vt 0.1382953125 0.484375
vt 0.1382953125 0.140625
vt 0.1632953125 0.140625
vt 0.1632953125 0.484375
vt 0.1382953125 0.140625
vt 0.1257671875 0.125
vt 0.1507671875 0.125
vt 0.1632953125 0.140625
vt 0.1257671875 0.125
vt 0.1257671875 0.0625
vt 0.1507671875 0.0625
vt 0.1507671875 0.125
vt 0.1257671875 0.5625
vt 0.1257671875 0.5
vt 0.1507671875 0.5
vt 0.1507671875 0.5625
vt 0.1257671875 0.5
vt 0.1382953125 0.484375
vt 0.1632953125 0.484375
vt 0.1507671875 0.5
vt 0 0.578125
vt 0.3984375 0.578125
vt 0.3984375 0.640625
vt 0 0.640625
vt 0.003124999999999989 0.703125
vt 0.403125 0.703125
vt 0.403125 0.828125
vt 0.003124999999999989 0.828125
vt 0.003124999999999989 0.671875
vt 0.403125 0.671875
vt 0.403125 0.703125
vt 0.003124999999999989 0.703125
vt 0.4296875 0.9375
vt 0.828125 0.9375
vt 0.828125 1
vt 0.4296875 1
vt 0.003124999999999989 0.828125
vt 0.403125 0.828125
vt 0.403125 0.953125
vt 0.003124999999999989 0.953125
vt 0.484375 0.5390625
vt 0.8828125 0.5390625
vt 0.8828125 0.5625
vt 0.484375 0.5625
vt 0.003124999999999989 0.953125
vt 0.403125 0.953125
vt 0.403125 0.984375
vt 0.003124999999999989 0.984375
vt 0.003124999999999989 0.984375
vt 0.403125 0.984375
vt 0.403125 1
vt 0.003124999999999989 1
vt 0.003124999999999989 0.65625
vt 0.403125 0.65625
vt 0.403125 0.671875
vt 0.003124999999999989 0.671875
vt 0.484375 0.4921875
vt 0.8828125 0.4921875
vt 0.8828125 0.515625
vt 0.484375 0.515625
vn 0 0 1
vn 1 0 0
vn 0 0 1
vn 0 0 1
vn 1 0 0
vn 0 -0.6255319746714101 0.7801985315698092
vn 1 0 0
vn 1 0 0
vn 0 0.6255319746714101 0.7801985315698092
vn 0 0 1
vn 0 0 1
vn 0 0 1
vn 0 -0.6255319746714109 0.7801985315698086
vn 1 0 0
vn 0 0.6255319746714109 0.7801985315698086
vn -1 0 0
vn -1 0 0
vn -1 0 0
vn -1 0 0
vn -1 0 0
vn 0 0 1
vn 0 0 1
vn 0 0 1
vn 0 -0.6255319746714101 0.7801985315698092
vn 0 0.6255319746714101 0.7801985315698092
vn 0 0 1
vn 0 0 1
vn 0 0 1
vn 0 -0.6255319746714109 0.7801985315698086
vn 0 0.6255319746714109 0.7801985315698086
vn -1 0 0
vn -1 0 0
vn -1 0 0
vn -1 0 0
vn -1 0 0
vn 1 0 0
vn 1 0 0
vn 1 0 0
vn 1 0 0
vn 1 0 0
vn 0 0 1
vn 0 0 1
vn 0 0 1
vn 0 0 1
vn 0 0 1
vn 0 -0.6255319746714109 0.7801985315698085
vn 0 0 1
vn 0 0 1
vn 0 0 1
vn 0 0.6255319746714109 0.7801985315698085
usemtl m_8f18cf77-3786-8aaa-c5f5-a5c595de131f
f 1/1/1 2/2/1 3/3/1 4/4/1
f 5/5/2 6/6/2 7/7/2 8/8/2
f 9/9/3 10/10/3 11/11/3 12/12/3
f 13/13/4 6/14/4 5/15/4 14/16/4
f 15/17/5 9/18/5 5/19/5 8/20/5
f 11/21/6 10/22/6 2/23/6 1/24/6
f 3/25/7 2/26/7 16/27/7 17/28/7
f 15/29/8 18/30/8 10/31/8 9/32/8
f 14/33/9 5/34/9 9/35/9 12/36/9
f 19/37/10 16/38/10 17/39/10 20/40/10
f 15/41/11 18/42/11 21/43/11 22/44/11
f 23/45/12 7/46/12 8/47/12 24/48/12
f 21/49/13 18/50/13 16/51/13 19/52/13
f 16/53/14 2/54/14 10/55/14 18/56/14
f 24/57/15 8/58/15 15/59/15 22/60/15
f 1/61/16 4/62/16 20/63/16 19/64/16
f 11/65/17 1/66/17 19/67/17 21/68/17
f 12/69/18 11/70/18 21/71/18 22/72/18
f 14/73/19 12/74/19 22/75/19 24/76/19
f 13/77/20 14/78/20 24/79/20 23/80/20
f 25/81/21 26/82/21 27/83/21 28/84/21
f 29/85/22 30/86/22 31/87/22 32/88/22
f 33/89/23 34/90/23 35/91/23 36/92/23
f 31/93/24 30/94/24 26/95/24 25/96/24
f 36/97/25 35/98/25 29/99/25 32/100/25
f 37/101/26 38/102/26 39/103/26 40/104/26
f 41/105/27 42/106/27 43/107/27 44/108/27
f 45/109/28 46/110/28 47/111/28 48/112/28
f 43/113/29 42/114/29 38/115/29 37/116/29
f 48/117/30 47/118/30 41/119/30 44/120/30
f 33/121/31 36/122/31 48/123/31 45/124/31
f 36/125/32 32/126/32 44/127/32 48/128/32
f 32/129/33 31/130/33 43/131/33 44/132/33
f 31/133/34 25/134/34 37/135/34 43/136/34
f 25/137/35 28/138/35 40/139/35 37/140/35
f 30/141/36 29/142/36 41/143/36 42/144/36
f 29/145/37 35/146/37 47/147/37 41/148/37
f 35/149/38 34/150/38 46/151/38 47/152/38
f 27/153/39 26/154/39 38/155/39 39/156/39
f 26/157/40 30/158/40 42/159/40 38/160/40
f 49/161/41 50/162/41 51/163/41 52/164/41
f 53/165/42 54/166/42 55/167/42 56/168/42
f 57/169/43 58/170/43 54/171/43 53/172/43
f 59/173/44 60/174/44 61/175/44 62/176/44
f 56/177/45 55/178/45 63/179/45 64/180/45
f 65/181/46 66/182/46 50/183/46 49/184/46
f 64/185/47 63/186/47 67/187/47 68/188/47
f 68/189/48 67/190/48 66/191/48 65/192/48
f 69/193/49 70/194/49 58/195/49 57/196/49
f 62/197/50 61/198/50 70/199/50 69/200/50