# Made in Blockbench 5.1.6
mtllib FloorRoof1.mtl

o Floor
v -1 -1 1
v 1 -1 1
v 1 -1 -1
v -1 -1 -1
vt 0 0.75
vt 0.25 0.75
vt 0.25 1
vt 0 1
vn 0 1 0
usemtl m_04d8979b-7845-e594-0875-97031c232fdd
f 1/1/1 2/2/1 3/3/1 4/4/1
o Roof
v -1 1 1
v -1 1.2 1
v -1 1.2 -1
v -1 1 -1
v -0.8 1.2 -1
v -0.8 1 -1
v -0.8 1.2 1
v -0.8 1 1
v 0.8 1 1
v 0.8 1.2 1
v 0.8 1.2 -1
v 0.8 1 -1
v 1 1.2 -1
v 1 1 -1
v 1 1.2 1
v 1 1 1
v 0.8 1 -0.8
v 0.8 1.2 -0.8
v -0.8 1.2 -0.8
v -0.8 1 -0.8
v -0.8 1 -1
v -0.8 1.2 -1
v 0.8 1.2 -1
v 0.8 1 -1
v 0.8 1 1
v 0.8 1.2 1
v -0.8 1.2 1
v -0.8 1 1
v -0.8 1 0.8
v -0.8 1.2 0.8
v 0.8 1.2 0.8
v 0.8 1 0.8
v -0.8 1.2 0.8
v -0.8 1.4 0.8
v -0.8 1.4 -0.8
v -0.8 1.2 -0.8
v -0.64 1.4 -0.8
v -0.64 1.2 -0.8
v -0.64 1.4 0.8
v -0.64 1.2 0.8
v 0.64 1.2 0.8
v 0.64 1.4 0.8
v 0.64 1.4 -0.8
v 0.64 1.2 -0.8
v 0.8 1.4 -0.8
v 0.8 1.2 -0.8
v 0.8 1.4 0.8
v 0.8 1.2 0.8
v 0.64 1.2 -0.64
v 0.64 1.4 -0.64
v -0.64 1.4 -0.64
v -0.64 1.2 -0.64
v -0.64 1.2 -0.8
v -0.64 1.4 -0.8
v 0.64 1.4 -0.8
v 0.64 1.2 -0.8
v 0.64 1.2 0.8
v 0.64 1.4 0.8
v -0.64 1.4 0.8
v -0.64 1.2 0.8
v -0.64 1.2 0.64
v -0.64 1.4 0.64
v 0.64 1.4 0.64
v 0.64 1.2 0.64
v -0.64 1.4 0.64
v 0.64 1.4 0.64
v 0.64 1.4 -0.64
v -0.64 1.4 -0.64
vt 0.5078125 0.9765625
vt 0.5078125 1
vt 0.2578125 1
vt 0.2578125 0.9765625
vt 0.2578125 0.65625
vt 0.2578125 0.6796875
vt 0.234375 0.6796875
vt 0.234375 0.65625
vt 0.5078125 0.9453125
vt 0.5078125 0.96875
vt 0.2578125 0.96875
vt 0.2578125 0.9453125
vt 0.2578125 0.625
vt 0.2578125 0.6484375
vt 0.234375 0.6484375
vt 0.234375 0.625
vt 0.2578125 0.6875
vt 0.28125 0.6875
vt 0.28125 0.9375
vt 0.2578125 0.9375
vt 0.1953125 0.7421875
vt 0.171875 0.7421875
vt 0.171875 0.4921875
vt 0.1953125 0.4921875
vt 0.5390625 0.9140625
vt 0.5390625 0.9375
vt 0.2890625 0.9375
vt 0.2890625 0.9140625
vt 0.1484375 0.546875
vt 0.1484375 0.5703125
vt 0.125 0.5703125
vt 0.125 0.546875
vt 0.5390625 0.8828125
vt 0.5390625 0.90625
vt 0.2890625 0.90625
vt 0.2890625 0.8828125
vt 0.1484375 0.515625
vt 0.1484375 0.5390625
vt 0.125 0.5390625
vt 0.125 0.515625
vt 0.203125 0.4921875
vt 0.2265625 0.4921875
vt 0.2265625 0.7421875
vt 0.203125 0.7421875
vt 0.3125 0.875
vt 0.2890625 0.875
vt 0.2890625 0.625
vt 0.3125 0.625
vt 0.51953125 0.8515625
vt 0.51953125 0.875
vt 0.3203125 0.875
vt 0.3203125 0.8515625
vt 0.51953125 0.8203125
vt 0.51953125 0.84375
vt 0.3203125 0.84375
vt 0.3203125 0.8203125
vt 0.3203125 0.8125
vt 0.3203125 0.7890625
vt 0.51953125 0.7890625
vt 0.51953125 0.8125
vt 0.51953125 0.7578125
vt 0.51953125 0.78125
vt 0.3203125 0.78125
vt 0.3203125 0.7578125
vt 0.51953125 0.7265625
vt 0.51953125 0.75
vt 0.3203125 0.75
vt 0.3203125 0.7265625
vt 0.51953125 0.6953125
vt 0.51953125 0.71875
vt 0.3203125 0.71875
vt 0.3203125 0.6953125
vt 0.51953125 0.6640625
vt 0.51953125 0.6875
vt 0.3203125 0.6875
vt 0.3203125 0.6640625
vt 0.3203125 0.65625
vt 0.3203125 0.6328125
vt 0.51953125 0.6328125
vt 0.51953125 0.65625
vt 0.51953125 0.6015625
vt 0.51953125 0.625
vt 0.3203125 0.625
vt 0.3203125 0.6015625
vt 0.14453125 0.484375
vt 0.14453125 0.5078125
vt 0.125 0.5078125
vt 0.125 0.484375
vt 0.43359375 0.5703125
vt 0.43359375 0.59375
vt 0.234375 0.59375
vt 0.234375 0.5703125
vt 0.55078125 0.8515625
vt 0.55078125 0.875
vt 0.53125 0.875
vt 0.53125 0.8515625
vt 0 0.37109375
vt 0.01953125 0.37109375
vt 0.01953125 0.5703125
vt 0 0.5703125
vt 0.05078125 0.5703125
vt 0.03125 0.5703125
vt 0.03125 0.37109375
vt 0.05078125 0.37109375
vt 0.43359375 0.5390625
vt 0.43359375 0.5625
vt 0.234375 0.5625
vt 0.234375 0.5390625
vt 0.55078125 0.8203125
vt 0.55078125 0.84375
vt 0.53125 0.84375
vt 0.53125 0.8203125
vt 0.64453125 0.5703125
vt 0.64453125 0.59375
vt 0.4453125 0.59375
vt 0.4453125 0.5703125
vt 0.55078125 0.7890625
vt 0.55078125 0.8125
vt 0.53125 0.8125
vt 0.53125 0.7890625
vt 0.0625 0.37109375
vt 0.08203125 0.37109375
vt 0.08203125 0.5703125
vt 0.0625 0.5703125
vt 0.11328125 0.5703125
vt 0.09375 0.5703125
vt 0.09375 0.37109375
vt 0.11328125 0.37109375
vt 0.60546875 0.5390625
vt 0.60546875 0.5625
vt 0.4453125 0.5625
vt 0.4453125 0.5390625
vt 0.39453125 0.5078125
vt 0.39453125 0.53125
vt 0.234375 0.53125
vt 0.234375 0.5078125
vt 0.40625 0.5
vt 0.40625 0.48046875
vt 0.56640625 0.48046875
vt 0.56640625 0.5
vt 0.56640625 0.5078125
vt 0.56640625 0.53125
vt 0.40625 0.53125
vt 0.40625 0.5078125
vt 0.67578125 0.98046875
vt 0.67578125 1
vt 0.515625 1
vt 0.515625 0.98046875
vt 0.39453125 0.4765625
vt 0.39453125 0.5
vt 0.234375 0.5
vt 0.234375 0.4765625
vt 0.67578125 0.94921875
vt 0.67578125 0.96875
vt 0.515625 0.96875
vt 0.515625 0.94921875
vt 0.125 0.46875
vt 0.125 0.44921875
vt 0.28515625 0.44921875
vt 0.28515625 0.46875
vt 0 0.58203125
vt 0.16015625 0.58203125
vt 0.16015625 0.7421875
vt 0 0.7421875
vn -1 0 0
vn 0 0 -1
vn 1 0 0
vn 0 0 1
vn 0 -1 0
vn 0 1 0
vn -1 0 0
vn 0 0 -1
vn 1 0 0
vn 0 0 1
vn 0 -1 0
vn 0 1 0
vn 0 0 1
vn 0 0 -1
vn 0 -1 0
vn 0 0 1
vn 0 1 0
vn 0 0 -1
vn 0 1 0
vn 0 -1 0
vn -1 0 0
vn 0 0 -1
vn 1 0 0
vn 0 0 1
vn 0 -1 0
vn 0 1 0
vn -1 0 0
vn 0 0 -1
vn 1 0 0
vn 0 0 1
vn 0 -1 0
vn 0 1 0
vn 0 0 1
vn 0 0 -1
vn 0 -1 0
vn 0 0 1
vn 0 1 0
vn 0 0 -1
vn 0 1 0
vn 0 -1 0
vn 0 1 0
usemtl m_04d8979b-7845-e594-0875-97031c232fdd
f 5/5/2 6/6/2 7/7/2 8/8/2
f 8/9/3 7/10/3 9/11/3 10/12/3
f 10/13/4 9/14/4 11/15/4 12/16/4
f 12/17/5 11/18/5 6/19/5 5/20/5
f 8/21/6 10/22/6 12/23/6 5/24/6
f 9/25/7 7/26/7 6/27/7 11/28/7
f 13/29/8 14/30/8 15/31/8 16/32/8
f 16/33/9 15/34/9 17/35/9 18/36/9
f 18/37/10 17/38/10 19/39/10 20/40/10
f 20/41/11 19/42/11 14/43/11 13/44/11
f 16/45/12 18/46/12 20/47/12 13/48/12
f 17/49/13 15/50/13 14/51/13 19/52/13
f 21/53/14 22/54/14 23/55/14 24/56/14
f 25/57/15 26/58/15 27/59/15 28/60/15
f 24/61/16 25/62/16 28/63/16 21/64/16
f 29/65/17 30/66/17 31/67/17 32/68/17
f 22/69/18 27/70/18 26/71/18 23/72/18
f 33/73/19 34/74/19 35/75/19 36/76/19
f 30/77/20 35/78/20 34/79/20 31/80/20
f 32/81/21 33/82/21 36/83/21 29/84/21
f 37/85/22 38/86/22 39/87/22 40/88/22
f 40/89/23 39/90/23 41/91/23 42/92/23
f 42/93/24 41/94/24 43/95/24 44/96/24
f 44/97/25 43/98/25 38/99/25 37/100/25
f 40/101/26 42/102/26 44/103/26 37/104/26
f 41/105/27 39/106/27 38/107/27 43/108/27
f 45/109/28 46/110/28 47/111/28 48/112/28
f 48/113/29 47/114/29 49/115/29 50/116/29
f 50/117/30 49/118/30 51/119/30 52/120/30
f 52/121/31 51/122/31 46/123/31 45/124/31
f 48/125/32 50/126/32 52/127/32 45/128/32
f 49/129/33 47/130/33 46/131/33 51/132/33
f 53/133/34 54/134/34 55/135/34 56/136/34
f 57/137/35 58/138/35 59/139/35 60/140/35
f 56/141/36 57/142/36 60/143/36 53/144/36
f 61/145/37 62/146/37 63/147/37 64/148/37
f 54/149/38 59/150/38 58/151/38 55/152/38
f 65/153/39 66/154/39 67/155/39 68/156/39
f 62/157/40 67/158/40 66/159/40 63/160/40
f 64/161/41 65/162/41 68/163/41 61/164/41
f 69/165/42 70/166/42 71/167/42 72/168/42
o plane
v -0.59375 1.375 0.59375
v -0.59375 1.375 -0.59375
v 0.59375 1.375 0.59375
v 0.59375 1.375 -0.59375
vt 0.14453125 0.59765625
vt 0.14453125 0.72265625
vt 0.01953125 0.72265625
vt 0.01953125 0.59765625
vn 1.2246467991473532e-16 -1 0
usemtl m_04d8979b-7845-e594-0875-97031c232fdd
f 73/169/43 74/170/43 76/171/43 75/172/43