# Blender 5.2.0 LTS
# www.blender.org
mtllib FloorRoof.mtl
o Floor
v -1.000000 -1.000000 1.000000
v 1.000000 -1.000000 1.000000
v 1.000000 -1.000000 -1.000000
v -1.000000 -1.000000 -1.000000
vn -0.0000 1.0000 -0.0000
vt 0.007812 0.265625
vt 0.257812 0.265625
vt 0.257812 0.515625
vt 0.007812 0.515625
s 1
usemtl m_49d6b0fe-1503-3f9f-1bdb-b0d6ec197972
f 1/1/1 2/2/1 3/3/1 4/4/1
o Roof
v -1.000000 1.000000 1.000000
v -1.000000 1.200000 1.000000
v -1.000000 1.000000 -1.000000
v -1.000000 1.200000 -1.000000
v -0.800000 1.000000 1.000000
v -0.800000 1.200000 1.000000
v -0.800000 1.000000 -1.000000
v -0.800000 1.200000 -1.000000
v 0.800000 1.000000 1.000000
v 0.800000 1.200000 1.000000
v 0.800000 1.000000 -1.000000
v 0.800000 1.200000 -1.000000
v 1.000000 1.000000 1.000000
v 1.000000 1.200000 1.000000
v 1.000000 1.000000 -1.000000
v 1.000000 1.200000 -1.000000
v 0.800000 1.000000 -0.800000
v 0.800000 1.200000 -0.800000
v -0.800000 1.000000 -0.800000
v -0.800000 1.200000 -0.800000
v 0.800000 1.000000 -1.000000
v 0.800000 1.200000 -1.000000
v -0.800000 1.000000 -1.000000
v -0.800000 1.200000 -1.000000
v 0.800000 1.000000 1.000000
v 0.800000 1.200000 1.000000
v -0.800000 1.000000 1.000000
v -0.800000 1.200000 1.000000
v 0.800000 1.000000 0.800000
v 0.800000 1.200000 0.800000
v -0.800000 1.000000 0.800000
v -0.800000 1.200000 0.800000
v -0.800000 1.200000 0.800000
v -0.800000 1.400000 0.800000
v -0.800000 1.200000 -0.800000
v -0.800000 1.400000 -0.800000
v -0.640000 1.200000 0.800000
v -0.640000 1.400000 0.800000
v -0.640000 1.200000 -0.800000
v -0.640000 1.400000 -0.800000
v 0.640000 1.200000 0.800000
v 0.640000 1.400000 0.800000
v 0.640000 1.200000 -0.800000
v 0.640000 1.400000 -0.800000
v 0.800000 1.200000 0.800000
v 0.800000 1.400000 0.800000
v 0.800000 1.200000 -0.800000
v 0.800000 1.400000 -0.800000
v 0.640000 1.200000 -0.640000
v 0.640000 1.400000 -0.640000
v -0.640000 1.200000 -0.640000
v -0.640000 1.400000 -0.640000
v 0.640000 1.200000 -0.800000
v 0.640000 1.400000 -0.800000
v -0.640000 1.200000 -0.800000
v -0.640000 1.400000 -0.800000
v 0.640000 1.200000 0.800000
v 0.640000 1.400000 0.800000
v -0.640000 1.200000 0.800000
v -0.640000 1.400000 0.800000
v 0.640000 1.200000 0.640000
v 0.640000 1.400000 0.640000
v -0.640000 1.200000 0.640000
v -0.640000 1.400000 0.640000
v -0.640000 1.400000 0.640000
v 0.640000 1.400000 0.640000
v -0.640000 1.400000 -0.640000
v 0.640000 1.400000 -0.640000
vn -1.0000 -0.0000 -0.0000
vn -0.0000 -0.0000 -1.0000
vn 1.0000 -0.0000 -0.0000
vn -0.0000 -0.0000 1.0000
vn -0.0000 -1.0000 -0.0000
vn -0.0000 1.0000 -0.0000
vt 0.375000 0.000000
vt 0.625000 0.000000
vt 0.625000 0.250000
vt 0.375000 0.250000
vt 0.625000 0.500000
vt 0.375000 0.500000
vt 0.625000 0.750000
vt 0.375000 0.750000
vt 0.625000 1.000000
vt 0.375000 1.000000
vt 0.125000 0.500000
vt 0.125000 0.750000
vt 0.875000 0.500000
vt 0.875000 0.750000
vt 0.000000 0.000000
vt 1.000000 0.000000
vt 1.000000 1.000000
vt 0.000000 1.000000
s 0
f 5/5/2 6/6/2 8/7/2 7/8/2
f 7/8/3 8/7/3 12/9/3 11/10/3
f 11/10/4 12/9/4 10/11/4 9/12/4
f 9/12/5 10/11/5 6/13/5 5/14/5
f 7/15/6 11/10/6 9/12/6 5/16/6
f 12/9/7 8/17/7 6/18/7 10/11/7
f 13/14/2 14/13/2 16/17/2 15/8/2
f 15/8/3 16/7/3 20/9/3 19/10/3
f 19/10/4 20/9/4 18/11/4 17/12/4
f 17/12/5 18/11/5 14/13/5 13/14/5
f 15/15/6 19/10/6 17/12/6 13/16/6
f 20/9/7 16/17/7 14/18/7 18/11/7
f 21/5/5 22/6/5 24/7/5 23/8/5
f 27/10/3 28/9/3 26/11/3 25/12/3
f 23/15/6 27/10/6 25/12/6 21/16/6
f 29/5/5 30/6/5 32/7/5 31/8/5
f 22/6/7 26/11/7 28/9/7 24/7/7
f 35/10/3 36/9/3 34/11/3 33/12/3
f 30/6/7 34/11/7 36/9/7 32/7/7
f 31/15/6 35/10/6 33/12/6 29/16/6
f 37/5/2 38/6/2 40/7/2 39/8/2
f 39/8/3 40/7/3 44/9/3 43/10/3
f 43/10/4 44/9/4 42/11/4 41/12/4
f 41/12/5 42/11/5 38/13/5 37/14/5
f 39/15/6 43/10/6 41/12/6 37/16/6
f 44/9/7 40/17/7 38/18/7 42/11/7
f 45/14/2 46/13/2 48/17/2 47/8/2
f 47/8/3 48/7/3 52/9/3 51/10/3
f 51/10/4 52/9/4 50/11/4 49/12/4
f 49/12/5 50/11/5 46/13/5 45/14/5
f 47/15/6 51/10/6 49/12/6 45/16/6
f 52/9/7 48/17/7 46/18/7 50/11/7
f 53/5/5 54/6/5 56/7/5 55/8/5
f 59/10/3 60/9/3 58/11/3 57/12/3
f 55/15/6 59/10/6 57/12/6 53/16/6
f 61/5/5 62/6/5 64/7/5 63/8/5
f 54/6/7 58/11/7 60/9/7 56/7/7
f 67/10/3 68/9/3 66/11/3 65/12/3
f 62/6/7 66/11/7 68/9/7 64/7/7
f 63/15/6 67/10/6 65/12/6 61/16/6
f 69/19/7 70/20/7 72/21/7 71/22/7
