# Blender 5.2.0 LTS
# www.blender.org
mtllib NewWall.mtl
o E
v 0.900000 -1.000000 -1.000000
v 0.900000 -1.000000 -0.800000
v 0.900000 1.000000 -1.000000
v 0.900000 1.000000 -0.800000
v 0.900000 -0.750000 -1.000000
v 0.900000 -0.750000 -0.800000
v 0.900000 0.750000 -0.800000
v 0.900000 0.750000 -1.000000
v 0.950110 0.687500 -0.800000
v 0.950110 0.687500 -1.000000
v 0.950110 -0.687500 -1.000000
v 0.950110 -0.687500 -0.800000
v 1.000000 -1.000000 -1.000000
v 1.000000 -1.000000 -0.800000
v 1.000000 1.000000 -1.000000
v 1.000000 1.000000 -0.800000
v 1.000000 -0.750000 -1.000000
v 1.000000 -0.750000 -0.800000
v 1.000000 0.750000 -0.800000
v 1.000000 0.750000 -1.000000
v 1.050110 0.687500 -0.800000
v 1.050110 0.687500 -1.000000
v 1.050110 -0.687500 -1.000000
v 1.050110 -0.687500 -0.800000
v 0.900000 -1.000000 0.800000
v 0.900000 -1.000000 1.000000
v 0.900000 1.000000 0.800000
v 0.900000 1.000000 1.000000
v 0.900000 -0.750000 0.800000
v 0.900000 -0.750000 1.000000
v 0.900000 0.750000 1.000000
v 0.900000 0.750000 0.800000
v 0.950110 0.687500 1.000000
v 0.950110 0.687500 0.800000
v 0.950110 -0.687500 0.800000
v 0.950110 -0.687500 1.000000
v 1.000000 -1.000000 0.800000
v 1.000000 -1.000000 1.000000
v 1.000000 1.000000 0.800000
v 1.000000 1.000000 1.000000
v 1.000000 -0.750000 0.800000
v 1.000000 -0.750000 1.000000
v 1.000000 0.750000 1.000000
v 1.000000 0.750000 0.800000
v 1.050110 0.687500 1.000000
v 1.050110 0.687500 0.800000
v 1.050110 -0.687500 0.800000
v 1.050110 -0.687500 1.000000
v 1.000000 -1.000000 -0.800000
v 1.000000 -1.000000 0.800000
v 1.000000 1.000000 -0.800000
v 1.000000 1.000000 0.800000
v 1.050110 0.000000 -0.800000
v 1.050110 0.000000 0.800000
v 1.050110 -0.500000 -0.800000
v 1.050110 -0.500000 0.800000
v 1.000000 -0.750000 -0.800000
v 1.000000 -0.750000 0.800000
v 1.050110 0.500000 0.800000
v 1.050110 0.500000 -0.800000
v 1.000000 0.750000 0.800000
v 1.000000 0.750000 -0.800000
v 1.050110 0.625000 -0.800000
v 1.050110 0.625000 0.800000
v 1.050110 0.687500 0.800000
v 1.050110 0.687500 -0.800000
v 1.050110 -0.625000 0.800000
v 1.050110 -0.625000 -0.800000
v 1.050110 -0.687500 -0.800000
v 1.050110 -0.687500 0.800000
vn -1.0000 -0.0000 -0.0000
vn -0.0000 -0.0000 1.0000
vn -0.7802 -0.6255 -0.0000
vn -0.7802 0.6255 -0.0000
vn -0.0000 -0.0000 -1.0000
vt 0.000000 0.875000
vt 1.000000 0.875000
vt 1.000000 1.000000
vt 0.000000 1.000000
vt 1.000000 0.125000
vt 1.000000 0.000000
vt 1.000000 0.156250
vt 1.000000 0.843750
vt 0.000000 0.843750
vt 0.000000 0.156250
vt 0.000000 0.000000
vt 0.000000 0.125000
vt 0.000000 0.250000
vt 1.000000 0.250000
vt 1.000000 0.500000
vt 0.000000 0.500000
vt 0.000000 0.187500
vt 1.000000 0.187500
vt 1.000000 0.750000
vt 0.000000 0.750000
vt 1.000000 0.812500
vt 0.000000 0.812500
s 0
f 8/1/1 7/2/1 4/3/1 3/4/1
f 6/5/2 2/6/2 14/6/2 18/5/2
f 12/7/1 9/8/1 10/9/1 11/10/1
f 1/11/1 2/6/1 6/5/1 5/12/1
f 24/7/2 12/7/2 6/5/2 18/5/2
f 10/9/3 9/8/3 7/2/3 8/1/3
f 4/3/2 7/2/2 19/2/2 16/3/2
f 24/7/2 21/8/2 9/8/2 12/7/2
f 5/12/4 6/5/4 12/7/4 11/10/4
f 20/1/1 19/2/1 16/3/1 15/4/1
f 24/7/1 21/8/1 22/9/1 23/10/1
f 13/11/1 14/6/1 18/5/1 17/12/1
f 22/9/3 21/8/3 19/2/3 20/1/3
f 19/2/2 7/2/2 9/8/2 21/8/2
f 17/12/4 18/5/4 24/7/4 23/10/4
f 8/1/5 3/4/5 15/4/5 20/1/5
f 10/9/5 8/1/5 20/1/5 22/9/5
f 11/10/5 10/9/5 22/9/5 23/10/5
f 5/12/5 11/10/5 23/10/5 17/12/5
f 1/11/5 5/12/5 17/12/5 13/11/5
f 32/1/1 31/2/1 28/3/1 27/4/1
f 36/7/1 33/8/1 34/9/1 35/10/1
f 25/11/1 26/6/1 30/5/1 29/12/1
f 34/9/3 33/8/3 31/2/3 32/1/3
f 29/12/4 30/5/4 36/7/4 35/10/4
f 44/1/1 43/2/1 40/3/1 39/4/1
f 48/7/1 45/8/1 46/9/1 47/10/1
f 37/11/1 38/6/1 42/5/1 41/12/1
f 46/9/3 45/8/3 43/2/3 44/1/3
f 41/12/4 42/5/4 48/7/4 47/10/4
f 25/11/5 29/12/5 41/12/5 37/11/5
f 29/12/5 35/10/5 47/10/5 41/12/5
f 35/10/5 34/9/5 46/9/5 47/10/5
f 34/9/5 32/1/5 44/1/5 46/9/5
f 32/1/5 27/4/5 39/4/5 44/1/5
f 33/8/2 36/7/2 48/7/2 45/8/2
f 36/7/2 30/5/2 42/5/2 48/7/2
f 30/5/2 26/6/2 38/6/2 42/5/2
f 28/3/2 31/2/2 43/2/2 40/3/2
f 31/2/2 33/8/2 45/8/2 43/2/2
f 62/1/1 61/2/1 52/3/1 51/4/1
f 55/13/1 56/14/1 54/15/1 53/16/1
f 68/17/1 67/18/1 56/14/1 55/13/1
f 49/11/1 50/6/1 58/5/1 57/12/1
f 53/16/1 54/15/1 59/19/1 60/20/1
f 66/9/3 65/8/3 61/2/3 62/1/3
f 60/20/1 59/19/1 64/21/1 63/22/1
f 63/22/1 64/21/1 65/8/1 66/9/1
f 69/10/1 70/7/1 67/18/1 68/17/1
f 57/12/4 58/5/4 70/7/4 69/10/4
o S
v 1.000000 -1.000000 0.900000
v 0.800000 -1.000000 0.900000
v 1.000000 1.000000 0.900000
v 0.800000 1.000000 0.900000
v 1.000000 -0.750000 0.900000
v 0.800000 -0.750000 0.900000
v 0.800000 0.750000 0.900000
v 1.000000 0.750000 0.900000
v 0.800000 0.687500 0.950110
v 1.000000 0.687500 0.950110
v 1.000000 -0.687500 0.950110
v 0.800000 -0.687500 0.950110
v 1.000000 -1.000000 1.000000
v 0.800000 -1.000000 1.000000
v 1.000000 1.000000 1.000000
v 0.800000 1.000000 1.000000
v 1.000000 -0.750000 1.000000
v 0.800000 -0.750000 1.000000
v 0.800000 0.750000 1.000000
v 1.000000 0.750000 1.000000
v 0.800000 0.687500 1.050110
v 1.000000 0.687500 1.050110
v 1.000000 -0.687500 1.050110
v 0.800000 -0.687500 1.050110
v -0.800000 -1.000000 0.900000
v -1.000000 -1.000000 0.900000
v -0.800000 1.000000 0.900000
v -1.000000 1.000000 0.900000
v -0.800000 -0.750000 0.900000
v -1.000000 -0.750000 0.900000
v -1.000000 0.750000 0.900000
v -0.800000 0.750000 0.900000
v -1.000000 0.687500 0.950110
v -0.800000 0.687500 0.950110
v -0.800000 -0.687500 0.950110
v -1.000000 -0.687500 0.950110
v -0.800000 -1.000000 1.000000
v -1.000000 -1.000000 1.000000
v -0.800000 1.000000 1.000000
v -1.000000 1.000000 1.000000
v -0.800000 -0.750000 1.000000
v -1.000000 -0.750000 1.000000
v -1.000000 0.750000 1.000000
v -0.800000 0.750000 1.000000
v -1.000000 0.687500 1.050110
v -0.800000 0.687500 1.050110
v -0.800000 -0.687500 1.050110
v -1.000000 -0.687500 1.050110
v 0.800000 -1.000000 1.000000
v -0.800000 -1.000000 1.000000
v 0.800000 1.000000 1.000000
v -0.800000 1.000000 1.000000
v 0.800000 0.000000 1.050110
v -0.800000 0.000000 1.050110
v 0.800000 -0.500000 1.050110
v -0.800000 -0.500000 1.050110
v 0.800000 -0.750000 1.000000
v -0.800000 -0.750000 1.000000
v -0.800000 0.500000 1.050110
v 0.800000 0.500000 1.050110
v -0.800000 0.750000 1.000000
v 0.800000 0.750000 1.000000
v 0.800000 0.625000 1.050110
v -0.800000 0.625000 1.050110
v -0.800000 0.687500 1.050110
v 0.800000 0.687500 1.050110
v -0.800000 -0.625000 1.050110
v 0.800000 -0.625000 1.050110
v 0.800000 -0.687500 1.050110
v -0.800000 -0.687500 1.050110
vn -0.0000 -0.0000 -1.0000
vn -1.0000 -0.0000 -0.0000
vn -0.0000 -0.6255 -0.7802
vn -0.0000 0.6255 -0.7802
vn 1.0000 -0.0000 -0.0000
vt 0.000000 0.875000
vt 1.000000 0.875000
vt 1.000000 1.000000
vt 0.000000 1.000000
vt 1.000000 0.125000
vt 1.000000 0.000000
vt 1.000000 0.156250
vt 1.000000 0.843750
vt 0.000000 0.843750
vt 0.000000 0.156250
vt 0.000000 0.000000
vt 0.000000 0.125000
vt 0.000000 0.250000
vt 1.000000 0.250000
vt 1.000000 0.500000
vt 0.000000 0.500000
vt 0.000000 0.187500
vt 1.000000 0.187500
vt 1.000000 0.750000
vt 0.000000 0.750000
vt 1.000000 0.812500
vt 0.000000 0.812500
s 0
f 78/23/6 77/24/6 74/25/6 73/26/6
f 76/27/7 72/28/7 84/28/7 88/27/7
f 82/29/6 79/30/6 80/31/6 81/32/6
f 71/33/6 72/28/6 76/27/6 75/34/6
f 94/29/7 82/29/7 76/27/7 88/27/7
f 80/31/8 79/30/8 77/24/8 78/23/8
f 74/25/7 77/24/7 89/24/7 86/25/7
f 94/29/7 91/30/7 79/30/7 82/29/7
f 75/34/9 76/27/9 82/29/9 81/32/9
f 90/23/6 89/24/6 86/25/6 85/26/6
f 94/29/6 91/30/6 92/31/6 93/32/6
f 83/33/6 84/28/6 88/27/6 87/34/6
f 92/31/8 91/30/8 89/24/8 90/23/8
f 89/24/7 77/24/7 79/30/7 91/30/7
f 87/34/9 88/27/9 94/29/9 93/32/9
f 78/23/10 73/26/10 85/26/10 90/23/10
f 80/31/10 78/23/10 90/23/10 92/31/10
f 81/32/10 80/31/10 92/31/10 93/32/10
f 75/34/10 81/32/10 93/32/10 87/34/10
f 71/33/10 75/34/10 87/34/10 83/33/10
f 102/23/6 101/24/6 98/25/6 97/26/6
f 106/29/6 103/30/6 104/31/6 105/32/6
f 95/33/6 96/28/6 100/27/6 99/34/6
f 104/31/8 103/30/8 101/24/8 102/23/8
f 99/34/9 100/27/9 106/29/9 105/32/9
f 114/23/6 113/24/6 110/25/6 109/26/6
f 118/29/6 115/30/6 116/31/6 117/32/6
f 107/33/6 108/28/6 112/27/6 111/34/6
f 116/31/8 115/30/8 113/24/8 114/23/8
f 111/34/9 112/27/9 118/29/9 117/32/9
f 95/33/10 99/34/10 111/34/10 107/33/10
f 99/34/10 105/32/10 117/32/10 111/34/10
f 105/32/10 104/31/10 116/31/10 117/32/10
f 104/31/10 102/23/10 114/23/10 116/31/10
f 102/23/10 97/26/10 109/26/10 114/23/10
f 103/30/7 106/29/7 118/29/7 115/30/7
f 106/29/7 100/27/7 112/27/7 118/29/7
f 100/27/7 96/28/7 108/28/7 112/27/7
f 98/25/7 101/24/7 113/24/7 110/25/7
f 101/24/7 103/30/7 115/30/7 113/24/7
f 132/23/6 131/24/6 122/25/6 121/26/6
f 125/35/6 126/36/6 124/37/6 123/38/6
f 138/39/6 137/40/6 126/36/6 125/35/6
f 119/33/6 120/28/6 128/27/6 127/34/6
f 123/38/6 124/37/6 129/41/6 130/42/6
f 136/31/8 135/30/8 131/24/8 132/23/8
f 130/42/6 129/41/6 134/43/6 133/44/6
f 133/44/6 134/43/6 135/30/6 136/31/6
f 139/32/6 140/29/6 137/40/6 138/39/6
f 127/34/9 128/27/9 140/29/9 139/32/9
o N
v -1.000000 -1.000000 -0.900000
v -0.800000 -1.000000 -0.900000
v -1.000000 1.000000 -0.900000
v -0.800000 1.000000 -0.900000
v -1.000000 -0.750000 -0.900000
v -0.800000 -0.750000 -0.900000
v -0.800000 0.750000 -0.900000
v -1.000000 0.750000 -0.900000
v -0.800000 0.687500 -0.950110
v -1.000000 0.687500 -0.950110
v -1.000000 -0.687500 -0.950110
v -0.800000 -0.687500 -0.950110
v -1.000000 -1.000000 -1.000000
v -0.800000 -1.000000 -1.000000
v -1.000000 1.000000 -1.000000
v -0.800000 1.000000 -1.000000
v -1.000000 -0.750000 -1.000000
v -0.800000 -0.750000 -1.000000
v -0.800000 0.750000 -1.000000
v -1.000000 0.750000 -1.000000
v -0.800000 0.687500 -1.050110
v -1.000000 0.687500 -1.050110
v -1.000000 -0.687500 -1.050110
v -0.800000 -0.687500 -1.050110
v 0.800000 -1.000000 -0.900000
v 1.000000 -1.000000 -0.900000
v 0.800000 1.000000 -0.900000
v 1.000000 1.000000 -0.900000
v 0.800000 -0.750000 -0.900000
v 1.000000 -0.750000 -0.900000
v 1.000000 0.750000 -0.900000
v 0.800000 0.750000 -0.900000
v 1.000000 0.687500 -0.950110
v 0.800000 0.687500 -0.950110
v 0.800000 -0.687500 -0.950110
v 1.000000 -0.687500 -0.950110
v 0.800000 -1.000000 -1.000000
v 1.000000 -1.000000 -1.000000
v 0.800000 1.000000 -1.000000
v 1.000000 1.000000 -1.000000
v 0.800000 -0.750000 -1.000000
v 1.000000 -0.750000 -1.000000
v 1.000000 0.750000 -1.000000
v 0.800000 0.750000 -1.000000
v 1.000000 0.687500 -1.050110
v 0.800000 0.687500 -1.050110
v 0.800000 -0.687500 -1.050110
v 1.000000 -0.687500 -1.050110
v -0.800000 -1.000000 -1.000000
v 0.800000 -1.000000 -1.000000
v -0.800000 1.000000 -1.000000
v 0.800000 1.000000 -1.000000
v -0.800000 0.000000 -1.050110
v 0.800000 0.000000 -1.050110
v -0.800000 -0.500000 -1.050110
v 0.800000 -0.500000 -1.050110
v -0.800000 -0.750000 -1.000000
v 0.800000 -0.750000 -1.000000
v 0.800000 0.500000 -1.050110
v -0.800000 0.500000 -1.050110
v 0.800000 0.750000 -1.000000
v -0.800000 0.750000 -1.000000
v -0.800000 0.625000 -1.050110
v 0.800000 0.625000 -1.050110
v 0.800000 0.687500 -1.050110
v -0.800000 0.687500 -1.050110
v 0.800000 -0.625000 -1.050110
v -0.800000 -0.625000 -1.050110
v -0.800000 -0.687500 -1.050110
v 0.800000 -0.687500 -1.050110
vn -0.0000 -0.0000 1.0000
vn 1.0000 -0.0000 -0.0000
vn -0.0000 -0.6255 0.7802
vn -0.0000 0.6255 0.7802
vn -1.0000 -0.0000 -0.0000
vt 0.000000 0.875000
vt 1.000000 0.875000
vt 1.000000 1.000000
vt 0.000000 1.000000
vt 1.000000 0.125000
vt 1.000000 0.000000
vt 1.000000 0.156250
vt 1.000000 0.843750
vt 0.000000 0.843750
vt 0.000000 0.156250
vt 0.000000 0.000000
vt 0.000000 0.125000
vt 0.000000 0.250000
vt 1.000000 0.250000
vt 1.000000 0.500000
vt 0.000000 0.500000
vt 0.000000 0.187500
vt 1.000000 0.187500
vt 1.000000 0.750000
vt 0.000000 0.750000
vt 1.000000 0.812500
vt 0.000000 0.812500
s 0
f 148/45/11 147/46/11 144/47/11 143/48/11
f 146/49/12 142/50/12 154/50/12 158/49/12
f 152/51/11 149/52/11 150/53/11 151/54/11
f 141/55/11 142/50/11 146/49/11 145/56/11
f 164/51/12 152/51/12 146/49/12 158/49/12
f 150/53/13 149/52/13 147/46/13 148/45/13
f 144/47/12 147/46/12 159/46/12 156/47/12
f 164/51/12 161/52/12 149/52/12 152/51/12
f 145/56/14 146/49/14 152/51/14 151/54/14
f 160/45/11 159/46/11 156/47/11 155/48/11
f 164/51/11 161/52/11 162/53/11 163/54/11
f 153/55/11 154/50/11 158/49/11 157/56/11
f 162/53/13 161/52/13 159/46/13 160/45/13
f 159/46/12 147/46/12 149/52/12 161/52/12
f 157/56/14 158/49/14 164/51/14 163/54/14
f 148/45/15 143/48/15 155/48/15 160/45/15
f 150/53/15 148/45/15 160/45/15 162/53/15
f 151/54/15 150/53/15 162/53/15 163/54/15
f 145/56/15 151/54/15 163/54/15 157/56/15
f 141/55/15 145/56/15 157/56/15 153/55/15
f 172/45/11 171/46/11 168/47/11 167/48/11
f 176/51/11 173/52/11 174/53/11 175/54/11
f 165/55/11 166/50/11 170/49/11 169/56/11
f 174/53/13 173/52/13 171/46/13 172/45/13
f 169/56/14 170/49/14 176/51/14 175/54/14
f 184/45/11 183/46/11 180/47/11 179/48/11
f 188/51/11 185/52/11 186/53/11 187/54/11
f 177/55/11 178/50/11 182/49/11 181/56/11
f 186/53/13 185/52/13 183/46/13 184/45/13
f 181/56/14 182/49/14 188/51/14 187/54/14
f 165/55/15 169/56/15 181/56/15 177/55/15
f 169/56/15 175/54/15 187/54/15 181/56/15
f 175/54/15 174/53/15 186/53/15 187/54/15
f 174/53/15 172/45/15 184/45/15 186/53/15
f 172/45/15 167/48/15 179/48/15 184/45/15
f 173/52/12 176/51/12 188/51/12 185/52/12
f 176/51/12 170/49/12 182/49/12 188/51/12
f 170/49/12 166/50/12 178/50/12 182/49/12
f 168/47/12 171/46/12 183/46/12 180/47/12
f 171/46/12 173/52/12 185/52/12 183/46/12
f 202/45/11 201/46/11 192/47/11 191/48/11
f 195/57/11 196/58/11 194/59/11 193/60/11
f 208/61/11 207/62/11 196/58/11 195/57/11
f 189/55/11 190/50/11 198/49/11 197/56/11
f 193/60/11 194/59/11 199/63/11 200/64/11
f 206/53/13 205/52/13 201/46/13 202/45/13
f 200/64/11 199/63/11 204/65/11 203/66/11
f 203/66/11 204/65/11 205/52/11 206/53/11
f 209/54/11 210/51/11 207/62/11 208/61/11
f 197/56/14 198/49/14 210/51/14 209/54/14
o W
v -0.900000 -1.000000 1.000000
v -0.900000 -1.000000 0.800000
v -0.900000 1.000000 1.000000
v -0.900000 1.000000 0.800000
v -0.900000 -0.750000 1.000000
v -0.900000 -0.750000 0.800000
v -0.900000 0.750000 0.800000
v -0.900000 0.750000 1.000000
v -0.950110 0.687500 0.800000
v -0.950110 0.687500 1.000000
v -0.950110 -0.687500 1.000000
v -0.950110 -0.687500 0.800000
v -1.000000 -1.000000 1.000000
v -1.000000 -1.000000 0.800000
v -1.000000 1.000000 1.000000
v -1.000000 1.000000 0.800000
v -1.000000 -0.750000 1.000000
v -1.000000 -0.750000 0.800000
v -1.000000 0.750000 0.800000
v -1.000000 0.750000 1.000000
v -1.050110 0.687500 0.800000
v -1.050110 0.687500 1.000000
v -1.050110 -0.687500 1.000000
v -1.050110 -0.687500 0.800000
v -0.900000 -1.000000 -0.800000
v -0.900000 -1.000000 -1.000000
v -0.900000 1.000000 -0.800000
v -0.900000 1.000000 -1.000000
v -0.900000 -0.750000 -0.800000
v -0.900000 -0.750000 -1.000000
v -0.900000 0.750000 -1.000000
v -0.900000 0.750000 -0.800000
v -0.950110 0.687500 -1.000000
v -0.950110 0.687500 -0.800000
v -0.950110 -0.687500 -0.800000
v -0.950110 -0.687500 -1.000000
v -1.000000 -1.000000 -0.800000
v -1.000000 -1.000000 -1.000000
v -1.000000 1.000000 -0.800000
v -1.000000 1.000000 -1.000000
v -1.000000 -0.750000 -0.800000
v -1.000000 -0.750000 -1.000000
v -1.000000 0.750000 -1.000000
v -1.000000 0.750000 -0.800000
v -1.050110 0.687500 -1.000000
v -1.050110 0.687500 -0.800000
v -1.050110 -0.687500 -0.800000
v -1.050110 -0.687500 -1.000000
v -1.000000 -1.000000 0.800000
v -1.000000 -1.000000 -0.800000
v -1.000000 1.000000 0.800000
v -1.000000 1.000000 -0.800000
v -1.050110 0.000000 0.800000
v -1.050110 0.000000 -0.800000
v -1.050110 -0.500000 0.800000
v -1.050110 -0.500000 -0.800000
v -1.000000 -0.750000 0.800000
v -1.000000 -0.750000 -0.800000
v -1.050110 0.500000 -0.800000
v -1.050110 0.500000 0.800000
v -1.000000 0.750000 -0.800000
v -1.000000 0.750000 0.800000
v -1.050110 0.625000 0.800000
v -1.050110 0.625000 -0.800000
v -1.050110 0.687500 -0.800000
v -1.050110 0.687500 0.800000
v -1.050110 -0.625000 -0.800000
v -1.050110 -0.625000 0.800000
v -1.050110 -0.687500 0.800000
v -1.050110 -0.687500 -0.800000
vn 1.0000 -0.0000 -0.0000
vn -0.0000 -0.0000 -1.0000
vn 0.7802 -0.6255 -0.0000
vn 0.7802 0.6255 -0.0000
vn -0.0000 -0.0000 1.0000
vt 0.000000 0.875000
vt 1.000000 0.875000
vt 1.000000 1.000000
vt 0.000000 1.000000
vt 1.000000 0.125000
vt 1.000000 0.000000
vt 1.000000 0.156250
vt 1.000000 0.843750
vt 0.000000 0.843750
vt 0.000000 0.156250
vt 0.000000 0.000000
vt 0.000000 0.125000
vt 0.000000 0.250000
vt 1.000000 0.250000
vt 1.000000 0.500000
vt 0.000000 0.500000
vt 0.000000 0.187500
vt 1.000000 0.187500
vt 1.000000 0.750000
vt 0.000000 0.750000
vt 1.000000 0.812500
vt 0.000000 0.812500
s 0
f 218/67/16 217/68/16 214/69/16 213/70/16
f 216/71/17 212/72/17 224/72/17 228/71/17
f 222/73/16 219/74/16 220/75/16 221/76/16
f 211/77/16 212/72/16 216/71/16 215/78/16
f 234/73/17 222/73/17 216/71/17 228/71/17
f 220/75/18 219/74/18 217/68/18 218/67/18
f 214/69/17 217/68/17 229/68/17 226/69/17
f 234/73/17 231/74/17 219/74/17 222/73/17
f 215/78/19 216/71/19 222/73/19 221/76/19
f 230/67/16 229/68/16 226/69/16 225/70/16
f 234/73/16 231/74/16 232/75/16 233/76/16
f 223/77/16 224/72/16 228/71/16 227/78/16
f 232/75/18 231/74/18 229/68/18 230/67/18
f 229/68/17 217/68/17 219/74/17 231/74/17
f 227/78/19 228/71/19 234/73/19 233/76/19
f 218/67/20 213/70/20 225/70/20 230/67/20
f 220/75/20 218/67/20 230/67/20 232/75/20
f 221/76/20 220/75/20 232/75/20 233/76/20
f 215/78/20 221/76/20 233/76/20 227/78/20
f 211/77/20 215/78/20 227/78/20 223/77/20
f 242/67/16 241/68/16 238/69/16 237/70/16
f 246/73/16 243/74/16 244/75/16 245/76/16
f 235/77/16 236/72/16 240/71/16 239/78/16
f 244/75/18 243/74/18 241/68/18 242/67/18
f 239/78/19 240/71/19 246/73/19 245/76/19
f 254/67/16 253/68/16 250/69/16 249/70/16
f 258/73/16 255/74/16 256/75/16 257/76/16
f 247/77/16 248/72/16 252/71/16 251/78/16
f 256/75/18 255/74/18 253/68/18 254/67/18
f 251/78/19 252/71/19 258/73/19 257/76/19
f 235/77/20 239/78/20 251/78/20 247/77/20
f 239/78/20 245/76/20 257/76/20 251/78/20
f 245/76/20 244/75/20 256/75/20 257/76/20
f 244/75/20 242/67/20 254/67/20 256/75/20
f 242/67/20 237/70/20 249/70/20 254/67/20
f 243/74/17 246/73/17 258/73/17 255/74/17
f 246/73/17 240/71/17 252/71/17 258/73/17
f 240/71/17 236/72/17 248/72/17 252/71/17
f 238/69/17 241/68/17 253/68/17 250/69/17
f 241/68/17 243/74/17 255/74/17 253/68/17
f 272/67/16 271/68/16 262/69/16 261/70/16
f 265/79/16 266/80/16 264/81/16 263/82/16
f 278/83/16 277/84/16 266/80/16 265/79/16
f 259/77/16 260/72/16 268/71/16 267/78/16
f 263/82/16 264/81/16 269/85/16 270/86/16
f 276/75/18 275/74/18 271/68/18 272/67/18
f 270/86/16 269/85/16 274/87/16 273/88/16
f 273/88/16 274/87/16 275/74/16 276/75/16
f 279/76/16 280/73/16 277/84/16 278/83/16
f 267/78/19 268/71/19 280/73/19 279/76/19
