# Made in Blockbench 5.1.6
mtllib S.mtl

o NE
v 0.8 -1 -0.8
v 0.8 1 -0.8
v 0.8 1 -1
v 0.8 -1 -1
v 1 1 -1
v 1 -1 -1
v 1 1 -0.8
v 1 -1 -0.8
vt 0.5234375 0.75
vt 0.5234375 1
vt 0.5 1
vt 0.5 0.75
vt 0.5546875 0.75
vt 0.5546875 1
vt 0.53125 1
vt 0.53125 0.75
vt 0.5859375 0.75
vt 0.5859375 1
vt 0.5625 1
vt 0.5625 0.75
vt 0.6171875 0.75
vt 0.6171875 1
vt 0.59375 1
vt 0.59375 0.75
vt 0.625 0.9765625
vt 0.6484375 0.9765625
vt 0.6484375 1
vt 0.625 1
vt 0.6484375 0.96875
vt 0.625 0.96875
vt 0.625 0.9453125
vt 0.6484375 0.9453125
vn -1 0 0
vn 0 0 -1
vn 1 0 0
vn 0 0 1
vn 0 -1 0
vn 0 1 0
usemtl m_365873e8-e903-df85-dd86-8b54911b9c89
f 1/1/1 2/2/1 3/3/1 4/4/1
f 4/5/2 3/6/2 5/7/2 6/8/2
f 6/9/3 5/10/3 7/11/3 8/12/3
f 8/13/4 7/14/4 2/15/4 1/16/4
f 4/17/5 6/18/5 8/19/5 1/20/5
f 5/21/6 3/22/6 2/23/6 7/24/6
o SE
v 0.8 -1 1
v 0.8 1 1
v 0.8 1 0.8
v 0.8 -1 0.8
v 1 1 0.8
v 1 -1 0.8
v 1 1 1
v 1 -1 1
vt 0.5234375 0.75
vt 0.5234375 1
vt 0.5 1
vt 0.5 0.75
vt 0.5546875 0.75
vt 0.5546875 1
vt 0.53125 1
vt 0.53125 0.75
vt 0.5859375 0.75
vt 0.5859375 1
vt 0.5625 1
vt 0.5625 0.75
vt 0.6171875 0.75
vt 0.6171875 1
vt 0.59375 1
vt 0.59375 0.75
vt 0.625 0.9765625
vt 0.6484375 0.9765625
vt 0.6484375 1
vt 0.625 1
vt 0.6484375 0.96875
vt 0.625 0.96875
vt 0.625 0.9453125
vt 0.6484375 0.9453125
vn -1 0 0
vn 0 0 -1
vn 1 0 0
vn 0 0 1
vn 0 -1 0
vn 0 1 0
usemtl m_365873e8-e903-df85-dd86-8b54911b9c89
f 9/25/7 10/26/7 11/27/7 12/28/7
f 12/29/8 11/30/8 13/31/8 14/32/8
f 14/33/9 13/34/9 15/35/9 16/36/9
f 16/37/10 15/38/10 10/39/10 9/40/10
f 12/41/11 14/42/11 16/43/11 9/44/11
f 13/45/12 11/46/12 10/47/12 15/48/12
o NW
v -1 -1 -0.8
v -1 1 -0.8
v -1 1 -1
v -1 -1 -1
v -0.8 1 -1
v -0.8 -1 -1
v -0.8 1 -0.8
v -0.8 -1 -0.8
vt 0.5234375 0.75
vt 0.5234375 1
vt 0.5 1
vt 0.5 0.75
vt 0.5546875 0.75
vt 0.5546875 1
vt 0.53125 1
vt 0.53125 0.75
vt 0.5859375 0.75
vt 0.5859375 1
vt 0.5625 1
vt 0.5625 0.75
vt 0.6171875 0.75
vt 0.6171875 1
vt 0.59375 1
vt 0.59375 0.75
vt 0.625 0.9765625
vt 0.6484375 0.9765625
vt 0.6484375 1
vt 0.625 1
vt 0.6484375 0.96875
vt 0.625 0.96875
vt 0.625 0.9453125
vt 0.6484375 0.9453125
vn -1 0 0
vn 0 0 -1
vn 1 0 0
vn 0 0 1
vn 0 -1 0
vn 0 1 0
usemtl m_365873e8-e903-df85-dd86-8b54911b9c89
f 17/49/13 18/50/13 19/51/13 20/52/13
f 20/53/14 19/54/14 21/55/14 22/56/14
f 22/57/15 21/58/15 23/59/15 24/60/15
f 24/61/16 23/62/16 18/63/16 17/64/16
f 20/65/17 22/66/17 24/67/17 17/68/17
f 21/69/18 19/70/18 18/71/18 23/72/18
o SW
v -1 -1 1
v -1 1 1
v -1 1 0.8
v -1 -1 0.8
v -0.8 1 0.8
v -0.8 -1 0.8
v -0.8 1 1
v -0.8 -1 1
vt 0.5234375 0.75
vt 0.5234375 1
vt 0.5 1
vt 0.5 0.75
vt 0.5546875 0.75
vt 0.5546875 1
vt 0.53125 1
vt 0.53125 0.75
vt 0.5859375 0.75
vt 0.5859375 1
vt 0.5625 1
vt 0.5625 0.75
vt 0.6171875 0.75
vt 0.6171875 1
vt 0.59375 1
vt 0.59375 0.75
vt 0.625 0.9765625
vt 0.6484375 0.9765625
vt 0.6484375 1
vt 0.625 1
vt 0.6484375 0.96875
vt 0.625 0.96875
vt 0.625 0.9453125
vt 0.6484375 0.9453125
vn -1 0 0
vn 0 0 -1
vn 1 0 0
vn 0 0 1
vn 0 -1 0
vn 0 1 0
usemtl m_365873e8-e903-df85-dd86-8b54911b9c89
f 25/73/19 26/74/19 27/75/19 28/76/19
f 28/77/20 27/78/20 29/79/20 30/80/20
f 30/81/21 29/82/21 31/83/21 32/84/21
f 32/85/22 31/86/22 26/87/22 25/88/22
f 28/89/23 30/90/23 32/91/23 25/92/23
f 29/93/24 27/94/24 26/95/24 31/96/24
o N
v -0.8 -1 -0.99
v -0.8 1 -0.99
v -0.8 1 -0.99
v -0.8 -1 -0.99
v 0.8 1 -0.99
v 0.8 -1 -0.99
v 0.8 1 -0.99
v 0.8 -1 -0.99
vt 0.0078125 0.4921875
vt 0.0078125 0.7421875
vt 0 0.7421875
vt 0 0.4921875
vt 0.203125 0.75
vt 0.203125 1
vt 0 1
vt 0 0.75
vt 0.0234375 0.4921875
vt 0.0234375 0.7421875
vt 0.015625 0.7421875
vt 0.015625 0.4921875
vt 0.4140625 0.75
vt 0.4140625 1
vt 0.2109375 1
vt 0.2109375 0.75
vt 0.03125 0.734375
vt 0.234375 0.734375
vt 0.234375 0.7421875
vt 0.03125 0.7421875
vt 0.4453125 0.7421875
vt 0.2421875 0.7421875
vt 0.2421875 0.734375
vt 0.4453125 0.734375
vn 0 0 0
vn 0 0 -1
vn 0 0 0
vn 0 0 1
vn 0 0 0
vn 0 0 0
usemtl m_365873e8-e903-df85-dd86-8b54911b9c89
f 33/97/25 34/98/25 35/99/25 36/100/25
f 36/101/26 35/102/26 37/103/26 38/104/26
f 38/105/27 37/106/27 39/107/27 40/108/27
f 40/109/28 39/110/28 34/111/28 33/112/28
f 36/113/29 38/114/29 40/115/29 33/116/29
f 37/117/30 35/118/30 34/119/30 39/120/30
o E
v 0.99 -1 0.8
v 0.99 1 0.8
v 0.99 1 -0.8
v 0.99 -1 -0.8
v 0.99 1 -0.8
v 0.99 -1 -0.8
v 0.99 1 0.8
v 0.99 -1 0.8
vt 0.203125 0.75
vt 0.203125 1
vt 0 1
vt 0 0.75
vt 0.03125 -1.03125
vt 0.03125 -0.03125
vt 0 -0.03125
vt 0 -1.03125
vt 1.65625 0
vt 1.65625 1
vt 0.84375 1
vt 0.84375 0
vt 0.09375 -1.03125
vt 0.09375 -0.03125
vt 0.0625 -0.03125
vt 0.0625 -1.03125
vt 0.125 -0.84375
vt 0.15625 -0.84375
vt 0.15625 -0.03125
vt 0.125 -0.03125
vt 0.21875 -0.03125
vt 0.1875 -0.03125
vt 0.1875 -0.84375
vt 0.21875 -0.84375
vn -1 0 0
vn 0 0 0
vn 1 0 0
vn 0 0 0
vn 0 0 0
vn 0 0 0
usemtl m_365873e8-e903-df85-dd86-8b54911b9c89
f 41/121/31 42/122/31 43/123/31 44/124/31
usemtl none
f 44/125/32 43/126/32 45/127/32 46/128/32
f 46/129/33 45/130/33 47/131/33 48/132/33
f 48/133/34 47/134/34 42/135/34 41/136/34
f 44/137/35 46/138/35 48/139/35 41/140/35
f 45/141/36 43/142/36 42/143/36 47/144/36
o W
v -0.99 -1 0.8
v -0.99 1 0.8
v -0.99 1 -0.8
v -0.99 -1 -0.8
v -0.99 1 -0.8
v -0.99 -1 -0.8
v -0.99 1 0.8
v -0.99 -1 0.8
vt 0.421875 0.75
vt 0.421875 1
vt 0.21875 1
vt 0.21875 0.75
vt 0.0078125 0.4921875
vt 0.0078125 0.7421875
vt 0 0.7421875
vt 0 0.4921875
vt 0.4140625 0.75
vt 0.4140625 1
vt 0.2109375 1
vt 0.2109375 0.75
vt 0.0234375 0.4921875
vt 0.0234375 0.7421875
vt 0.015625 0.7421875
vt 0.015625 0.4921875
vt 0.03125 0.5390625
vt 0.0390625 0.5390625
vt 0.0390625 0.7421875
vt 0.03125 0.7421875
vt 0.0546875 0.7421875
vt 0.046875 0.7421875
vt 0.046875 0.5390625
vt 0.0546875 0.5390625
vn -1 0 0
vn 0 0 0
vn 1 0 0
vn 0 0 0
vn 0 0 0
vn 0 0 0
usemtl m_365873e8-e903-df85-dd86-8b54911b9c89
f 49/145/37 50/146/37 51/147/37 52/148/37
f 52/149/38 51/150/38 53/151/38 54/152/38
f 54/153/39 53/154/39 55/155/39 56/156/39
f 56/157/40 55/158/40 50/159/40 49/160/40
f 52/161/41 54/162/41 56/163/41 49/164/41
f 53/165/42 51/166/42 50/167/42 55/168/42