# Made in Blockbench 5.1.6
mtllib Wall1.mtl

o NE
v 0.8 -1 -0.8
v 0.8 1 -0.8
v 0.8 1 -1
v 0.8 -1 -1
v 1 1 -1
v 1 -1 -1
v 1 1 -0.8
v 1 -1 -0.8
vt 0.5234375 0.75
vt 0.5234375 1
vt 0.5 1
vt 0.5 0.75
vt 0.5546875 0.75
vt 0.5546875 1
vt 0.53125 1
vt 0.53125 0.75
vt 0.5859375 0.75
vt 0.5859375 1
vt 0.5625 1
vt 0.5625 0.75
vt 0.6171875 0.75
vt 0.6171875 1
vt 0.59375 1
vt 0.59375 0.75
vt 0.625 0.9765625
vt 0.6484375 0.9765625
vt 0.6484375 1
vt 0.625 1
vt 0.6484375 0.96875
vt 0.625 0.96875
vt 0.625 0.9453125
vt 0.6484375 0.9453125
vn -1 0 0
vn 0 0 -1
vn 1 0 0
vn 0 0 1
vn 0 -1 0
vn 0 1 0
usemtl m_9a67e170-a429-6e0b-c13d-136cc56454c0
f 1/1/1 2/2/1 3/3/1 4/4/1
f 4/5/2 3/6/2 5/7/2 6/8/2
f 6/9/3 5/10/3 7/11/3 8/12/3
f 8/13/4 7/14/4 2/15/4 1/16/4
f 4/17/5 6/18/5 8/19/5 1/20/5
f 5/21/6 3/22/6 2/23/6 7/24/6
o SE
v 0.8 -1 1
v 0.8 1 1
v 0.8 1 0.8
v 0.8 -1 0.8
v 1 1 0.8
v 1 -1 0.8
v 1 1 1
v 1 -1 1
vt 0.5234375 0.75
vt 0.5234375 1
vt 0.5 1
vt 0.5 0.75
vt 0.5546875 0.75
vt 0.5546875 1
vt 0.53125 1
vt 0.53125 0.75
vt 0.5859375 0.75
vt 0.5859375 1
vt 0.5625 1
vt 0.5625 0.75
vt 0.6171875 0.75
vt 0.6171875 1
vt 0.59375 1
vt 0.59375 0.75
vt 0.625 0.9765625
vt 0.6484375 0.9765625
vt 0.6484375 1
vt 0.625 1
vt 0.6484375 0.96875
vt 0.625 0.96875
vt 0.625 0.9453125
vt 0.6484375 0.9453125
vn -1 0 0
vn 0 0 -1
vn 1 0 0
vn 0 0 1
vn 0 -1 0
vn 0 1 0
usemtl m_9a67e170-a429-6e0b-c13d-136cc56454c0
f 9/25/7 10/26/7 11/27/7 12/28/7
f 12/29/8 11/30/8 13/31/8 14/32/8
f 14/33/9 13/34/9 15/35/9 16/36/9
f 16/37/10 15/38/10 10/39/10 9/40/10
f 12/41/11 14/42/11 16/43/11 9/44/11
f 13/45/12 11/46/12 10/47/12 15/48/12
o NW
v -1 -1 -0.8
v -1 1 -0.8
v -1 1 -1
v -1 -1 -1
v -0.8 1 -1
v -0.8 -1 -1
v -0.8 1 -0.8
v -0.8 -1 -0.8
vt 0.5234375 0.75
vt 0.5234375 1
vt 0.5 1
vt 0.5 0.75
vt 0.5546875 0.75
vt 0.5546875 1
vt 0.53125 1
vt 0.53125 0.75
vt 0.5859375 0.75
vt 0.5859375 1
vt 0.5625 1
vt 0.5625 0.75
vt 0.6171875 0.75
vt 0.6171875 1
vt 0.59375 1
vt 0.59375 0.75
vt 0.625 0.9765625
vt 0.6484375 0.9765625
vt 0.6484375 1
vt 0.625 1
vt 0.6484375 0.96875
vt 0.625 0.96875
vt 0.625 0.9453125
vt 0.6484375 0.9453125
vn -1 0 0
vn 0 0 -1
vn 1 0 0
vn 0 0 1
vn 0 -1 0
vn 0 1 0
usemtl m_9a67e170-a429-6e0b-c13d-136cc56454c0
f 17/49/13 18/50/13 19/51/13 20/52/13
f 20/53/14 19/54/14 21/55/14 22/56/14
f 22/57/15 21/58/15 23/59/15 24/60/15
f 24/61/16 23/62/16 18/63/16 17/64/16
f 20/65/17 22/66/17 24/67/17 17/68/17
f 21/69/18 19/70/18 18/71/18 23/72/18
o SW
v -1 -1 1
v -1 1 1
v -1 1 0.8
v -1 -1 0.8
v -0.8 1 0.8
v -0.8 -1 0.8
v -0.8 1 1
v -0.8 -1 1
vt 0.5234375 0.75
vt 0.5234375 1
vt 0.5 1
vt 0.5 0.75
vt 0.5546875 0.75
vt 0.5546875 1
vt 0.53125 1
vt 0.53125 0.75
vt 0.5859375 0.75
vt 0.5859375 1
vt 0.5625 1
vt 0.5625 0.75
vt 0.6171875 0.75
vt 0.6171875 1
vt 0.59375 1
vt 0.59375 0.75
vt 0.625 0.9765625
vt 0.6484375 0.9765625
vt 0.6484375 1
vt 0.625 1
vt 0.6484375 0.96875
vt 0.625 0.96875
vt 0.625 0.9453125
vt 0.6484375 0.9453125
vn -1 0 0
vn 0 0 -1
vn 1 0 0
vn 0 0 1
vn 0 -1 0
vn 0 1 0
usemtl m_9a67e170-a429-6e0b-c13d-136cc56454c0
f 25/73/19 26/74/19 27/75/19 28/76/19
f 28/77/20 27/78/20 29/79/20 30/80/20
f 30/81/21 29/82/21 31/83/21 32/84/21
f 32/85/22 31/86/22 26/87/22 25/88/22
f 28/89/23 30/90/23 32/91/23 25/92/23
f 29/93/24 27/94/24 26/95/24 31/96/24
o Floor
v -1 -1 1
v 1 -1 1
v 1 -1 -1
v -1 -1 -1
vt 0.7421875 0.7421875
vt 0.9921875 0.7421875
vt 0.9921875 0.9921875
vt 0.7421875 0.9921875
vn 0 1 0
usemtl m_9a67e170-a429-6e0b-c13d-136cc56454c0
f 33/97/25 34/98/25 35/99/25 36/100/25
o N
v -0.8 -1 -0.98
v -0.8 1 -0.98
v -0.8 1 -1
v -0.8 -1 -1
v 0.8 1 -1
v 0.8 -1 -1
v 0.8 1 -0.98
v 0.8 -1 -0.98
vt 0.0078125 0.4921875
vt 0.0078125 0.7421875
vt 0 0.7421875
vt 0 0.4921875
vt 0.203125 0.75
vt 0.203125 1
vt 0 1
vt 0 0.75
vt 0.0234375 0.4921875
vt 0.0234375 0.7421875
vt 0.015625 0.7421875
vt 0.015625 0.4921875
vt 0.4140625 0.75
vt 0.4140625 1
vt 0.2109375 1
vt 0.2109375 0.75
vt 0.03125 0.734375
vt 0.234375 0.734375
vt 0.234375 0.7421875
vt 0.03125 0.7421875
vt 0.4453125 0.7421875
vt 0.2421875 0.7421875
vt 0.2421875 0.734375
vt 0.4453125 0.734375
vn -1 0 0
vn 0 0 -1
vn 1 0 0
vn 0 0 1
vn 0 -1 0
vn 0 1 0
usemtl m_9a67e170-a429-6e0b-c13d-136cc56454c0
f 37/101/26 38/102/26 39/103/26 40/104/26
f 40/105/27 39/106/27 41/107/27 42/108/27
f 42/109/28 41/110/28 43/111/28 44/112/28
f 44/113/29 43/114/29 38/115/29 37/116/29
f 40/117/30 42/118/30 44/119/30 37/120/30
f 41/121/31 39/122/31 38/123/31 43/124/31
o S
v -0.8 -1 1
v -0.8 1 1
v -0.8 1 0.98
v -0.8 -1 0.98
v 0.8 1 0.98
v 0.8 -1 0.98
v 0.8 1 1
v 0.8 -1 1
vt 0.0078125 0.4921875
vt 0.0078125 0.7421875
vt 0 0.7421875
vt 0 0.4921875
vt 0.203125 0.75
vt 0.203125 1
vt 0 1
vt 0 0.75
vt 0.0234375 0.4921875
vt 0.0234375 0.7421875
vt 0.015625 0.7421875
vt 0.015625 0.4921875
vt 0.4140625 0.75
vt 0.4140625 1
vt 0.2109375 1
vt 0.2109375 0.75
vt 0.03125 0.734375
vt 0.234375 0.734375
vt 0.234375 0.7421875
vt 0.03125 0.7421875
vt 0.4453125 0.7421875
vt 0.2421875 0.7421875
vt 0.2421875 0.734375
vt 0.4453125 0.734375
vn -1 0 0
vn 0 0 -1
vn 1 0 0
vn 0 0 1
vn 0 -1 0
vn 0 1 0
usemtl m_9a67e170-a429-6e0b-c13d-136cc56454c0
f 45/125/32 46/126/32 47/127/32 48/128/32
f 48/129/33 47/130/33 49/131/33 50/132/33
f 50/133/34 49/134/34 51/135/34 52/136/34
f 52/137/35 51/138/35 46/139/35 45/140/35
f 48/141/36 50/142/36 52/143/36 45/144/36
f 49/145/37 47/146/37 46/147/37 51/148/37
o W
v -1 -1 0.8
v -1 1 0.8
v -1 1 -0.8
v -1 -1 -0.8
v -0.98 1 -0.8
v -0.98 -1 -0.8
v -0.98 1 0.8
v -0.98 -1 0.8
vt 0.421875 0.75
vt 0.421875 1
vt 0.21875 1
vt 0.21875 0.75
vt 0.0078125 0.4921875
vt 0.0078125 0.7421875
vt 0 0.7421875
vt 0 0.4921875
vt 0.4140625 0.75
vt 0.4140625 1
vt 0.2109375 1
vt 0.2109375 0.75
vt 0.0234375 0.4921875
vt 0.0234375 0.7421875
vt 0.015625 0.7421875
vt 0.015625 0.4921875
vt 0.03125 0.5390625
vt 0.0390625 0.5390625
vt 0.0390625 0.7421875
vt 0.03125 0.7421875
vt 0.0546875 0.7421875
vt 0.046875 0.7421875
vt 0.046875 0.5390625
vt 0.0546875 0.5390625
vn -1 0 0
vn 0 0 -1
vn 1 0 0
vn 0 0 1
vn 0 -1 0
vn 0 1 0
usemtl m_9a67e170-a429-6e0b-c13d-136cc56454c0
f 53/149/38 54/150/38 55/151/38 56/152/38
f 56/153/39 55/154/39 57/155/39 58/156/39
f 58/157/40 57/158/40 59/159/40 60/160/40
f 60/161/41 59/162/41 54/163/41 53/164/41
f 56/165/42 58/166/42 60/167/42 53/168/42
f 57/169/43 55/170/43 54/171/43 59/172/43
o E
v 0.98 -1 0.8
v 0.98 1 0.8
v 0.98 1 -0.8
v 0.98 -1 -0.8
v 1 1 -0.8
v 1 -1 -0.8
v 1 1 0.8
v 1 -1 0.8
vt 0.203125 0.75
vt 0.203125 1
vt 0 1
vt 0 0.75
vt 0.03125 -1.03125
vt 0.03125 -0.03125
vt 0 -0.03125
vt 0 -1.03125
vt 1.65625 0
vt 1.65625 1
vt 0.84375 1
vt 0.84375 0
vt 0.09375 -1.03125
vt 0.09375 -0.03125
vt 0.0625 -0.03125
vt 0.0625 -1.03125
vt 0.125 -0.84375
vt 0.15625 -0.84375
vt 0.15625 -0.03125
vt 0.125 -0.03125
vt 0.21875 -0.03125
vt 0.1875 -0.03125
vt 0.1875 -0.84375
vt 0.21875 -0.84375
vn -1 0 0
vn 0 0 -1
vn 1 0 0
vn 0 0 1
vn 0 -1 0
vn 0 1 0
usemtl m_9a67e170-a429-6e0b-c13d-136cc56454c0
f 61/173/44 62/174/44 63/175/44 64/176/44
usemtl none
f 64/177/45 63/178/45 65/179/45 66/180/45
f 66/181/46 65/182/46 67/183/46 68/184/46
f 68/185/47 67/186/47 62/187/47 61/188/47
f 64/189/48 66/190/48 68/191/48 61/192/48
f 65/193/49 63/194/49 62/195/49 67/196/49