# Blender 5.2.0 LTS
# www.blender.org
mtllib WALL.mtl
o NE
v 0.800000 -1.000000 -0.800000
v 0.800000 1.000000 -0.800000
v 0.800000 -1.000000 -1.000000
v 0.800000 1.000000 -1.000000
v 1.000000 -1.000000 -0.800000
v 1.000000 1.000000 -0.800000
v 1.000000 -1.000000 -1.000000
v 1.000000 1.000000 -1.000000
vn -1.0000 -0.0000 -0.0000
vn -0.0000 -0.0000 -1.0000
vn 1.0000 -0.0000 -0.0000
vn -0.0000 -0.0000 1.0000
vn -0.0000 -1.0000 -0.0000
vn -0.0000 1.0000 -0.0000
vt 0.375000 0.000000
vt 0.625000 0.000000
vt 0.625000 0.250000
vt 0.375000 0.250000
vt 0.625000 0.500000
vt 0.375000 0.500000
vt 0.625000 0.750000
vt 0.375000 0.750000
vt 0.625000 1.000000
vt 0.375000 1.000000
vt 0.125000 0.500000
vt 0.125000 0.750000
vt 0.875000 0.500000
vt 0.875000 0.750000
s 0
f 1/1/1 2/2/1 4/3/1 3/4/1
f 3/4/2 4/3/2 8/5/2 7/6/2
f 7/6/3 8/5/3 6/7/3 5/8/3
f 5/8/4 6/7/4 2/9/4 1/10/4
f 3/11/5 7/6/5 5/8/5 1/12/5
f 8/5/6 4/13/6 2/14/6 6/7/6
o SE
v 0.800000 -1.000000 1.000000
v 0.800000 1.000000 1.000000
v 0.800000 -1.000000 0.800000
v 0.800000 1.000000 0.800000
v 1.000000 -1.000000 1.000000
v 1.000000 1.000000 1.000000
v 1.000000 -1.000000 0.800000
v 1.000000 1.000000 0.800000
vn -1.0000 -0.0000 -0.0000
vn -0.0000 -0.0000 -1.0000
vn 1.0000 -0.0000 -0.0000
vn -0.0000 -0.0000 1.0000
vn -0.0000 -1.0000 -0.0000
vn -0.0000 1.0000 -0.0000
vt 0.375000 0.000000
vt 0.625000 0.000000
vt 0.625000 0.250000
vt 0.375000 0.250000
vt 0.625000 0.500000
vt 0.375000 0.500000
vt 0.625000 0.750000
vt 0.375000 0.750000
vt 0.625000 1.000000
vt 0.375000 1.000000
vt 0.125000 0.500000
vt 0.125000 0.750000
vt 0.875000 0.500000
vt 0.875000 0.750000
s 0
f 9/15/7 10/16/7 12/17/7 11/18/7
f 11/18/8 12/17/8 16/19/8 15/20/8
f 15/20/9 16/19/9 14/21/9 13/22/9
f 13/22/10 14/21/10 10/23/10 9/24/10
f 11/25/11 15/20/11 13/22/11 9/26/11
f 16/19/12 12/27/12 10/28/12 14/21/12
o NW
v -1.000000 -1.000000 -0.800000
v -1.000000 1.000000 -0.800000
v -1.000000 -1.000000 -1.000000
v -1.000000 1.000000 -1.000000
v -0.800000 -1.000000 -0.800000
v -0.800000 1.000000 -0.800000
v -0.800000 -1.000000 -1.000000
v -0.800000 1.000000 -1.000000
vn -1.0000 -0.0000 -0.0000
vn -0.0000 -0.0000 -1.0000
vn 1.0000 -0.0000 -0.0000
vn -0.0000 -0.0000 1.0000
vn -0.0000 -1.0000 -0.0000
vn -0.0000 1.0000 -0.0000
vt 0.375000 0.000000
vt 0.625000 0.000000
vt 0.625000 0.250000
vt 0.375000 0.250000
vt 0.625000 0.500000
vt 0.375000 0.500000
vt 0.625000 0.750000
vt 0.375000 0.750000
vt 0.625000 1.000000
vt 0.375000 1.000000
vt 0.125000 0.500000
vt 0.125000 0.750000
vt 0.875000 0.500000
vt 0.875000 0.750000
s 0
f 17/29/13 18/30/13 20/31/13 19/32/13
f 19/32/14 20/31/14 24/33/14 23/34/14
f 23/34/15 24/33/15 22/35/15 21/36/15
f 21/36/16 22/35/16 18/37/16 17/38/16
f 19/39/17 23/34/17 21/36/17 17/40/17
f 24/33/18 20/41/18 18/42/18 22/35/18
o SW
v -1.000000 -1.000000 1.000000
v -1.000000 1.000000 1.000000
v -1.000000 -1.000000 0.800000
v -1.000000 1.000000 0.800000
v -0.800000 -1.000000 1.000000
v -0.800000 1.000000 1.000000
v -0.800000 -1.000000 0.800000
v -0.800000 1.000000 0.800000
vn -1.0000 -0.0000 -0.0000
vn -0.0000 -0.0000 -1.0000
vn 1.0000 -0.0000 -0.0000
vn -0.0000 -0.0000 1.0000
vn -0.0000 -1.0000 -0.0000
vn -0.0000 1.0000 -0.0000
vt 0.375000 0.000000
vt 0.625000 0.000000
vt 0.625000 0.250000
vt 0.375000 0.250000
vt 0.625000 0.500000
vt 0.375000 0.500000
vt 0.625000 0.750000
vt 0.375000 0.750000
vt 0.625000 1.000000
vt 0.375000 1.000000
vt 0.125000 0.500000
vt 0.125000 0.750000
vt 0.875000 0.500000
vt 0.875000 0.750000
s 0
f 25/43/19 26/44/19 28/45/19 27/46/19
f 27/46/20 28/45/20 32/47/20 31/48/20
f 31/48/21 32/47/21 30/49/21 29/50/21
f 29/50/22 30/49/22 26/51/22 25/52/22
f 27/53/23 31/48/23 29/50/23 25/54/23
f 32/47/24 28/55/24 26/56/24 30/49/24
o Floor
v -1.000000 -1.000000 1.000000
v 1.000000 -1.000000 1.000000
v -1.000000 -1.000000 -1.000000
v 1.000000 -1.000000 -1.000000
vn -0.0000 1.0000 -0.0000
vt 0.000000 0.000000
vt 1.000000 0.000000
vt 1.000000 1.000000
vt 0.000000 1.000000
s 0
f 33/57/25 34/58/25 36/59/25 35/60/25
o N
v -0.800000 -1.000000 -0.980000
v -0.800000 1.000000 -0.980000
v -0.800000 -1.000000 -1.000000
v -0.800000 1.000000 -1.000000
v 0.800000 -1.000000 -0.980000
v 0.800000 1.000000 -0.980000
v 0.800000 -1.000000 -1.000000
v 0.800000 1.000000 -1.000000
vn -1.0000 -0.0000 -0.0000
vn -0.0000 -0.0000 -1.0000
vn 1.0000 -0.0000 -0.0000
vn -0.0000 -0.0000 1.0000
vn -0.0000 -1.0000 -0.0000
vn -0.0000 1.0000 -0.0000
vt 0.375000 0.000000
vt 0.625000 0.000000
vt 0.625000 0.250000
vt 0.375000 0.250000
vt 0.625000 0.500000
vt 0.375000 0.500000
vt 0.625000 0.750000
vt 0.375000 0.750000
vt 0.625000 1.000000
vt 0.375000 1.000000
vt 0.125000 0.500000
vt 0.125000 0.750000
vt 0.875000 0.500000
vt 0.875000 0.750000
s 0
f 37/61/26 38/62/26 40/63/26 39/64/26
f 39/64/27 40/63/27 44/65/27 43/66/27
f 43/66/28 44/65/28 42/67/28 41/68/28
f 41/68/29 42/67/29 38/69/29 37/70/29
f 39/71/30 43/66/30 41/68/30 37/72/30
f 44/65/31 40/73/31 38/74/31 42/67/31
o S
v -0.800000 -1.000000 1.000000
v -0.800000 1.000000 1.000000
v -0.800000 -1.000000 0.980000
v -0.800000 1.000000 0.980000
v 0.800000 -1.000000 1.000000
v 0.800000 1.000000 1.000000
v 0.800000 -1.000000 0.980000
v 0.800000 1.000000 0.980000
vn -1.0000 -0.0000 -0.0000
vn -0.0000 -0.0000 -1.0000
vn 1.0000 -0.0000 -0.0000
vn -0.0000 -0.0000 1.0000
vn -0.0000 -1.0000 -0.0000
vn -0.0000 1.0000 -0.0000
vt 0.375000 0.000000
vt 0.625000 0.000000
vt 0.625000 0.250000
vt 0.375000 0.250000
vt 0.625000 0.500000
vt 0.375000 0.500000
vt 0.625000 0.750000
vt 0.375000 0.750000
vt 0.625000 1.000000
vt 0.375000 1.000000
vt 0.125000 0.500000
vt 0.125000 0.750000
vt 0.875000 0.500000
vt 0.875000 0.750000
s 0
f 45/75/32 46/76/32 48/77/32 47/78/32
f 47/78/33 48/77/33 52/79/33 51/80/33
f 51/80/34 52/79/34 50/81/34 49/82/34
f 49/82/35 50/81/35 46/83/35 45/84/35
f 47/85/36 51/80/36 49/82/36 45/86/36
f 52/79/37 48/87/37 46/88/37 50/81/37
o W
v -1.000000 -1.000000 0.800000
v -1.000000 1.000000 0.800000
v -1.000000 -1.000000 -0.800000
v -1.000000 1.000000 -0.800000
v -0.980000 -1.000000 0.800000
v -0.980000 1.000000 0.800000
v -0.980000 -1.000000 -0.800000
v -0.980000 1.000000 -0.800000
vn -1.0000 -0.0000 -0.0000
vn -0.0000 -0.0000 -1.0000
vn 1.0000 -0.0000 -0.0000
vn -0.0000 -0.0000 1.0000
vn -0.0000 -1.0000 -0.0000
vn -0.0000 1.0000 -0.0000
vt 0.375000 0.000000
vt 0.625000 0.000000
vt 0.625000 0.250000
vt 0.375000 0.250000
vt 0.625000 0.500000
vt 0.375000 0.500000
vt 0.625000 0.750000
vt 0.375000 0.750000
vt 0.625000 1.000000
vt 0.375000 1.000000
vt 0.125000 0.500000
vt 0.125000 0.750000
vt 0.875000 0.500000
vt 0.875000 0.750000
s 0
f 53/89/38 54/90/38 56/91/38 55/92/38
f 55/92/39 56/91/39 60/93/39 59/94/39
f 59/94/40 60/93/40 58/95/40 57/96/40
f 57/96/41 58/95/41 54/97/41 53/98/41
f 55/99/42 59/94/42 57/96/42 53/100/42
f 60/93/43 56/101/43 54/102/43 58/95/43
o E
v 0.980000 -1.000000 0.800000
v 0.980000 1.000000 0.800000
v 0.980000 -1.000000 -0.800000
v 0.980000 1.000000 -0.800000
v 1.000000 -1.000000 0.800000
v 1.000000 1.000000 0.800000
v 1.000000 -1.000000 -0.800000
v 1.000000 1.000000 -0.800000
vn -1.0000 -0.0000 -0.0000
vn -0.0000 -0.0000 -1.0000
vn 1.0000 -0.0000 -0.0000
vn -0.0000 -0.0000 1.0000
vn -0.0000 -1.0000 -0.0000
vn -0.0000 1.0000 -0.0000
vt 0.375000 0.000000
vt 0.625000 0.000000
vt 0.625000 0.250000
vt 0.375000 0.250000
vt 0.625000 0.500000
vt 0.375000 0.500000
vt 0.625000 0.750000
vt 0.375000 0.750000
vt 0.625000 1.000000
vt 0.375000 1.000000
vt 0.125000 0.500000
vt 0.125000 0.750000
vt 0.875000 0.500000
vt 0.875000 0.750000
s 0
f 61/103/44 62/104/44 64/105/44 63/106/44
f 63/106/45 64/105/45 68/107/45 67/108/45
f 67/108/46 68/107/46 66/109/46 65/110/46
f 65/110/47 66/109/47 62/111/47 61/112/47
f 63/113/48 67/108/48 65/110/48 61/114/48
f 68/107/49 64/115/49 62/116/49 66/109/49
