# Made in Blockbench 5.1.6
mtllib Pillar.mtl

o Bottom
v 0.125 0.25 0.5
v 0.125 0.25 -0.5
v 0.125 0 0.5
v 0.125 0 -0.5
v -0.125 0.25 0.5
v -0.125 0.25 -0.5
v -0.125 0 0.5
v -0.125 0 -0.5
v -0.125 0.25 0.375
v -0.125 0.25 -0.375
v -0.125 0 0.375
v -0.125 0 -0.375
v -0.4375 0.25 0.375
v -0.4375 0.25 -0.375
v -0.5 0 0.375
v -0.5 0 -0.375
v 0.125 0.25 -0.375
v 0.125 0.25 0.375
v 0.125 0 -0.375
v 0.125 0 0.375
v 0.4375 0.25 -0.375
v 0.4375 0.25 0.375
v 0.5 0 -0.375
v 0.5 0 0.375
vt 0.765625 0.59375
vt 0.515625 0.59375
vt 0.515625 0.53125
vt 0.765625 0.53125
vt 0.765625 0.453125
vt 0.765625 0.515625
vt 0.515625 0.515625
vt 0.515625 0.453125
vt 0.78125 0.921875
vt 0.71875 0.921875
vt 0.71875 0.859375
vt 0.78125 0.859375
vt 0.515625 0.1875
vt 0.578125 0.1875
vt 0.578125 0.4375
vt 0.515625 0.4375
vt 0.65625 0.1875
vt 0.65625 0.4375
vt 0.59375 0.4375
vt 0.59375 0.1875
vt 0.734375 0.21875
vt 0.734375 0.28125
vt 0.671875 0.28125
vt 0.671875 0.21875
vt 0.8125 0.796875
vt 0.625 0.796875
vt 0.625 0.734375
vt 0.8125 0.734375
vt 0.8125 0.65625
vt 0.8125 0.71875
vt 0.625 0.71875
vt 0.625 0.65625
vt 0.75 0.359375
vt 0.671875 0.359375
vt 0.671875 0.296875
vt 0.765625 0.296875
vt 0.625 0.8125
vt 0.703125 0.8125
vt 0.703125 1
vt 0.625 1
vt 0.609375 0.8125
vt 0.609375 1
vt 0.515625 1
vt 0.515625 0.8125
vt 0.359375 0.234375
vt 0.359375 0.296875
vt 0.28125 0.296875
vt 0.265625 0.234375
vt 0.453125 0.375
vt 0.265625 0.375
vt 0.265625 0.3125
vt 0.453125 0.3125
vt 0.859375 0.375
vt 0.859375 0.4375
vt 0.671875 0.4375
vt 0.671875 0.375
vt 0.453125 0.296875
vt 0.375 0.296875
vt 0.375 0.234375
vt 0.46875 0.234375
vt 0.25 0.375
vt 0.171875 0.375
vt 0.171875 0.1875
vt 0.25 0.1875
vt 0.515625 0.796875
vt 0.515625 0.609375
vt 0.609375 0.609375
vt 0.609375 0.796875
vt 0.8125 0.9375
vt 0.8125 1
vt 0.734375 1
vt 0.71875 0.9375
vn 1 0 0
vn -1 0 0
vn 0 0 -1
vn 0 1 0
vn 0 -1 0
vn 0 0 1
vn 1 0 0
vn -0.970142500145332 0.242535625036333 0
vn 0 0 -1
vn 0 1 0
vn 0 -1 0
vn 0 0 1
vn -1 0 0
vn 0.970142500145332 0.242535625036333 0
vn 0 0 1
vn 0 1 0
vn 0 -1 0
vn 0 0 -1
usemtl m_0f81ab60-2861-2916-0d17-7a8c19827a54
f 2/1/1 1/2/1 3/3/1 4/4/1
f 7/5/2 5/6/2 6/7/2 8/8/2
f 6/9/3 2/10/3 4/11/3 8/12/3
f 5/13/4 1/14/4 2/15/4 6/16/4
f 4/17/5 3/18/5 7/19/5 8/20/5
f 3/21/6 1/22/6 5/23/6 7/24/6
f 10/25/7 9/26/7 11/27/7 12/28/7
f 15/29/8 13/30/8 14/31/8 16/32/8
f 14/33/9 10/34/9 12/35/9 16/36/9
f 13/37/10 9/38/10 10/39/10 14/40/10
f 12/41/11 11/42/11 15/43/11 16/44/11
f 11/45/12 9/46/12 13/47/12 15/48/12
f 18/49/13 17/50/13 19/51/13 20/52/13
f 23/53/14 21/54/14 22/55/14 24/56/14
f 22/57/15 18/58/15 20/59/15 24/60/15
f 21/61/16 17/62/16 18/63/16 22/64/16
f 20/65/17 19/66/17 23/67/17 24/68/17
f 19/69/18 17/70/18 21/71/18 23/72/18
o Main
v 0.3125 2 0.3125
v 0.3125 2 -0.3125
v 0.3125 0.25 0.3125
v 0.3125 0.25 -0.3125
v -0.3125 2 0.3125
v -0.3125 2 -0.3125
v -0.3125 0.25 0.3125
v -0.3125 0.25 -0.3125
vt 0.171875 0.390625
vt 0.328125 0.390625
vt 0.328125 0.546875
vt 0.171875 0.546875
vt 0.5 0.390625
vt 0.5 0.546875
vt 0.34375 0.546875
vt 0.34375 0.390625
vt 0.15625 1
vt 0 1
vt 0 0.5625
vt 0.15625 0.5625
vt 0.328125 1
vt 0.171875 1
vt 0.171875 0.5625
vt 0.328125 0.5625
vt 0.5 0.5625
vt 0.5 1
vt 0.34375 1
vt 0.34375 0.5625
vt 0.15625 0.109375
vt 0.15625 0.546875
vt 0 0.546875
vt 0 0.109375
vn 0 1 0
vn 0 -1 0
vn 0 0 -1
vn 1 0 0
vn -1 0 0
vn 0 0 1
usemtl m_0f81ab60-2861-2916-0d17-7a8c19827a54
f 29/73/19 25/74/19 26/75/19 30/76/19
f 28/77/20 27/78/20 31/79/20 32/80/20
f 30/81/21 26/82/21 28/83/21 32/84/21
f 26/85/22 25/86/22 27/87/22 28/88/22
f 31/89/23 29/90/23 30/91/23 32/92/23
f 27/93/24 25/94/24 29/95/24 31/96/24
o LightBar
v 0.375 1.875 0.0625
v 0.375 1.875 -0.0625
v 0.375 0.375 0.0625
v 0.375 0.375 -0.0625
v -0.375 1.875 0.0625
v -0.375 1.875 -0.0625
v -0.375 0.375 0.0625
v -0.375 0.375 -0.0625
vt 0 0.75
vt 0.25 0.75
vt 0.25 1
vt 0 1
vt 0.25 0.75
vt 0.25 1
vt 0 1
vt 0 0.75
vt 0.25 1
vt 0 1
vt 0 0.875
vt 0.25 0.875
vt 0.25 1
vt 0 1
vt 0 0.875
vt 0.25 0.875
vt 0.25 0.875
vt 0.25 1
vt 0 1
vt 0 0.875
vt 0.25 0.875
vt 0.25 1
vt 0 1
vt 0 0.875
vn 0 1 0
vn 0 -1 0
vn 0 0 -1
vn 1 0 0
vn -1 0 0
vn 0 0 1
usemtl none
f 37/97/25 33/98/25 34/99/25 38/100/25
f 36/101/26 35/102/26 39/103/26 40/104/26
f 38/105/27 34/106/27 36/107/27 40/108/27
f 34/109/28 33/110/28 35/111/28 36/112/28
f 39/113/29 37/114/29 38/115/29 40/116/29
f 35/117/30 33/118/30 37/119/30 39/120/30
o LightBar2
v 0.06250000000000008 1.875 -0.375
v -0.06249999999999992 1.875 -0.375
v 0.06250000000000008 0.375 -0.375
v -0.06249999999999992 0.375 -0.375
v 0.06249999999999992 1.875 0.375
v -0.06250000000000008 1.875 0.375
v 0.06249999999999992 0.375 0.375
v -0.06250000000000008 0.375 0.375
vt 0 0.75
vt 0.25 0.75
vt 0.25 1
vt 0 1
vt 0.25 0.75
vt 0.25 1
vt 0 1
vt 0 0.75
vt 0.25 1
vt 0 1
vt 0 0.875
vt 0.25 0.875
vt 0.25 1
vt 0 1
vt 0 0.875
vt 0.25 0.875
vt 0.25 0.875
vt 0.25 1
vt 0 1
vt 0 0.875
vt 0.25 0.875
vt 0.25 1
vt 0 1
vt 0 0.875
vn 0 1 0
vn 0 -1 0
vn -1 0 -2.220446049250313e-16
vn 2.220446049250313e-16 0 -1
vn -2.220446049250313e-16 0 1
vn 1 0 2.220446049250313e-16
usemtl none
f 45/121/31 41/122/31 42/123/31 46/124/31
f 44/125/32 43/126/32 47/127/32 48/128/32
f 46/129/33 42/130/33 44/131/33 48/132/33
f 42/133/34 41/134/34 43/135/34 44/136/34
f 47/137/35 45/138/35 46/139/35 48/140/35
f 43/141/36 41/142/36 45/143/36 47/144/36