# Blender 5.2.1 LTS
# www.blender.org
mtllib Trapdoor.mtl
o Left
v 0.000000 -0.999294 -0.900000
v 0.000000 -1.099294 -0.900000
v 0.000000 -0.999294 0.900000
v 0.000000 -1.099294 0.900000
v -0.900000 -0.999294 -0.900000
v -0.900000 -1.099294 -0.900000
v -0.900000 -0.999294 0.900000
v -0.900000 -1.099294 0.900000
vn -0.0000 1.0000 -0.0000
vn -0.0000 -0.0000 1.0000
vn -1.0000 -0.0000 -0.0000
vn -0.0000 -1.0000 -0.0000
vn 1.0000 -0.0000 -0.0000
vn -0.0000 -0.0000 -1.0000
vt 0.625000 0.500000
vt 0.875000 0.500000
vt 0.875000 0.750000
vt 0.625000 0.750000
vt 0.375000 0.750000
vt 0.625000 1.000000
vt 0.375000 1.000000
vt 0.375000 0.000000
vt 0.625000 0.000000
vt 0.625000 0.250000
vt 0.375000 0.250000
vt 0.125000 0.500000
vt 0.375000 0.500000
vt 0.125000 0.750000
s 0
usemtl Material
f 1/1/1 5/2/1 7/3/1 3/4/1
f 4/5/2 3/4/2 7/6/2 8/7/2
f 8/8/3 7/9/3 5/10/3 6/11/3
f 6/12/4 2/13/4 4/5/4 8/14/4
f 2/13/5 1/1/5 3/4/5 4/5/5
f 6/11/6 5/10/6 1/1/6 2/13/6
o Right
v 0.900000 -0.999001 -0.900000
v 0.900000 -1.099001 -0.900000
v 0.900000 -0.999001 0.900000
v 0.900000 -1.099001 0.900000
v 0.000000 -0.999001 -0.900000
v 0.000000 -1.099001 -0.900000
v 0.000000 -0.999001 0.900000
v 0.000000 -1.099001 0.900000
vn -0.0000 1.0000 -0.0000
vn -0.0000 -0.0000 1.0000
vn -1.0000 -0.0000 -0.0000
vn -0.0000 -1.0000 -0.0000
vn 1.0000 -0.0000 -0.0000
vn -0.0000 -0.0000 -1.0000
vt 0.625000 0.500000
vt 0.875000 0.500000
vt 0.875000 0.750000
vt 0.625000 0.750000
vt 0.375000 0.750000
vt 0.625000 1.000000
vt 0.375000 1.000000
vt 0.375000 0.000000
vt 0.625000 0.000000
vt 0.625000 0.250000
vt 0.375000 0.250000
vt 0.125000 0.500000
vt 0.375000 0.500000
vt 0.125000 0.750000
s 0
usemtl Material.001
f 9/15/7 13/16/7 15/17/7 11/18/7
f 12/19/8 11/18/8 15/20/8 16/21/8
f 16/22/9 15/23/9 13/24/9 14/25/9
f 14/26/10 10/27/10 12/19/10 16/28/10
f 10/27/11 9/15/11 11/18/11 12/19/11
f 14/25/12 13/24/12 9/15/12 10/27/12
o Pit
v -0.900000 -7.000000 0.900000
v -0.900000 -1.000000 0.900000
v -1.000000 -7.000000 0.900000
v -1.000000 -1.000000 0.900000
v -0.900000 -7.000000 -0.900000
v -0.900000 -1.000000 -0.900000
v -1.000000 -7.000000 -0.900000
v -1.000000 -1.000000 -0.900000
v -1.000000 -7.000000 -0.900000
v -1.000000 -1.000000 -0.900000
v -1.000000 -7.000000 -1.000000
v -1.000000 -1.000000 -1.000000
v 1.000000 -7.000000 -0.900000
v 1.000000 -1.000000 -0.900000
v 1.000000 -7.000000 -1.000000
v 1.000000 -1.000000 -1.000000
v -1.000000 -7.000000 1.000000
v -1.000000 -1.000000 1.000000
v -1.000000 -7.000000 0.900000
v -1.000000 -1.000000 0.900000
v 1.000000 -7.000000 1.000000
v 1.000000 -1.000000 1.000000
v 1.000000 -7.000000 0.900000
v 1.000000 -1.000000 0.900000
v 1.000000 -7.000000 0.900000
v 1.000000 -1.000000 0.900000
v 0.900000 -7.000000 0.900000
v 0.900000 -1.000000 0.900000
v 1.000000 -7.000000 -0.900000
v 1.000000 -1.000000 -0.900000
v 0.900000 -7.000000 -0.900000
v 0.900000 -1.000000 -0.900000
vn -0.0000 -0.0000 1.0000
vn -1.0000 -0.0000 -0.0000
vn -0.0000 -0.0000 -1.0000
vn 1.0000 -0.0000 -0.0000
vn -0.0000 -1.0000 -0.0000
vn -0.0000 1.0000 -0.0000
vt 0.375000 0.000000
vt 0.625000 0.000000
vt 0.625000 0.250000
vt 0.375000 0.250000
vt 0.625000 0.500000
vt 0.375000 0.500000
vt 0.625000 0.750000
vt 0.375000 0.750000
vt 0.625000 1.000000
vt 0.375000 1.000000
vt 0.125000 0.500000
vt 0.125000 0.750000
vt 0.875000 0.500000
vt 0.875000 0.750000
s 0
f 17/29/13 18/30/13 20/31/13 19/32/13
f 19/32/14 20/31/14 24/33/14 23/34/14
f 23/34/15 24/33/15 22/35/15 21/36/15
f 21/36/16 22/35/16 18/37/16 17/38/16
f 19/39/17 23/34/17 21/36/17 17/40/17
f 24/33/18 20/41/18 18/42/18 22/35/18
f 25/29/14 26/30/14 28/31/14 27/32/14
f 27/32/15 28/31/15 32/33/15 31/34/15
f 31/34/16 32/33/16 30/35/16 29/36/16
f 29/36/13 30/35/13 26/37/13 25/38/13
f 27/39/17 31/34/17 29/36/17 25/40/17
f 32/33/18 28/41/18 26/42/18 30/35/18
f 33/29/14 34/30/14 36/31/14 35/32/14
f 35/32/15 36/31/15 40/33/15 39/34/15
f 39/34/16 40/33/16 38/35/16 37/36/16
f 37/36/13 38/35/13 34/37/13 33/38/13
f 35/39/17 39/34/17 37/36/17 33/40/17
f 40/33/18 36/41/18 34/42/18 38/35/18
f 41/29/13 42/30/13 44/31/13 43/32/13
f 43/32/14 44/31/14 48/33/14 47/34/14
f 47/34/15 48/33/15 46/35/15 45/36/15
f 45/36/16 46/35/16 42/37/16 41/38/16
f 43/39/17 47/34/17 45/36/17 41/40/17
f 48/33/18 44/41/18 42/42/18 46/35/18
