# Made in Blockbench 5.1.6
mtllib wall.mtl

o N
v 1 1 -1
v -0.8 1 -1
v -0.8 -1 -1
v 0.8 -1 -1
v 0.8 1 -1
v -1 1 -0.8
v -1 -1 -0.8
v -0.8 -1 -0.8
v -0.8 1 -0.8
v -1 1 -1
v -1 -1 -1
v 0.8 1 -0.8
v 0.8 -1 -0.8
v 1 -1 -0.8
v 1 1 -0.8
v 1 -1 -1
vt 0 1
vt 0 0.75
vt 0.203125 0.75
vt 0.203125 1
vt 0.2109375 1
vt 0.2109375 0.75
vt 0.234375 0.75
vt 0.234375 1
vt 0.265625 0.75
vt 0.265625 1
vt 0.2421875 1
vt 0.2421875 0.75
vt 0 0.7421875
vt 0 0.4921875
vt 0.0234375 0.4921875
vt 0.0234375 0.7421875
vt 0.03125 0.7421875
vt 0.03125 0.4921875
vt 0.0546875 0.4921875
vt 0.0546875 0.7421875
vt 0.0859375 0.4921875
vt 0.0859375 0.7421875
vt 0.0625 0.7421875
vt 0.0625 0.4921875
vt 0.09375 0.7421875
vt 0.09375 0.4921875
vt 0.1171875 0.4921875
vt 0.1171875 0.7421875
vn 0 0 1
vn 0 0 1
vn 1 0 0
vn -1 0 0
vn 0 0 1
vn 1 0 0
vn -1 0 0
usemtl m_de27a757-828c-2165-8bbe-af4415e7b5ed
f 2/1/1 3/2/1 4/3/1 5/4/1
f 6/5/2 7/6/2 8/7/2 9/8/2
f 3/9/3 2/10/3 9/11/3 8/12/3
f 10/13/4 11/14/4 7/15/4 6/16/4
f 12/17/5 13/18/5 14/19/5 15/20/5
f 16/21/6 1/22/6 15/23/6 14/24/6
f 5/25/7 4/26/7 13/27/7 12/28/7